<svg id="svg" version="1.1" xmlns="http://www.w3.org/2000/svg" xmlns:xlink="http://www.w3.org/1999/xlink" width="400" height="400" viewBox="0, 0, 400,400"><g id="svgg"><path id="path0" d="M193.800 4.030 C 184.379 4.553,173.696 6.079,166.000 8.000 C 165.230 8.192,163.700 8.558,162.600 8.813 C 161.500 9.068,160.150 9.417,159.600 9.590 C 159.050 9.762,156.710 10.486,154.400 11.199 C 152.090 11.912,149.840 12.637,149.400 12.810 C 148.960 12.982,147.070 13.699,145.200 14.402 C 137.789 17.188,128.261 21.658,123.000 24.817 C 121.900 25.478,120.730 26.139,120.400 26.287 C 119.913 26.505,116.472 28.667,113.200 30.810 C 85.614 48.883,62.909 77.518,51.522 108.600 C 49.729 113.494,47.306 120.964,46.754 123.300 C 46.559 124.125,46.210 125.565,45.978 126.500 C 42.749 139.513,41.404 151.124,41.401 166.000 C 41.399 180.916,42.551 190.816,45.938 205.000 C 49.381 219.417,56.558 236.916,63.985 249.000 C 64.931 250.540,66.238 252.691,66.889 253.779 C 74.036 265.731,89.019 282.340,102.000 292.702 C 117.461 305.044,130.670 312.346,150.800 319.678 C 161.264 323.490,168.294 330.783,171.546 341.200 C 172.968 345.755,173.198 350.188,173.199 373.100 C 173.200 388.006,173.334 395.200,173.612 395.200 C 175.157 395.200,201.252 381.415,211.341 375.270 C 212.848 374.351,214.171 373.600,214.279 373.600 C 214.388 373.600,214.954 373.261,215.538 372.847 C 216.122 372.433,217.230 371.737,218.000 371.300 C 240.250 358.690,279.277 328.346,296.562 310.218 C 297.201 309.548,299.361 307.289,301.362 305.198 C 306.935 299.373,308.806 297.258,316.943 287.581 C 323.730 279.509,334.327 264.049,339.687 254.400 C 340.237 253.410,341.098 251.880,341.601 251.000 C 344.074 246.670,349.308 235.553,351.254 230.500 C 351.444 230.005,351.804 229.105,352.054 228.500 C 352.303 227.895,352.663 226.995,352.854 226.500 C 353.044 226.005,353.372 225.195,353.582 224.700 C 353.792 224.205,354.535 222.000,355.233 219.800 C 355.931 217.600,356.644 215.440,356.818 215.000 C 356.991 214.560,357.248 213.750,357.389 213.200 C 357.530 212.650,358.179 210.130,358.832 207.600 C 366.036 179.687,365.770 148.712,358.099 122.200 C 357.335 119.560,356.620 116.903,356.509 116.295 C 356.398 115.687,356.149 115.092,355.954 114.971 C 355.759 114.851,355.600 114.349,355.600 113.856 C 355.600 113.363,355.457 112.789,355.282 112.580 C 355.107 112.371,354.735 111.480,354.455 110.600 C 353.924 108.926,353.350 107.478,352.753 106.305 C 352.559 105.923,352.400 105.426,352.400 105.201 C 352.400 102.875,341.642 82.668,336.240 74.847 C 335.118 73.223,333.937 71.513,333.615 71.047 C 332.605 69.584,326.911 62.238,326.138 61.400 C 325.732 60.960,324.883 59.970,324.251 59.200 C 321.912 56.347,312.607 47.060,307.750 42.731 C 303.340 38.801,286.094 26.400,285.037 26.400 C 284.952 26.400,283.648 25.650,282.141 24.734 C 278.326 22.415,268.448 17.622,262.940 15.418 C 257.079 13.073,247.263 9.825,243.000 8.821 C 241.900 8.562,240.370 8.192,239.600 8.000 C 225.919 4.585,209.472 3.159,193.800 4.030 M212.400 24.015 C 229.797 25.755,242.694 28.752,255.500 34.029 C 255.995 34.233,256.805 34.562,257.300 34.759 C 258.644 35.295,270.416 41.107,271.800 41.917 C 272.460 42.304,273.900 43.143,275.000 43.782 C 292.996 54.241,312.959 74.204,323.418 92.200 C 324.057 93.300,324.896 94.740,325.283 95.400 C 326.108 96.810,331.942 108.633,332.387 109.800 C 332.555 110.240,332.884 111.050,333.117 111.600 C 342.288 133.208,345.569 160.167,342.050 185.000 C 333.483 245.450,285.958 294.148,225.912 304.003 C 204.941 307.445,180.822 306.063,162.600 300.375 C 156.869 298.585,153.330 297.344,149.000 295.605 C 120.782 284.271,95.228 261.914,79.956 235.200 C 77.326 230.600,72.930 221.658,71.549 218.100 C 71.028 216.757,70.446 215.310,70.021 214.300 C 69.549 213.177,67.485 206.812,66.810 204.400 C 66.534 203.410,66.163 202.150,65.988 201.600 C 58.839 179.232,60.383 138.787,69.188 117.800 C 69.373 117.360,70.112 115.470,70.830 113.600 C 75.311 101.941,81.377 90.962,88.953 80.800 C 90.511 78.710,91.879 76.910,91.993 76.800 C 92.107 76.690,93.004 75.610,93.987 74.400 C 107.873 57.304,128.869 42.063,150.200 33.592 C 169.245 26.030,194.169 22.192,212.400 24.015 M213.800 88.823 C 212.920 89.005,211.465 89.164,210.567 89.177 C 209.668 89.190,208.810 89.323,208.659 89.474 C 208.284 89.850,205.538 90.787,204.800 90.792 C 203.023 90.803,191.608 96.133,187.057 99.076 C 172.390 108.561,161.659 122.212,152.686 142.800 C 149.140 150.937,146.028 160.403,144.336 168.200 C 143.906 170.180,143.378 172.610,143.162 173.600 C 142.712 175.665,142.187 179.270,141.502 185.000 C 140.861 190.358,140.861 206.166,141.501 210.000 C 141.777 211.650,142.164 213.990,142.361 215.200 C 143.513 222.255,148.501 231.864,153.129 235.944 C 156.408 238.835,162.235 242.800,163.203 242.800 C 163.380 242.800,164.216 243.150,165.062 243.577 C 165.908 244.004,167.680 244.708,169.000 245.140 C 171.180 245.854,172.423 246.162,177.400 247.217 C 183.754 248.565,194.571 248.554,202.200 247.192 C 207.936 246.168,209.435 245.857,209.800 245.615 C 210.020 245.470,211.190 245.124,212.400 244.847 C 214.503 244.366,215.776 243.926,217.295 243.153 C 217.677 242.959,218.201 242.800,218.460 242.800 C 219.893 242.800,230.155 237.525,235.200 234.195 C 248.517 225.405,260.170 213.055,271.615 195.600 C 275.018 190.411,275.186 190.800,269.539 190.800 L 264.704 190.800 257.652 197.934 C 253.773 201.857,250.059 205.502,249.399 206.034 C 248.738 206.565,247.208 207.822,245.999 208.827 C 239.912 213.885,233.655 217.616,228.400 219.322 C 211.229 224.895,195.146 222.926,190.013 214.622 C 187.320 210.264,186.088 200.791,186.813 190.005 C 187.303 182.699,186.993 183.320,190.304 183.012 C 193.771 182.689,198.215 182.041,200.000 181.598 C 200.770 181.407,202.300 181.037,203.400 180.777 C 205.468 180.287,211.916 178.245,213.500 177.579 C 213.995 177.370,214.805 177.040,215.300 176.843 C 223.228 173.702,233.902 166.571,240.800 159.807 C 244.166 156.506,244.318 156.335,247.043 152.751 C 250.102 148.728,250.558 148.023,252.451 144.400 C 254.835 139.837,255.970 136.887,257.148 132.200 C 257.369 131.320,257.786 129.700,258.075 128.600 C 259.065 124.828,258.773 110.771,257.634 107.400 C 254.424 97.904,249.077 92.577,240.600 90.432 C 239.500 90.154,238.240 89.781,237.800 89.604 C 235.169 88.547,217.859 87.983,213.800 88.823 M230.703 104.868 C 237.457 106.921,236.368 129.012,228.891 141.597 C 228.302 142.589,227.546 143.893,227.210 144.496 C 220.722 156.157,206.341 166.358,193.480 168.420 C 189.933 168.988,189.411 168.774,189.987 166.983 C 190.196 166.332,190.928 163.370,191.613 160.400 C 192.952 154.597,193.578 152.421,194.082 151.820 C 194.257 151.611,194.400 151.092,194.400 150.667 C 194.400 149.823,196.476 143.556,197.603 141.000 C 197.991 140.120,198.721 138.320,199.225 137.000 C 204.747 122.544,213.994 109.349,220.956 105.992 C 224.831 104.123,227.311 103.837,230.703 104.868 " stroke="none" fill="#e6e6e6" fill-rule="evenodd"></path><path id="path1" d="M191.200 27.265 C 178.292 28.576,168.971 30.494,158.200 34.053 C 156.220 34.708,154.150 35.437,153.600 35.675 C 153.050 35.913,152.240 36.239,151.800 36.400 C 138.225 41.371,121.018 52.113,109.257 62.958 C 102.668 69.034,94.629 78.025,90.800 83.600 C 90.271 84.370,89.728 85.090,89.593 85.200 C 87.154 87.185,77.117 105.875,73.804 114.600 C 73.219 116.140,72.574 117.713,72.370 118.095 C 72.167 118.477,72.000 119.141,72.000 119.571 C 72.000 120.001,71.841 120.451,71.648 120.570 C 71.454 120.690,71.197 121.196,71.076 121.694 C 70.955 122.192,70.673 123.230,70.450 124.000 C 70.025 125.469,69.416 127.645,68.772 130.000 C 68.158 132.242,66.731 139.074,66.015 143.200 C 64.040 154.572,64.032 176.024,65.998 186.400 C 66.186 187.390,66.547 189.370,66.801 190.800 C 67.304 193.637,68.673 199.607,69.185 201.200 C 69.362 201.750,69.735 203.010,70.014 204.000 C 71.288 208.526,73.039 213.543,74.444 216.696 C 74.860 217.628,75.200 218.501,75.200 218.636 C 75.200 219.188,80.811 230.425,82.539 233.333 C 83.562 235.056,84.400 236.548,84.400 236.648 C 84.400 237.002,89.259 244.051,92.280 248.080 C 106.951 267.649,129.378 284.699,151.600 293.179 C 153.470 293.892,155.360 294.630,155.800 294.818 C 156.860 295.271,160.273 296.406,161.900 296.847 C 162.615 297.041,163.785 297.364,164.500 297.565 C 172.147 299.714,178.201 300.914,187.200 302.064 C 192.816 302.781,211.984 302.781,217.600 302.064 C 226.266 300.957,233.966 299.430,240.400 297.545 C 241.170 297.319,242.297 297.038,242.905 296.921 C 243.513 296.804,244.108 296.549,244.229 296.354 C 244.349 296.159,244.876 296.000,245.400 296.000 C 245.924 296.000,246.464 295.820,246.600 295.600 C 246.736 295.380,247.199 295.200,247.629 295.200 C 248.059 295.200,248.723 295.041,249.105 294.847 C 249.962 294.411,251.307 293.857,253.400 293.080 C 256.342 291.986,259.339 290.620,264.389 288.068 C 273.904 283.262,280.633 278.935,288.812 272.365 C 297.407 265.461,306.412 256.178,312.671 247.770 C 316.091 243.175,317.543 241.022,320.245 236.539 C 323.779 230.673,328.085 222.218,330.042 217.300 C 330.883 215.185,331.222 214.348,331.579 213.500 C 337.827 198.642,341.798 170.881,339.998 154.627 C 338.557 141.603,338.419 140.751,336.350 132.132 C 332.396 115.659,326.523 102.356,316.691 87.600 C 314.907 84.923,311.734 80.531,311.201 80.000 C 311.090 79.890,310.375 78.990,309.612 78.000 C 305.673 72.894,294.276 61.496,289.200 57.586 C 288.210 56.824,287.310 56.110,287.200 55.999 C 285.960 54.753,277.431 48.945,272.358 45.893 C 268.180 43.379,259.035 38.803,254.900 37.158 C 254.405 36.961,253.595 36.637,253.100 36.437 C 247.747 34.279,242.220 32.567,235.068 30.850 C 226.449 28.781,225.597 28.643,212.573 27.202 C 208.331 26.732,196.090 26.768,191.200 27.265 M235.600 88.452 C 236.810 88.681,238.113 89.033,238.495 89.234 C 238.877 89.436,239.494 89.600,239.866 89.600 C 243.420 89.600,254.000 96.373,254.000 98.648 C 254.000 98.952,254.161 99.200,254.358 99.200 C 254.856 99.200,258.000 105.732,258.000 106.766 C 258.000 107.231,258.164 107.923,258.365 108.305 C 259.894 111.217,259.889 127.760,258.359 129.380 C 258.162 129.589,258.000 130.296,258.000 130.952 C 258.000 132.146,257.408 134.394,256.751 135.695 C 256.558 136.077,256.400 136.664,256.400 137.000 C 256.400 137.336,256.235 137.923,256.034 138.305 C 255.832 138.687,255.364 139.720,254.994 140.600 C 253.413 144.358,248.870 152.134,247.632 153.200 C 247.505 153.310,246.725 154.240,245.900 155.268 C 240.675 161.772,230.896 169.673,223.000 173.770 C 222.120 174.226,221.310 174.690,221.200 174.801 C 221.090 174.911,220.550 175.203,220.000 175.450 C 219.450 175.697,218.100 176.304,217.000 176.800 C 215.165 177.627,214.538 177.892,212.200 178.827 C 211.760 179.003,210.680 179.364,209.800 179.629 C 208.920 179.894,207.840 180.249,207.400 180.418 C 206.645 180.708,205.029 181.108,201.100 181.975 C 200.165 182.182,198.511 182.553,197.424 182.800 C 196.338 183.047,193.950 183.355,192.119 183.485 C 187.191 183.832,187.522 183.069,187.456 194.227 C 187.392 205.116,187.804 208.471,189.647 212.095 C 189.841 212.477,190.000 213.037,190.000 213.341 C 190.000 215.198,197.718 220.800,200.277 220.800 C 200.697 220.800,201.227 220.987,201.456 221.216 C 201.992 221.752,217.017 221.477,219.800 220.881 C 224.690 219.833,225.587 219.605,228.021 218.784 C 231.168 217.723,236.191 215.254,238.724 213.524 C 240.683 212.186,245.654 208.427,246.000 208.023 C 246.110 207.894,247.190 206.994,248.400 206.022 C 249.610 205.050,253.689 201.138,257.465 197.327 L 264.329 190.400 269.765 190.400 C 275.825 190.400,275.799 190.385,274.000 193.000 C 273.340 193.959,272.800 194.848,272.800 194.975 C 272.800 195.469,264.632 206.936,262.003 210.134 C 250.731 223.843,239.257 233.555,227.200 239.593 C 224.890 240.750,222.687 241.855,222.305 242.048 C 221.923 242.242,221.353 242.400,221.039 242.400 C 220.724 242.400,220.407 242.535,220.333 242.700 C 220.185 243.034,214.585 245.089,212.400 245.612 C 211.630 245.796,210.280 246.152,209.400 246.402 C 202.460 248.376,186.633 249.509,180.920 248.441 C 179.864 248.243,177.740 247.876,176.200 247.625 C 165.562 245.888,154.369 239.661,149.236 232.623 C 146.353 228.670,145.280 226.579,143.580 221.600 C 143.092 220.170,142.553 218.640,142.382 218.200 C 142.072 217.401,141.423 214.025,140.999 211.000 C 139.630 201.238,140.489 182.704,142.797 172.200 C 143.039 171.100,143.393 169.390,143.585 168.400 C 143.777 167.410,144.140 165.880,144.393 165.000 C 144.646 164.120,145.002 162.770,145.184 162.000 C 145.686 159.877,147.554 154.105,148.636 151.332 C 149.166 149.974,149.600 148.767,149.600 148.650 C 149.600 147.799,157.306 131.023,157.983 130.400 C 158.102 130.290,158.574 129.480,159.030 128.600 C 160.031 126.672,160.885 125.189,161.325 124.620 C 161.503 124.389,161.953 123.729,162.325 123.154 C 166.032 117.411,169.068 113.700,174.192 108.649 C 177.869 105.024,185.029 99.200,185.809 99.200 C 185.990 99.200,186.452 98.915,186.837 98.567 C 188.448 97.108,200.427 91.200,201.772 91.200 C 202.091 91.200,202.451 91.041,202.571 90.846 C 202.692 90.651,203.287 90.396,203.895 90.279 C 204.503 90.162,205.720 89.857,206.600 89.603 C 209.757 88.689,211.865 88.332,216.000 88.012 C 221.084 87.619,232.565 87.876,235.600 88.452 M223.200 105.695 C 219.058 107.230,214.111 111.520,210.949 116.320 C 210.123 117.574,209.301 118.660,209.123 118.733 C 208.945 118.807,208.800 119.088,208.800 119.358 C 208.800 119.628,208.473 120.200,208.073 120.629 C 206.985 121.797,201.123 133.923,198.998 139.400 C 197.974 142.040,196.983 144.560,196.795 145.000 C 196.607 145.440,196.262 146.430,196.030 147.200 C 195.797 147.970,195.313 149.500,194.956 150.600 C 194.598 151.700,194.146 153.185,193.953 153.900 C 193.759 154.615,193.408 155.875,193.173 156.700 C 192.287 159.818,191.622 162.792,190.940 166.700 C 190.675 168.214,190.462 168.178,195.048 167.388 C 205.262 165.629,216.440 158.288,223.351 148.800 C 224.392 147.370,225.460 145.927,225.722 145.594 C 225.985 145.261,226.455 144.496,226.768 143.894 C 227.080 143.292,227.485 142.800,227.668 142.800 C 227.850 142.800,228.000 142.513,228.000 142.162 C 228.000 141.811,228.327 141.046,228.726 140.462 C 233.287 133.792,236.268 113.970,233.516 108.611 C 231.646 104.969,227.966 103.929,223.200 105.695 " stroke="none" fill="#0c246c" fill-rule="evenodd"></path><path id="path2" d="M190.000 26.845 C 181.000 27.946,179.711 28.141,174.200 29.236 C 171.909 29.691,170.925 29.936,165.400 31.424 C 156.220 33.896,147.866 37.113,139.800 41.281 C 135.128 43.696,132.163 45.376,128.927 47.441 C 122.650 51.448,117.919 54.903,112.563 59.390 C 107.877 63.315,96.251 75.340,94.023 78.565 C 93.706 79.024,93.340 79.490,93.211 79.600 C 91.142 81.357,82.441 95.045,78.971 102.000 C 76.021 107.916,73.200 114.172,73.200 114.801 C 73.200 115.026,73.025 115.523,72.811 115.905 C 71.255 118.681,66.350 136.262,66.436 138.755 C 66.479 139.988,66.692 139.305,67.608 135.000 C 68.246 132.004,68.955 129.265,70.428 124.100 C 70.663 123.275,70.955 122.192,71.076 121.694 C 71.197 121.196,71.454 120.690,71.648 120.570 C 71.841 120.451,72.000 120.001,72.000 119.571 C 72.000 119.141,72.167 118.477,72.370 118.095 C 72.574 117.713,73.219 116.140,73.804 114.600 C 77.117 105.875,87.154 87.185,89.593 85.200 C 89.728 85.090,90.271 84.370,90.800 83.600 C 92.568 81.026,98.162 74.233,100.996 71.218 C 114.834 56.500,128.780 46.566,147.200 38.306 C 148.883 37.551,149.375 37.349,151.700 36.454 C 152.195 36.263,153.050 35.913,153.600 35.675 C 168.006 29.451,196.243 25.394,212.573 27.202 C 221.036 28.138,223.541 28.448,226.000 28.861 C 228.108 29.215,237.898 31.481,242.400 32.657 C 242.950 32.801,243.279 32.786,243.132 32.624 C 242.984 32.462,242.264 32.176,241.532 31.988 C 240.799 31.799,239.480 31.443,238.600 31.196 C 232.296 29.426,225.854 28.201,217.400 27.164 C 212.984 26.622,193.663 26.398,190.000 26.845 M243.600 32.911 C 243.600 33.019,244.545 33.407,245.700 33.772 C 248.068 34.521,252.193 36.032,254.800 37.105 C 259.558 39.063,268.178 43.377,272.358 45.893 C 277.431 48.945,285.960 54.753,287.200 55.999 C 287.310 56.110,288.210 56.824,289.200 57.586 C 294.276 61.496,305.673 72.894,309.612 78.000 C 310.375 78.990,311.090 79.890,311.201 80.000 C 311.734 80.531,314.907 84.923,316.691 87.600 C 323.046 97.138,327.243 105.131,331.025 114.899 C 331.855 117.044,332.613 118.721,332.708 118.625 C 333.285 118.048,325.988 101.823,322.739 96.459 C 321.892 95.062,321.200 93.843,321.200 93.751 C 321.200 93.356,314.465 83.505,312.046 80.363 C 305.869 72.339,294.553 60.758,289.435 57.223 C 288.976 56.906,288.510 56.538,288.400 56.405 C 287.631 55.475,274.016 46.000,273.449 46.000 C 273.357 46.000,272.138 45.308,270.741 44.461 C 263.849 40.287,243.600 31.670,243.600 32.911 M221.700 87.894 C 222.745 87.976,224.455 87.976,225.500 87.894 C 226.545 87.812,225.690 87.744,223.600 87.744 C 221.510 87.744,220.655 87.812,221.700 87.894 M211.800 88.402 C 211.305 88.616,211.990 88.660,213.600 88.518 C 215.030 88.392,216.275 88.223,216.367 88.144 C 216.720 87.839,212.558 88.074,211.800 88.402 M229.633 88.144 C 229.725 88.223,231.240 88.386,233.000 88.506 C 234.846 88.631,235.777 88.587,235.200 88.402 C 234.222 88.087,229.304 87.859,229.633 88.144 M208.000 89.218 C 207.562 89.515,207.724 89.552,208.600 89.356 C 210.071 89.027,210.390 88.798,209.367 88.806 C 208.945 88.809,208.330 88.995,208.000 89.218 M237.400 89.200 C 238.501 89.673,238.892 89.673,238.600 89.200 C 238.464 88.980,237.958 88.813,237.476 88.828 C 236.631 88.855,236.629 88.869,237.400 89.200 M205.200 90.018 C 204.762 90.315,204.924 90.352,205.800 90.156 C 207.271 89.827,207.590 89.598,206.567 89.606 C 206.145 89.609,205.530 89.795,205.200 90.018 M239.633 89.744 C 239.725 89.823,240.340 90.008,241.000 90.156 C 241.876 90.352,242.038 90.315,241.600 90.018 C 241.060 89.653,239.232 89.398,239.633 89.744 M246.400 92.158 C 246.400 92.245,247.295 92.891,248.388 93.592 C 249.482 94.294,251.192 95.789,252.188 96.915 C 253.185 98.040,254.000 98.784,254.000 98.568 C 254.000 98.352,252.965 97.173,251.700 95.948 C 248.894 93.232,246.400 91.448,246.400 92.158 M186.962 98.462 L 186.200 99.324 187.300 98.616 C 188.434 97.886,188.649 97.600,188.062 97.600 C 187.876 97.600,187.381 97.988,186.962 98.462 M254.645 100.212 C 255.010 100.769,255.386 101.147,255.482 101.051 C 255.719 100.814,254.684 99.200,254.295 99.200 C 254.122 99.200,254.280 99.656,254.645 100.212 M181.600 102.101 C 178.208 104.712,175.421 107.200,175.889 107.200 C 176.094 107.200,176.680 106.753,177.193 106.207 C 177.898 105.457,181.958 102.237,184.367 100.519 C 184.458 100.454,184.458 100.333,184.367 100.250 C 184.275 100.168,183.030 101.001,181.600 102.101 M223.600 105.200 C 223.067 105.545,223.067 105.588,223.600 105.588 C 223.930 105.588,224.470 105.413,224.800 105.200 C 225.333 104.855,225.333 104.812,224.800 104.812 C 224.470 104.812,223.930 104.987,223.600 105.200 M230.831 105.710 C 232.498 106.832,233.982 108.974,234.054 110.359 C 234.105 111.321,234.122 111.331,234.284 110.486 C 234.523 109.240,232.652 106.151,231.204 105.402 C 229.483 104.512,229.290 104.671,230.831 105.710 M257.234 105.200 C 257.246 105.530,257.411 106.160,257.600 106.600 L 257.944 107.400 257.966 106.600 C 257.978 106.160,257.813 105.530,257.600 105.200 C 257.255 104.667,257.215 104.667,257.234 105.200 M215.529 110.500 C 212.407 113.595,208.352 118.806,209.074 118.795 C 209.254 118.792,210.017 117.807,210.771 116.606 C 212.247 114.256,216.130 110.017,218.400 108.280 C 219.170 107.691,219.588 107.207,219.329 107.204 C 219.070 107.202,217.360 108.685,215.529 110.500 M259.000 118.400 C 259.000 122.564,259.122 125.662,259.272 125.285 C 259.421 124.908,259.544 121.810,259.544 118.400 C 259.544 114.990,259.421 111.892,259.272 111.515 C 259.122 111.138,259.000 114.236,259.000 118.400 M170.593 112.140 C 167.829 115.266,163.692 120.800,164.121 120.800 C 164.239 120.800,164.701 120.215,165.149 119.500 C 165.597 118.785,166.377 117.744,166.882 117.187 C 168.815 115.054,171.281 111.948,171.143 111.817 C 171.065 111.742,170.817 111.888,170.593 112.140 M234.501 113.000 C 234.505 113.880,234.587 114.193,234.683 113.695 C 234.779 113.198,234.775 112.478,234.675 112.095 C 234.575 111.713,234.496 112.120,234.501 113.000 M234.524 119.400 C 234.526 120.720,234.601 121.212,234.690 120.493 C 234.779 119.774,234.777 118.694,234.686 118.093 C 234.595 117.492,234.522 118.080,234.524 119.400 M207.845 120.188 C 207.480 120.744,207.322 121.200,207.495 121.200 C 207.884 121.200,208.919 119.586,208.682 119.349 C 208.586 119.253,208.210 119.631,207.845 120.188 M332.812 119.600 C 332.812 119.930,332.987 120.470,333.200 120.800 C 333.545 121.333,333.588 121.333,333.588 120.800 C 333.588 120.470,333.413 119.930,333.200 119.600 C 332.855 119.067,332.812 119.067,332.812 119.600 M163.113 121.900 C 162.432 122.681,161.483 124.400,161.733 124.400 C 161.821 124.400,162.370 123.680,162.953 122.800 C 164.068 121.114,164.137 120.726,163.113 121.900 M333.612 122.000 C 333.612 122.330,333.787 122.870,334.000 123.200 C 334.345 123.733,334.388 123.733,334.388 123.200 C 334.388 122.870,334.213 122.330,334.000 122.000 C 333.655 121.467,333.612 121.467,333.612 122.000 M234.114 124.200 C 234.117 125.300,234.195 125.703,234.287 125.095 C 234.379 124.486,234.377 123.586,234.282 123.095 C 234.187 122.603,234.111 123.100,234.114 124.200 M334.543 124.800 C 335.719 129.302,337.985 139.092,338.339 141.200 C 338.752 143.659,339.062 146.164,339.998 154.627 C 341.674 169.767,338.873 191.924,333.132 208.936 C 332.476 210.881,332.018 212.551,332.114 212.647 C 332.430 212.963,334.735 205.905,336.408 199.500 C 337.587 194.987,337.862 193.738,338.763 188.800 C 342.185 170.053,341.112 146.344,336.049 128.800 C 335.827 128.030,335.471 126.711,335.258 125.868 C 335.044 125.026,334.738 124.216,334.576 124.068 C 334.414 123.921,334.399 124.250,334.543 124.800 M159.814 127.035 C 159.441 127.604,159.227 128.161,159.339 128.272 C 159.450 128.383,159.829 127.918,160.181 127.237 C 160.959 125.733,160.744 125.615,159.814 127.035 M233.050 128.850 C 232.717 130.517,233.040 130.840,233.400 129.200 C 233.552 128.509,233.593 127.859,233.491 127.758 C 233.389 127.656,233.191 128.147,233.050 128.850 M258.446 127.867 C 258.421 128.124,258.284 128.664,258.141 129.067 C 257.940 129.636,257.994 129.697,258.379 129.342 C 258.652 129.091,258.789 128.551,258.684 128.142 C 258.579 127.734,258.472 127.610,258.446 127.867 M232.229 131.829 C 232.081 132.415,232.038 132.972,232.132 133.066 C 232.227 133.160,232.424 132.758,232.571 132.171 C 232.719 131.585,232.762 131.028,232.668 130.934 C 232.573 130.840,232.376 131.242,232.229 131.829 M257.429 132.229 C 257.281 132.815,257.251 133.384,257.361 133.494 C 257.471 133.604,257.681 133.215,257.829 132.629 C 257.976 132.042,258.006 131.473,257.896 131.363 C 257.786 131.253,257.576 131.642,257.429 132.229 M156.629 132.861 C 155.904 134.315,155.861 134.533,156.361 134.224 C 156.726 133.998,157.684 131.600,157.408 131.600 C 157.326 131.600,156.975 132.168,156.629 132.861 M199.949 135.900 C 198.835 138.745,198.408 140.142,198.596 140.329 C 198.708 140.441,198.800 140.417,198.800 140.276 C 198.800 140.134,199.242 138.844,199.782 137.409 C 200.322 135.974,200.678 134.800,200.572 134.800 C 200.467 134.800,200.186 135.295,199.949 135.900 M154.242 137.637 C 153.347 139.430,153.453 139.651,154.457 138.083 C 154.920 137.359,155.206 136.673,155.092 136.558 C 154.977 136.444,154.595 136.929,154.242 137.637 M152.867 140.780 C 152.633 141.451,152.527 142.000,152.631 142.000 C 152.901 142.000,153.656 139.922,153.457 139.724 C 153.367 139.633,153.101 140.108,152.867 140.780 M65.897 140.800 C 65.740 141.350,65.625 142.340,65.642 143.000 L 65.672 144.200 66.058 142.858 C 66.271 142.120,66.386 141.130,66.314 140.658 C 66.192 139.854,66.166 139.863,65.897 140.800 M197.547 141.900 C 196.872 143.616,196.398 145.335,196.678 145.056 C 197.023 144.710,198.385 140.800,198.160 140.800 C 198.061 140.800,197.785 141.295,197.547 141.900 M151.892 142.883 C 150.377 146.665,150.001 147.736,150.304 147.400 C 150.792 146.860,152.448 142.714,152.253 142.520 C 152.168 142.435,152.006 142.598,151.892 142.883 M226.857 143.657 C 226.575 144.109,226.432 144.566,226.540 144.673 C 226.647 144.781,226.944 144.478,227.200 144.000 C 227.805 142.870,227.524 142.590,226.857 143.657 M252.151 145.700 C 251.783 146.415,250.609 148.297,249.541 149.882 C 248.474 151.467,247.600 152.907,247.601 153.082 C 247.602 153.502,251.425 147.817,252.430 145.900 C 252.862 145.075,253.127 144.400,253.018 144.400 C 252.910 144.400,252.519 144.985,252.151 145.700 M65.096 145.950 C 64.933 146.692,64.821 148.133,64.847 149.150 L 64.894 151.000 65.261 148.800 C 65.709 146.117,65.573 143.771,65.096 145.950 M225.090 146.355 C 223.997 148.206,219.453 153.695,217.846 155.106 C 217.036 155.818,216.520 156.400,216.700 156.400 C 217.377 156.400,223.276 149.807,225.557 146.500 C 226.051 145.785,226.301 145.200,226.113 145.200 C 225.926 145.200,225.465 145.720,225.090 146.355 M195.246 148.467 C 195.221 148.834,195.096 149.464,194.970 149.867 C 194.752 150.562,194.763 150.563,195.197 149.887 C 195.448 149.496,195.573 148.866,195.473 148.487 C 195.311 147.868,195.288 147.866,195.246 148.467 M64.257 153.659 C 63.923 156.850,63.979 174.464,64.330 176.800 C 64.478 177.790,64.600 172.435,64.600 164.900 C 64.600 157.365,64.581 151.200,64.557 151.200 C 64.533 151.200,64.398 152.306,64.257 153.659 M147.800 153.200 C 147.650 153.673,147.617 154.150,147.727 154.260 C 147.837 154.370,148.050 154.073,148.200 153.600 C 148.350 153.127,148.383 152.650,148.273 152.540 C 148.163 152.430,147.950 152.727,147.800 153.200 M193.429 154.229 C 193.281 154.815,193.251 155.384,193.361 155.494 C 193.471 155.604,193.681 155.215,193.829 154.629 C 193.976 154.042,194.006 153.473,193.896 153.363 C 193.786 153.253,193.576 153.642,193.429 154.229 M243.000 157.888 C 240.800 160.223,238.129 162.823,237.064 163.666 C 235.999 164.510,235.318 165.200,235.549 165.200 C 236.317 165.200,243.596 158.215,246.074 155.100 C 247.962 152.727,247.288 153.338,243.000 157.888 M192.846 156.467 C 192.821 156.834,192.696 157.464,192.570 157.867 C 192.352 158.562,192.363 158.563,192.797 157.887 C 193.048 157.496,193.173 156.866,193.073 156.487 C 192.911 155.868,192.888 155.866,192.846 156.467 M214.575 158.100 L 213.400 159.400 214.700 158.225 C 215.415 157.579,216.000 156.994,216.000 156.925 C 216.000 156.616,215.670 156.888,214.575 158.100 M191.829 160.229 C 191.681 160.815,191.651 161.384,191.761 161.494 C 191.871 161.604,192.081 161.215,192.229 160.629 C 192.376 160.042,192.406 159.473,192.296 159.363 C 192.186 159.253,191.976 159.642,191.829 160.229 M211.000 160.661 C 208.530 162.404,208.254 162.683,209.800 161.872 C 210.966 161.260,213.602 159.219,213.200 159.239 C 213.090 159.244,212.100 159.884,211.000 160.661 M145.473 160.553 C 145.323 160.945,145.211 161.566,145.225 161.933 C 145.242 162.375,145.381 162.274,145.637 161.634 C 145.849 161.103,145.961 160.482,145.885 160.254 C 145.809 160.027,145.624 160.161,145.473 160.553 M191.254 163.000 C 191.219 163.440,191.089 164.250,190.967 164.800 C 190.775 165.663,190.807 165.703,191.198 165.090 C 191.447 164.699,191.577 163.889,191.486 163.290 C 191.378 162.579,191.297 162.479,191.254 163.000 M205.500 163.829 C 204.895 164.157,204.400 164.506,204.400 164.604 C 204.400 164.828,206.466 163.963,206.980 163.524 C 207.607 162.990,206.704 163.176,205.500 163.829 M232.917 166.946 C 231.992 167.681,230.052 169.054,228.606 169.996 C 227.159 170.939,226.054 171.788,226.150 171.883 C 226.334 172.067,232.224 168.124,234.131 166.539 C 235.887 165.081,234.810 165.441,232.917 166.946 M143.849 166.615 C 143.712 166.973,143.616 167.656,143.636 168.133 C 143.662 168.747,143.785 168.608,144.059 167.656 C 144.457 166.272,144.294 165.458,143.849 166.615 M190.454 166.667 C 190.425 166.924,190.291 167.419,190.157 167.767 C 189.969 168.259,190.170 168.390,191.057 168.354 C 191.686 168.328,191.896 168.227,191.525 168.129 C 191.153 168.031,190.773 167.557,190.679 167.075 C 190.586 166.594,190.484 166.410,190.454 166.667 M198.200 166.800 L 197.000 167.105 198.076 167.153 C 198.668 167.179,199.264 167.020,199.400 166.800 C 199.536 166.580,199.592 166.421,199.524 166.447 C 199.456 166.473,198.860 166.632,198.200 166.800 M193.800 167.600 L 192.200 167.886 193.600 167.903 C 194.370 167.913,195.450 167.776,196.000 167.600 C 197.285 167.188,196.099 167.188,193.800 167.600 M143.000 170.800 C 142.850 171.273,142.817 171.750,142.927 171.860 C 143.037 171.970,143.250 171.673,143.400 171.200 C 143.550 170.727,143.583 170.250,143.473 170.140 C 143.363 170.030,143.150 170.327,143.000 170.800 M142.249 174.215 C 142.112 174.573,142.018 175.346,142.040 175.933 C 142.073 176.791,142.152 176.695,142.446 175.440 C 142.822 173.839,142.695 173.053,142.249 174.215 M141.469 179.556 C 141.321 180.295,141.221 181.463,141.247 182.150 C 141.279 183.012,141.405 182.725,141.655 181.223 C 142.053 178.821,141.897 177.417,141.469 179.556 M210.000 179.183 C 208.790 179.587,208.070 179.934,208.400 179.953 C 209.094 179.993,211.854 179.079,212.259 178.674 C 212.619 178.314,212.569 178.326,210.000 179.183 M64.897 180.800 C 64.896 182.010,65.032 183.540,65.200 184.200 C 65.645 185.950,65.662 182.881,65.220 180.400 L 64.900 178.600 64.897 180.800 M202.696 181.184 C 201.868 181.344,201.081 181.586,200.946 181.721 C 200.639 182.028,203.522 181.590,204.600 181.166 C 205.579 180.780,204.735 180.788,202.696 181.184 M191.800 183.200 C 189.880 183.463,189.864 183.476,191.400 183.508 C 192.280 183.526,193.810 183.397,194.800 183.220 C 197.170 182.799,194.841 182.783,191.800 183.200 M65.636 186.523 C 65.616 187.140,65.771 188.400,65.979 189.323 C 66.187 190.245,66.469 191.693,66.605 192.541 C 66.741 193.388,66.959 193.974,67.090 193.843 C 67.322 193.611,66.624 189.030,65.987 186.600 L 65.672 185.400 65.636 186.523 M140.656 186.484 C 140.521 186.988,140.430 188.120,140.454 189.000 C 140.492 190.378,140.546 190.271,140.843 188.228 C 141.198 185.799,141.095 184.846,140.656 186.484 M187.059 189.860 C 186.741 193.617,186.779 199.911,187.135 202.600 C 187.281 203.700,187.408 200.595,187.417 195.700 C 187.437 185.763,187.423 185.547,187.059 189.860 M67.204 194.900 C 67.210 195.828,69.181 203.155,70.644 207.694 C 76.141 224.746,85.303 241.024,97.383 255.200 C 98.932 257.018,110.182 268.268,112.000 269.817 C 124.419 280.400,138.999 289.053,153.639 294.531 C 160.735 297.186,174.139 300.854,176.400 300.759 C 177.483 300.714,177.053 300.595,170.600 299.157 C 168.620 298.716,166.550 298.206,166.000 298.024 C 165.450 297.842,164.190 297.468,163.200 297.193 C 160.898 296.553,156.835 295.246,155.800 294.812 C 155.360 294.627,153.470 293.892,151.600 293.179 C 129.378 284.699,106.951 267.649,92.280 248.080 C 89.259 244.051,84.400 237.002,84.400 236.648 C 84.400 236.548,83.562 235.056,82.539 233.333 C 80.811 230.425,75.200 219.188,75.200 218.636 C 75.200 218.501,74.860 217.628,74.444 216.696 C 73.039 213.543,71.288 208.526,70.014 204.000 C 69.735 203.010,69.359 201.750,69.177 201.200 C 68.995 200.650,68.542 198.895,68.169 197.300 C 67.534 194.582,67.195 193.739,67.204 194.900 M255.541 199.253 C 252.978 201.864,251.001 204.000,251.147 204.000 C 251.293 204.000,253.567 201.840,256.200 199.200 C 258.833 196.560,260.810 194.424,260.594 194.453 C 260.377 194.482,258.103 196.642,255.541 199.253 M269.817 198.897 C 268.327 201.153,267.378 202.730,267.707 202.400 C 268.644 201.462,272.876 195.143,272.692 194.958 C 272.601 194.868,271.307 196.640,269.817 198.897 M140.109 198.800 C 140.109 199.790,140.187 200.195,140.282 199.700 C 140.378 199.205,140.378 198.395,140.282 197.900 C 140.187 197.405,140.109 197.810,140.109 198.800 M262.939 208.300 C 260.725 211.105,257.609 214.795,256.017 216.500 C 254.424 218.205,253.247 219.600,253.400 219.600 C 253.708 219.600,255.035 218.223,257.996 214.834 C 260.982 211.415,261.325 211.006,262.400 209.582 C 262.950 208.853,263.772 207.794,264.226 207.229 C 265.814 205.252,267.294 203.200,267.130 203.200 C 267.040 203.200,265.154 205.495,262.939 208.300 M249.177 205.313 C 246.434 207.693,243.936 209.734,242.445 210.813 C 241.540 211.469,240.800 212.099,240.800 212.214 C 240.800 212.554,243.148 210.805,246.897 207.673 C 249.922 205.145,250.745 204.356,250.300 204.413 C 250.245 204.420,249.740 204.825,249.177 205.313 M140.428 207.033 C 140.444 207.895,140.617 208.960,140.814 209.400 C 141.048 209.922,141.088 209.437,140.932 208.000 C 140.643 205.358,140.389 204.870,140.428 207.033 M187.675 206.600 C 187.665 207.260,187.811 208.160,188.000 208.600 L 188.344 209.400 188.325 208.600 C 188.314 208.160,188.168 207.260,188.000 206.600 L 187.695 205.400 187.675 206.600 M141.280 212.800 C 141.280 213.350,141.424 214.250,141.600 214.800 L 141.920 215.800 141.920 214.800 C 141.920 214.250,141.776 213.350,141.600 212.800 L 141.280 211.800 141.280 212.800 M238.000 214.000 C 237.450 214.430,237.197 214.786,237.438 214.791 C 237.679 214.796,238.202 214.440,238.600 214.000 C 239.512 212.992,239.288 212.992,238.000 214.000 M331.373 213.843 C 331.238 214.259,330.940 215.050,330.710 215.600 C 330.481 216.150,330.156 216.960,329.988 217.400 C 324.762 231.129,314.170 247.377,302.218 260.000 C 293.735 268.960,283.465 277.201,273.200 283.285 C 267.215 286.832,258.165 291.309,253.400 293.080 C 251.307 293.857,249.962 294.411,249.105 294.847 C 248.723 295.041,248.059 295.200,247.629 295.200 C 247.199 295.200,246.736 295.380,246.600 295.600 C 246.464 295.820,246.001 296.000,245.571 296.000 C 245.141 296.000,244.477 296.162,244.095 296.361 C 243.713 296.560,242.590 296.944,241.600 297.215 C 235.852 298.790,234.832 299.130,235.740 299.168 C 237.188 299.230,249.101 295.465,253.600 293.524 C 254.150 293.287,254.960 292.955,255.400 292.786 C 262.995 289.867,279.418 280.593,284.613 276.289 C 285.046 275.930,286.570 274.712,288.000 273.581 C 293.327 269.369,294.726 268.115,300.011 262.821 C 306.116 256.705,306.600 256.166,311.018 250.566 C 315.173 245.299,318.884 239.901,322.268 234.200 C 325.410 228.908,332.321 213.788,331.825 213.292 C 331.712 213.178,331.508 213.426,331.373 213.843 M190.730 215.068 C 192.245 217.253,195.999 219.950,198.400 220.579 C 198.950 220.723,198.230 220.260,196.800 219.550 C 195.255 218.784,193.318 217.356,192.025 216.030 C 190.768 214.741,190.222 214.335,190.730 215.068 M233.600 216.423 C 231.950 217.284,230.785 217.991,231.011 217.994 C 231.497 218.001,236.031 215.700,236.580 215.168 C 237.171 214.595,236.815 214.745,233.600 216.423 M142.028 217.076 C 142.013 217.558,142.180 218.064,142.400 218.200 C 142.873 218.492,142.873 218.101,142.400 217.000 C 142.069 216.229,142.055 216.231,142.028 217.076 M228.600 218.614 C 227.600 219.096,227.566 219.151,228.400 218.948 C 229.533 218.671,230.807 218.021,230.200 218.030 C 229.980 218.033,229.260 218.296,228.600 218.614 M142.812 219.600 C 142.812 219.930,142.987 220.470,143.200 220.800 C 143.545 221.333,143.588 221.333,143.588 220.800 C 143.588 220.470,143.413 219.930,143.200 219.600 C 142.855 219.067,142.812 219.067,142.812 219.600 M224.600 219.693 C 223.720 219.909,222.640 220.232,222.200 220.410 C 220.907 220.936,224.425 220.339,226.000 219.766 C 227.637 219.170,226.892 219.131,224.600 219.693 M249.035 223.630 C 244.668 227.605,239.557 231.808,238.730 232.102 C 238.439 232.206,238.301 232.401,238.425 232.537 C 238.648 232.781,243.950 228.723,246.957 226.007 C 250.252 223.031,253.391 220.020,253.200 220.020 C 253.090 220.020,251.216 221.645,249.035 223.630 M218.000 221.195 C 217.591 221.455,217.910 221.499,219.000 221.332 C 220.977 221.029,221.314 220.798,219.767 220.806 C 219.125 220.809,218.330 220.984,218.000 221.195 M205.680 221.898 C 207.594 221.971,210.834 221.971,212.880 221.898 C 214.926 221.826,213.360 221.766,209.400 221.765 C 205.440 221.765,203.766 221.824,205.680 221.898 M145.209 226.033 C 145.214 226.345,145.585 227.050,146.033 227.600 L 146.848 228.600 146.173 227.200 C 145.348 225.488,145.197 225.306,145.209 226.033 M147.251 229.700 C 148.161 231.411,150.720 234.606,152.457 236.200 L 154.200 237.799 152.400 235.826 C 151.410 234.741,150.404 233.633,150.165 233.363 C 149.926 233.094,149.142 231.957,148.424 230.837 C 147.089 228.757,146.387 228.077,147.251 229.700 M231.867 236.597 C 227.875 239.010,226.974 239.715,229.524 238.429 C 231.590 237.387,235.600 234.852,235.600 234.588 C 235.600 234.327,235.781 234.230,231.867 236.597 M154.579 237.966 C 154.880 238.452,158.400 240.932,158.400 240.657 C 158.400 240.557,157.481 239.815,156.358 239.008 C 155.235 238.201,154.435 237.732,154.579 237.966 M225.865 239.847 C 225.240 240.186,224.806 240.539,224.900 240.633 C 225.087 240.820,227.600 239.646,227.600 239.371 C 227.600 239.062,227.018 239.222,225.865 239.847 M159.600 241.567 C 160.563 242.352,161.200 242.608,161.200 242.210 C 161.200 242.106,160.615 241.735,159.900 241.386 L 158.600 240.752 159.600 241.567 M163.200 243.389 C 163.200 243.706,166.100 244.833,166.328 244.605 C 166.441 244.492,166.435 244.400,166.316 244.400 C 166.196 244.400,165.446 244.128,164.649 243.795 C 163.852 243.462,163.200 243.279,163.200 243.389 M167.000 245.200 C 167.136 245.420,167.642 245.587,168.124 245.572 C 168.969 245.545,168.971 245.531,168.200 245.200 C 167.099 244.727,166.708 244.727,167.000 245.200 M212.400 245.200 L 211.400 245.520 212.400 245.554 C 212.950 245.573,213.670 245.413,214.000 245.200 C 214.764 244.706,213.942 244.706,212.400 245.200 M209.600 246.000 C 208.776 246.264,208.741 246.326,209.400 246.354 C 209.840 246.373,210.470 246.213,210.800 246.000 C 211.501 245.547,211.014 245.547,209.600 246.000 M172.000 246.805 C 172.330 247.016,173.125 247.191,173.767 247.194 C 175.314 247.202,174.977 246.971,173.000 246.668 C 171.910 246.501,171.591 246.545,172.000 246.805 M205.000 247.007 C 203.460 247.298,201.570 247.565,200.800 247.600 C 200.030 247.635,199.654 247.763,199.964 247.886 C 200.624 248.147,207.122 247.230,208.000 246.751 C 208.770 246.331,208.401 246.363,205.000 247.007 M176.000 247.587 C 176.991 247.917,179.887 248.135,179.567 247.854 C 179.475 247.774,178.410 247.606,177.200 247.481 C 175.780 247.334,175.354 247.371,176.000 247.587 M197.300 248.276 C 197.685 248.376,198.315 248.376,198.700 248.276 C 199.085 248.175,198.770 248.093,198.000 248.093 C 197.230 248.093,196.915 248.175,197.300 248.276 M185.500 248.698 C 187.535 248.771,190.865 248.771,192.900 248.698 C 194.935 248.625,193.270 248.566,189.200 248.566 C 185.130 248.566,183.465 248.625,185.500 248.698 M232.200 299.570 C 231.760 299.745,230.500 300.034,229.400 300.211 C 228.267 300.394,227.734 300.610,228.171 300.710 C 228.907 300.878,234.800 299.672,234.800 299.353 C 234.800 299.089,233.037 299.236,232.200 299.570 M178.200 301.200 C 178.640 301.389,179.720 301.535,180.600 301.525 C 182.129 301.506,182.147 301.492,181.000 301.200 C 179.221 300.747,177.147 300.747,178.200 301.200 M223.800 301.200 C 222.653 301.492,222.671 301.506,224.200 301.525 C 225.080 301.535,226.160 301.389,226.600 301.200 C 227.653 300.747,225.579 300.747,223.800 301.200 M183.600 301.969 C 190.099 303.609,213.498 303.609,221.000 301.969 C 222.703 301.597,221.029 301.694,213.200 302.419 C 211.110 302.613,206.250 302.771,202.400 302.771 C 198.550 302.771,193.690 302.613,191.600 302.419 C 183.705 301.688,182.133 301.599,183.600 301.969 " stroke="none" fill="#626e92" fill-rule="evenodd"></path><path id="path3" d="M187.800 0.800 C 187.664 1.020,186.134 1.200,184.400 1.200 C 182.666 1.200,181.136 1.380,181.000 1.600 C 180.864 1.820,179.593 2.000,178.176 2.000 C 176.725 2.000,175.600 2.175,175.600 2.400 C 175.600 2.620,174.621 2.800,173.424 2.800 C 172.227 2.800,171.136 2.980,171.000 3.200 C 170.864 3.420,170.054 3.600,169.200 3.600 C 168.346 3.600,167.536 3.780,167.400 4.000 C 167.264 4.220,166.454 4.400,165.600 4.400 C 164.746 4.400,163.936 4.580,163.800 4.800 C 163.664 5.020,162.933 5.200,162.176 5.200 C 161.419 5.200,160.800 5.380,160.800 5.600 C 160.800 5.820,160.181 6.000,159.424 6.000 C 158.667 6.000,157.936 6.180,157.800 6.400 C 157.664 6.620,157.023 6.800,156.376 6.800 C 155.729 6.800,155.200 6.980,155.200 7.200 C 155.200 7.420,154.660 7.600,154.000 7.600 C 153.340 7.600,152.800 7.780,152.800 8.000 C 152.800 8.220,152.260 8.400,151.600 8.400 C 150.940 8.400,150.400 8.591,150.400 8.824 C 150.400 9.057,150.235 9.145,150.034 9.021 C 149.832 8.896,149.157 8.992,148.534 9.233 C 147.910 9.474,147.130 9.738,146.800 9.820 C 145.302 10.192,142.187 11.429,142.067 11.700 C 141.993 11.865,141.509 12.000,140.990 12.000 C 140.472 12.000,139.936 12.180,139.800 12.400 C 139.664 12.620,139.203 12.800,138.776 12.800 C 138.349 12.800,138.000 12.980,138.000 13.200 C 138.000 13.420,137.651 13.600,137.224 13.600 C 136.797 13.600,136.336 13.780,136.200 14.000 C 136.064 14.220,135.603 14.400,135.176 14.400 C 134.749 14.400,134.400 14.580,134.400 14.800 C 134.400 15.020,134.051 15.200,133.624 15.200 C 133.197 15.200,132.736 15.380,132.600 15.600 C 132.464 15.820,132.003 16.000,131.576 16.000 C 131.149 16.000,130.799 16.135,130.799 16.300 C 130.798 16.465,129.808 17.050,128.600 17.600 C 127.392 18.150,126.402 18.735,126.401 18.900 C 126.401 19.065,126.117 19.200,125.771 19.200 C 125.426 19.200,124.871 19.472,124.539 19.804 C 124.207 20.136,123.770 20.305,123.568 20.180 C 123.365 20.055,123.200 20.143,123.200 20.376 C 123.200 20.609,122.922 20.800,122.583 20.800 C 122.244 20.800,121.580 21.160,121.108 21.600 C 120.636 22.040,120.013 22.400,119.725 22.400 C 119.436 22.400,119.200 22.580,119.200 22.800 C 119.200 23.020,118.829 23.200,118.376 23.200 C 117.923 23.200,117.664 23.380,117.800 23.600 C 117.936 23.820,117.677 24.000,117.224 24.000 C 116.771 24.000,116.400 24.180,116.400 24.400 C 116.400 24.620,116.130 24.800,115.800 24.800 C 115.470 24.800,115.200 24.980,115.200 25.200 C 115.200 25.420,115.022 25.600,114.804 25.600 C 114.280 25.600,108.638 29.209,108.467 29.654 C 108.393 29.844,108.123 30.000,107.867 30.001 C 107.610 30.001,106.770 30.541,106.000 31.200 C 105.230 31.859,104.447 32.399,104.260 32.399 C 104.074 32.400,103.417 32.940,102.800 33.600 C 102.183 34.260,101.481 34.800,101.240 34.800 C 100.998 34.800,100.800 34.980,100.800 35.200 C 100.800 35.420,100.596 35.600,100.347 35.600 C 100.098 35.600,99.603 35.920,99.247 36.311 C 98.891 36.703,97.834 37.618,96.899 38.346 C 95.963 39.074,94.589 40.239,93.845 40.935 C 93.101 41.631,91.443 43.100,90.159 44.200 C 87.482 46.495,80.400 53.650,80.400 54.060 C 80.400 54.211,79.725 55.046,78.900 55.915 C 76.843 58.081,75.600 59.561,75.600 59.843 C 75.600 59.973,75.098 60.556,74.485 61.140 C 73.871 61.723,72.935 62.830,72.404 63.600 C 71.872 64.370,71.114 65.291,70.719 65.647 C 70.324 66.003,70.000 66.506,70.000 66.765 C 70.000 67.024,69.550 67.686,69.000 68.236 C 68.450 68.786,68.000 69.400,68.000 69.600 C 68.000 69.800,67.550 70.414,67.000 70.964 C 66.450 71.514,66.000 72.202,66.000 72.494 C 66.000 72.785,65.640 73.283,65.200 73.600 C 64.760 73.917,64.400 74.482,64.400 74.855 C 64.400 75.228,64.261 75.593,64.092 75.667 C 63.706 75.834,61.244 79.611,59.964 82.000 C 59.434 82.990,58.865 83.860,58.700 83.933 C 58.535 84.007,58.400 84.412,58.400 84.833 C 58.400 85.255,58.220 85.600,58.000 85.600 C 57.780 85.600,57.600 85.960,57.600 86.400 C 57.600 86.840,57.420 87.200,57.200 87.200 C 56.980 87.200,56.800 87.560,56.800 88.000 C 56.800 88.440,56.620 88.800,56.400 88.800 C 56.180 88.800,56.000 89.160,56.000 89.600 C 56.000 90.040,55.820 90.400,55.600 90.400 C 55.380 90.400,55.200 90.745,55.200 91.167 C 55.200 91.588,55.063 91.993,54.896 92.067 C 54.493 92.244,51.192 98.864,51.197 99.488 C 51.199 99.756,50.840 100.617,50.400 101.400 C 49.960 102.183,49.600 103.179,49.600 103.612 C 49.600 104.045,49.420 104.400,49.200 104.400 C 48.980 104.400,48.800 104.760,48.800 105.200 C 48.800 105.640,48.620 106.000,48.400 106.000 C 48.180 106.000,48.000 106.540,48.000 107.200 C 48.000 107.860,47.820 108.400,47.600 108.400 C 47.380 108.400,47.200 108.820,47.200 109.333 C 47.200 109.847,47.077 110.390,46.926 110.541 C 46.482 110.985,45.613 113.724,45.606 114.700 C 45.603 115.195,45.420 115.600,45.200 115.600 C 44.980 115.600,44.800 115.877,44.800 116.216 C 44.800 116.555,44.449 117.950,44.019 119.316 C 43.590 120.682,43.152 122.340,43.046 123.000 C 42.940 123.660,42.661 124.829,42.426 125.597 C 42.192 126.366,42.000 127.570,42.000 128.274 C 42.000 128.977,41.820 129.664,41.600 129.800 C 41.380 129.936,41.200 130.836,41.200 131.800 C 41.200 132.764,41.020 133.664,40.800 133.800 C 40.580 133.936,40.400 134.926,40.400 136.000 C 40.400 137.074,40.220 138.064,40.000 138.200 C 39.780 138.336,39.600 139.607,39.600 141.024 C 39.600 142.475,39.425 143.600,39.200 143.600 C 38.965 143.600,38.800 145.000,38.800 147.000 C 38.800 149.000,38.635 150.400,38.400 150.400 C 38.140 150.400,38.000 155.859,38.000 165.976 C 38.000 175.929,38.144 181.642,38.400 181.800 C 38.620 181.936,38.800 183.477,38.800 185.224 C 38.800 187.075,38.967 188.400,39.200 188.400 C 39.429 188.400,39.600 189.600,39.600 191.200 C 39.600 192.800,39.771 194.000,40.000 194.000 C 40.220 194.000,40.400 194.810,40.400 195.800 C 40.400 196.790,40.580 197.600,40.800 197.600 C 41.020 197.600,41.200 198.590,41.200 199.800 C 41.200 201.010,41.357 202.000,41.549 202.000 C 41.741 202.000,41.996 202.855,42.116 203.900 C 42.236 204.945,42.424 206.160,42.534 206.600 C 43.379 209.990,43.581 210.752,43.939 211.900 C 44.162 212.615,44.231 213.200,44.092 213.200 C 43.953 213.200,44.056 213.416,44.320 213.680 C 44.584 213.944,44.800 214.563,44.800 215.056 C 44.800 215.549,44.980 216.064,45.200 216.200 C 45.420 216.336,45.600 216.881,45.600 217.411 C 45.600 217.942,45.960 219.017,46.400 219.800 C 46.840 220.583,47.200 221.669,47.200 222.212 C 47.200 222.755,47.380 223.200,47.600 223.200 C 47.820 223.200,48.000 223.650,48.000 224.200 C 48.000 224.750,48.180 225.200,48.400 225.200 C 48.620 225.200,48.800 225.740,48.800 226.400 C 48.800 227.060,48.980 227.600,49.200 227.600 C 49.420 227.600,49.600 227.960,49.600 228.400 C 49.600 228.840,49.780 229.200,50.000 229.200 C 50.220 229.200,50.400 229.479,50.400 229.819 C 50.400 230.160,50.760 231.184,51.200 232.094 C 51.640 233.005,52.000 233.986,52.000 234.275 C 52.000 234.564,52.180 234.800,52.400 234.800 C 52.620 234.800,52.800 235.160,52.800 235.600 C 52.800 236.040,52.980 236.400,53.200 236.400 C 53.420 236.400,53.600 236.749,53.600 237.176 C 53.600 237.603,53.780 238.064,54.000 238.200 C 54.220 238.336,54.400 238.797,54.400 239.224 C 54.400 239.651,54.580 240.000,54.800 240.000 C 55.020 240.000,55.200 240.360,55.200 240.800 C 55.200 241.240,55.380 241.600,55.600 241.600 C 55.820 241.600,56.000 241.960,56.000 242.400 C 56.000 242.840,56.180 243.200,56.400 243.200 C 56.620 243.200,56.800 243.481,56.800 243.824 C 56.800 244.167,56.980 244.336,57.200 244.200 C 57.420 244.064,57.600 244.323,57.600 244.776 C 57.600 245.229,57.780 245.600,58.000 245.600 C 58.220 245.600,58.400 245.864,58.400 246.186 C 58.400 246.806,59.541 248.974,62.063 253.141 C 62.908 254.538,63.600 255.804,63.600 255.953 C 63.600 256.102,63.960 256.483,64.400 256.800 C 64.840 257.117,65.200 257.657,65.200 258.000 C 65.200 258.343,65.560 258.883,66.000 259.200 C 66.440 259.517,66.800 260.057,66.800 260.400 C 66.800 260.743,67.160 261.283,67.600 261.600 C 68.040 261.917,68.400 262.380,68.400 262.629 C 68.400 262.878,68.940 263.646,69.600 264.337 C 70.260 265.028,70.801 265.729,70.802 265.896 C 70.803 266.063,71.343 266.775,72.002 267.478 C 72.661 268.181,73.200 268.858,73.200 268.982 C 73.200 269.233,74.837 271.188,76.469 272.887 C 77.057 273.499,77.463 274.000,77.372 274.000 C 77.083 274.000,78.896 276.025,81.900 279.059 C 83.495 280.669,84.800 282.170,84.800 282.394 C 84.800 282.617,84.973 282.800,85.185 282.800 C 85.396 282.800,87.167 284.375,89.121 286.300 C 93.130 290.250,95.480 292.400,95.787 292.400 C 95.902 292.400,96.915 293.300,98.039 294.400 C 99.162 295.500,100.261 296.400,100.480 296.400 C 100.699 296.400,101.383 296.940,102.000 297.600 C 102.617 298.260,103.327 298.800,103.579 298.800 C 103.830 298.800,104.486 299.250,105.036 299.800 C 105.586 300.350,106.200 300.800,106.400 300.800 C 106.600 300.800,107.214 301.250,107.764 301.800 C 108.314 302.350,108.918 302.800,109.106 302.800 C 109.295 302.800,109.805 303.115,110.240 303.500 C 111.244 304.389,113.220 305.771,114.000 306.130 C 114.330 306.281,115.320 306.862,116.200 307.420 C 117.080 307.978,118.115 308.537,118.500 308.664 C 118.885 308.790,119.200 309.052,119.200 309.247 C 119.200 309.441,119.560 309.600,120.000 309.600 C 120.440 309.600,120.800 309.780,120.800 310.000 C 120.800 310.220,121.160 310.400,121.600 310.400 C 122.040 310.400,122.400 310.580,122.400 310.800 C 122.400 311.020,122.771 311.200,123.224 311.200 C 123.677 311.200,123.936 311.380,123.800 311.600 C 123.664 311.820,123.833 312.000,124.176 312.000 C 124.519 312.000,124.800 312.180,124.800 312.400 C 124.800 312.620,125.145 312.800,125.567 312.800 C 125.988 312.800,126.393 312.935,126.467 313.100 C 126.659 313.532,129.972 315.200,130.638 315.200 C 130.947 315.200,131.200 315.336,131.200 315.502 C 131.200 315.819,132.378 316.373,134.900 317.243 C 135.725 317.528,136.400 317.905,136.400 318.080 C 136.400 318.256,136.760 318.400,137.200 318.400 C 137.640 318.400,138.000 318.547,138.000 318.728 C 138.000 318.908,138.900 319.300,140.000 319.600 C 141.100 319.900,142.000 320.292,142.000 320.472 C 142.000 320.653,142.450 320.800,143.000 320.800 C 143.550 320.800,144.000 320.980,144.000 321.200 C 144.000 321.420,144.414 321.600,144.920 321.600 C 145.426 321.600,146.011 321.749,146.220 321.930 C 146.429 322.112,147.410 322.511,148.400 322.817 C 149.390 323.124,150.650 323.604,151.200 323.885 C 151.750 324.165,152.515 324.396,152.900 324.398 C 153.285 324.399,153.600 324.580,153.600 324.800 C 153.600 325.020,153.960 325.200,154.400 325.200 C 154.840 325.200,155.200 325.380,155.200 325.600 C 155.200 325.820,155.438 326.000,155.729 326.000 C 156.179 326.000,159.437 328.706,161.107 330.466 C 163.179 332.649,165.337 335.755,165.858 337.300 C 165.987 337.685,166.252 338.000,166.447 338.000 C 166.641 338.000,166.800 338.450,166.800 339.000 C 166.800 339.550,166.980 340.000,167.200 340.000 C 167.420 340.000,167.600 340.360,167.600 340.800 C 167.600 341.240,167.762 341.600,167.960 341.600 C 168.737 341.600,168.906 346.403,169.056 372.750 L 169.211 400.101 171.289 399.901 C 172.431 399.791,173.434 399.499,173.516 399.251 C 173.599 399.003,174.006 398.800,174.421 398.800 C 174.836 398.800,175.817 398.440,176.600 398.000 C 177.383 397.560,178.274 397.200,178.579 397.200 C 178.884 397.200,179.193 397.065,179.267 396.900 C 179.459 396.468,182.772 394.800,183.438 394.800 C 183.747 394.800,184.000 394.620,184.000 394.400 C 184.000 394.180,184.360 394.000,184.800 394.000 C 185.240 394.000,185.600 393.820,185.600 393.600 C 185.600 393.380,185.945 393.200,186.367 393.200 C 186.788 393.200,187.193 393.055,187.267 392.879 C 187.340 392.702,189.200 391.689,191.400 390.627 C 193.600 389.566,195.460 388.541,195.533 388.349 C 195.607 388.157,196.012 388.000,196.433 388.000 C 196.855 388.000,197.200 387.820,197.200 387.600 C 197.200 387.380,197.560 387.200,198.000 387.200 C 198.440 387.200,198.800 387.062,198.800 386.894 C 198.800 386.726,199.475 386.282,200.300 385.906 C 201.930 385.165,204.081 383.938,204.400 383.568 C 204.510 383.440,205.185 383.081,205.900 382.770 C 206.615 382.459,207.200 382.069,207.200 381.902 C 207.200 381.736,207.478 381.600,207.817 381.600 C 208.156 381.600,208.820 381.240,209.292 380.800 C 209.764 380.360,210.387 380.000,210.675 380.000 C 210.964 380.000,211.200 379.820,211.200 379.600 C 211.200 379.380,211.560 379.200,212.000 379.200 C 212.440 379.200,212.800 379.020,212.800 378.800 C 212.800 378.580,213.036 378.400,213.325 378.400 C 213.613 378.400,214.198 378.075,214.625 377.678 C 215.051 377.280,215.985 376.697,216.700 376.380 C 217.415 376.064,218.000 375.669,218.000 375.502 C 218.000 375.336,218.255 375.200,218.567 375.200 C 218.878 375.200,219.193 375.065,219.267 374.900 C 219.398 374.605,220.215 374.104,223.400 372.366 C 224.280 371.886,225.090 371.382,225.200 371.246 C 225.310 371.111,225.805 370.775,226.300 370.500 C 226.795 370.225,227.605 369.775,228.100 369.500 C 228.595 369.225,229.090 368.910,229.200 368.800 C 229.594 368.406,231.820 366.978,232.900 366.427 C 233.505 366.118,234.000 365.715,234.000 365.532 C 234.000 365.350,234.236 365.200,234.525 365.200 C 234.813 365.200,235.436 364.840,235.908 364.400 C 236.380 363.960,236.954 363.600,237.183 363.600 C 237.412 363.600,237.600 363.420,237.600 363.200 C 237.600 362.980,237.870 362.800,238.200 362.800 C 238.530 362.800,238.800 362.620,238.800 362.400 C 238.800 362.180,239.030 362.000,239.312 362.000 C 239.593 362.000,240.083 361.640,240.400 361.200 C 240.717 360.760,241.162 360.400,241.388 360.399 C 241.615 360.399,242.430 359.859,243.200 359.200 C 243.970 358.541,244.737 358.001,244.904 358.001 C 245.327 358.000,249.370 355.149,249.533 354.736 C 249.607 354.551,249.895 354.400,250.174 354.400 C 250.453 354.400,251.206 353.905,251.848 353.300 C 252.489 352.695,253.500 351.948,254.093 351.640 C 254.687 351.332,255.078 350.927,254.963 350.740 C 254.847 350.553,255.007 350.400,255.317 350.400 C 255.627 350.400,256.446 349.860,257.137 349.200 C 257.828 348.540,258.548 348.000,258.737 348.000 C 258.926 348.000,259.646 347.460,260.337 346.800 C 261.028 346.140,261.753 345.600,261.948 345.600 C 262.144 345.600,263.045 344.880,263.952 344.000 C 264.859 343.120,265.736 342.400,265.900 342.400 C 266.065 342.399,266.740 341.934,267.400 341.366 C 268.060 340.798,269.130 339.943,269.777 339.466 C 270.425 338.990,271.661 337.925,272.524 337.100 C 273.388 336.275,274.264 335.600,274.471 335.600 C 274.678 335.600,274.736 335.420,274.600 335.200 C 274.464 334.980,274.633 334.800,274.974 334.800 C 275.316 334.800,276.515 333.900,277.639 332.800 C 278.762 331.700,279.851 330.800,280.058 330.800 C 280.265 330.800,281.859 329.360,283.600 327.600 C 285.341 325.840,286.889 324.400,287.040 324.400 C 287.755 324.400,308.800 303.329,308.800 302.614 C 308.800 302.499,310.240 300.952,312.000 299.176 C 313.760 297.399,315.200 295.779,315.200 295.575 C 315.200 295.371,316.100 294.285,317.200 293.161 C 318.300 292.038,319.200 290.886,319.200 290.602 C 319.200 290.318,319.456 289.987,319.769 289.867 C 320.083 289.747,321.106 288.603,322.044 287.324 C 322.982 286.046,323.896 284.940,324.075 284.867 C 324.254 284.793,324.400 284.521,324.400 284.262 C 324.400 284.003,325.018 283.076,325.773 282.202 C 326.529 281.328,327.075 280.542,326.987 280.454 C 326.900 280.366,327.362 279.796,328.014 279.187 C 328.666 278.578,329.200 277.791,329.200 277.440 C 329.200 277.088,329.341 276.800,329.514 276.800 C 329.686 276.800,330.121 276.305,330.479 275.700 C 330.837 275.095,331.599 274.060,332.171 273.400 C 332.743 272.740,333.427 271.718,333.691 271.129 C 333.954 270.540,334.312 270.145,334.485 270.252 C 334.658 270.360,334.800 270.244,334.800 269.996 C 334.800 269.747,335.340 268.759,336.000 267.800 C 336.660 266.841,337.200 265.878,337.200 265.661 C 337.200 265.444,337.366 265.207,337.570 265.133 C 337.773 265.060,337.998 264.737,338.070 264.416 C 338.141 264.094,338.515 263.475,338.900 263.040 C 339.285 262.605,339.600 262.013,339.600 261.725 C 339.600 261.436,339.791 261.200,340.024 261.200 C 340.257 261.200,340.345 261.035,340.221 260.834 C 340.097 260.633,340.163 260.408,340.368 260.334 C 340.572 260.260,340.798 259.937,340.870 259.616 C 340.941 259.294,341.315 258.675,341.700 258.240 C 342.085 257.805,342.400 257.213,342.400 256.925 C 342.400 256.636,342.546 256.400,342.725 256.400 C 342.904 256.400,343.298 255.770,343.600 255.000 C 343.902 254.230,344.296 253.600,344.475 253.600 C 344.654 253.600,344.800 253.240,344.800 252.800 C 344.800 252.360,344.980 252.000,345.200 252.000 C 345.420 252.000,345.600 251.640,345.600 251.200 C 345.600 250.760,345.752 250.400,345.937 250.400 C 346.123 250.400,346.684 249.545,347.184 248.500 C 347.685 247.455,348.433 245.908,348.847 245.062 C 349.261 244.216,349.600 243.271,349.600 242.962 C 349.600 242.653,349.780 242.400,350.000 242.400 C 350.220 242.400,350.400 242.040,350.400 241.600 C 350.400 241.160,350.535 240.799,350.700 240.797 C 351.059 240.793,352.000 238.856,352.000 238.120 C 352.000 237.834,352.180 237.600,352.400 237.600 C 352.620 237.600,352.806 237.285,352.813 236.900 C 352.819 236.515,353.359 235.125,354.013 233.810 C 354.666 232.496,355.200 231.137,355.200 230.790 C 355.200 230.444,355.359 229.989,355.553 229.780 C 356.159 229.129,357.663 224.426,357.402 224.003 C 357.265 223.781,357.343 223.600,357.576 223.600 C 357.809 223.600,358.000 223.251,358.000 222.824 C 358.000 222.397,358.180 221.936,358.400 221.800 C 358.620 221.664,358.800 221.034,358.800 220.400 C 358.800 219.766,358.980 219.136,359.200 219.000 C 359.420 218.864,359.600 218.324,359.600 217.800 C 359.600 217.276,359.780 216.736,360.000 216.600 C 360.220 216.464,360.400 215.913,360.400 215.376 C 360.400 214.839,360.580 214.400,360.800 214.400 C 361.020 214.400,361.200 213.695,361.200 212.833 C 361.200 211.972,361.372 211.207,361.582 211.133 C 361.793 211.060,362.010 210.325,362.064 209.500 C 362.119 208.675,362.307 208.000,362.482 208.000 C 362.657 208.000,362.800 207.381,362.800 206.624 C 362.800 205.867,362.980 205.136,363.200 205.000 C 363.420 204.864,363.600 204.144,363.600 203.400 C 363.600 202.656,363.780 201.936,364.000 201.800 C 364.220 201.664,364.400 200.663,364.400 199.576 C 364.400 198.489,364.580 197.600,364.800 197.600 C 365.020 197.600,365.200 196.610,365.200 195.400 C 365.200 194.190,365.380 193.200,365.600 193.200 C 365.825 193.200,366.000 192.075,366.000 190.624 C 366.000 189.207,366.180 187.936,366.400 187.800 C 366.620 187.664,366.800 186.044,366.800 184.200 C 366.800 182.347,366.983 180.734,367.209 180.594 C 367.746 180.262,367.719 152.121,367.181 151.788 C 366.971 151.659,366.800 149.943,366.800 147.976 C 366.800 145.859,366.637 144.400,366.400 144.400 C 366.171 144.400,366.000 143.200,366.000 141.600 C 366.000 140.000,365.829 138.800,365.600 138.800 C 365.380 138.800,365.200 137.810,365.200 136.600 C 365.200 135.390,365.020 134.400,364.800 134.400 C 364.580 134.400,364.400 133.590,364.400 132.600 C 364.400 131.610,364.220 130.800,364.000 130.800 C 363.780 130.800,363.600 130.091,363.600 129.224 C 363.600 128.357,363.420 127.536,363.200 127.400 C 362.980 127.264,362.800 126.443,362.800 125.576 C 362.800 124.709,362.620 124.000,362.400 124.000 C 362.180 124.000,362.000 123.370,362.000 122.600 C 362.000 121.830,361.820 121.200,361.600 121.200 C 361.380 121.200,361.200 120.570,361.200 119.800 C 361.200 119.030,361.020 118.400,360.800 118.400 C 360.580 118.400,360.400 117.770,360.400 117.000 C 360.400 116.230,360.220 115.600,360.000 115.600 C 359.780 115.600,359.600 115.060,359.600 114.400 C 359.600 113.740,359.420 113.200,359.200 113.200 C 358.980 113.200,358.800 112.660,358.800 112.000 C 358.800 111.340,358.620 110.800,358.400 110.800 C 358.180 110.800,358.000 110.439,358.000 109.997 C 358.000 109.556,357.358 107.531,356.574 105.497 C 354.715 100.678,354.694 100.628,353.242 97.666 C 352.559 96.272,352.000 94.910,352.000 94.641 C 352.000 94.371,351.640 93.764,351.200 93.292 C 350.760 92.820,350.400 92.271,350.400 92.073 C 350.400 91.547,347.853 86.624,347.500 86.467 C 347.335 86.393,347.200 86.003,347.200 85.600 C 347.200 85.197,347.065 84.807,346.900 84.733 C 346.524 84.566,345.225 82.436,344.929 81.500 C 344.807 81.115,344.548 80.800,344.353 80.800 C 344.159 80.800,344.000 80.522,344.000 80.183 C 344.000 79.844,343.653 79.194,343.228 78.738 C 342.803 78.282,342.177 77.345,341.837 76.655 C 341.497 75.965,341.210 75.580,341.200 75.800 C 341.190 76.020,340.832 75.428,340.403 74.484 C 339.975 73.540,339.349 72.492,339.012 72.155 C 338.676 71.818,338.400 71.389,338.400 71.200 C 338.400 71.011,338.175 70.615,337.900 70.319 C 337.625 70.023,336.777 68.975,336.015 67.990 C 335.253 67.006,334.488 66.140,334.315 66.067 C 334.142 65.993,333.999 65.723,333.998 65.467 C 333.997 65.210,333.457 64.425,332.798 63.722 C 332.139 63.019,331.600 62.318,331.600 62.165 C 331.600 62.012,331.075 61.385,330.434 60.773 C 329.793 60.160,328.832 59.016,328.299 58.232 C 327.766 57.447,327.210 56.923,327.065 57.069 C 326.919 57.214,326.800 57.133,326.800 56.887 C 326.800 56.356,322.337 51.524,317.600 46.927 C 312.255 41.740,311.651 41.200,311.188 41.200 C 310.949 41.200,310.844 41.053,310.955 40.873 C 311.160 40.541,309.889 39.431,309.437 39.547 C 309.301 39.582,308.398 38.843,307.430 37.905 C 304.963 35.516,303.609 34.344,301.996 33.206 C 301.228 32.665,300.251 31.902,299.825 31.511 C 299.398 31.120,298.896 30.800,298.708 30.800 C 298.344 30.800,296.304 29.418,295.097 28.353 C 294.693 27.997,293.701 27.367,292.892 26.953 C 292.084 26.539,291.068 25.885,290.635 25.500 C 290.203 25.115,289.613 24.800,289.325 24.800 C 289.036 24.800,288.800 24.620,288.800 24.400 C 288.800 24.180,288.564 24.000,288.275 24.000 C 287.987 24.000,287.364 23.640,286.892 23.200 C 286.420 22.760,285.756 22.400,285.417 22.400 C 285.078 22.400,284.797 22.265,284.794 22.100 C 284.790 21.935,283.890 21.360,282.794 20.821 C 281.697 20.283,280.800 19.698,280.800 19.521 C 280.800 19.345,280.440 19.200,280.000 19.200 C 279.560 19.200,279.200 19.020,279.200 18.800 C 279.200 18.580,278.966 18.400,278.680 18.400 C 277.944 18.400,276.007 17.459,276.003 17.100 C 276.001 16.935,275.766 16.800,275.480 16.800 C 274.744 16.800,272.807 15.859,272.803 15.500 C 272.801 15.335,272.547 15.200,272.238 15.200 C 271.929 15.200,270.984 14.856,270.138 14.437 C 267.293 13.024,264.813 12.000,264.238 12.000 C 263.924 12.000,263.607 11.865,263.533 11.699 C 263.323 11.224,258.028 9.535,257.592 9.805 C 257.377 9.938,257.200 9.857,257.200 9.624 C 257.200 9.391,256.750 9.200,256.200 9.200 C 255.650 9.200,255.200 9.020,255.200 8.800 C 255.200 8.580,254.649 8.400,253.976 8.400 C 253.263 8.400,252.856 8.233,253.000 8.000 C 253.147 7.762,252.671 7.600,251.824 7.600 C 251.041 7.600,250.400 7.420,250.400 7.200 C 250.400 6.980,249.770 6.800,249.000 6.800 C 248.230 6.800,247.600 6.620,247.600 6.400 C 247.600 6.180,246.970 6.000,246.200 6.000 C 245.430 6.000,244.800 5.820,244.800 5.600 C 244.800 5.380,244.091 5.200,243.224 5.200 C 242.357 5.200,241.536 5.020,241.400 4.800 C 241.264 4.580,240.569 4.400,239.856 4.400 C 239.143 4.400,238.389 4.238,238.180 4.041 C 237.971 3.844,237.035 3.574,236.100 3.441 C 235.165 3.308,233.635 3.092,232.700 2.959 C 231.765 2.826,230.829 2.556,230.620 2.359 C 230.411 2.162,229.016 2.000,227.520 2.000 C 225.973 2.000,224.800 1.827,224.800 1.600 C 224.800 1.365,223.400 1.200,221.400 1.200 C 219.400 1.200,218.000 1.035,218.000 0.800 C 218.000 0.540,212.741 0.400,203.024 0.400 C 193.471 0.400,187.958 0.545,187.800 0.800 M211.600 4.007 C 221.358 4.558,231.750 6.040,239.600 8.000 C 240.370 8.192,241.900 8.562,243.000 8.821 C 247.263 9.825,257.079 13.073,262.940 15.418 C 268.448 17.622,278.326 22.415,282.141 24.734 C 283.648 25.650,284.952 26.400,285.037 26.400 C 286.094 26.400,303.340 38.801,307.750 42.731 C 312.607 47.060,321.912 56.347,324.251 59.200 C 324.883 59.970,325.732 60.960,326.138 61.400 C 326.911 62.238,332.605 69.584,333.615 71.047 C 333.937 71.513,335.118 73.223,336.240 74.847 C 340.517 81.040,343.443 86.138,347.573 94.600 C 351.300 102.237,352.400 104.652,352.400 105.201 C 352.400 105.426,352.559 105.923,352.753 106.305 C 353.350 107.478,353.924 108.926,354.455 110.600 C 354.735 111.480,355.107 112.371,355.282 112.580 C 355.457 112.789,355.600 113.363,355.600 113.856 C 355.600 114.349,355.759 114.851,355.954 114.971 C 356.149 115.092,356.398 115.687,356.509 116.295 C 356.620 116.903,357.335 119.560,358.099 122.200 C 365.770 148.712,366.036 179.687,358.832 207.600 C 358.179 210.130,357.530 212.650,357.389 213.200 C 357.248 213.750,356.991 214.560,356.818 215.000 C 356.644 215.440,355.931 217.600,355.233 219.800 C 354.535 222.000,353.792 224.205,353.582 224.700 C 353.372 225.195,353.044 226.005,352.854 226.500 C 352.663 226.995,352.303 227.895,352.054 228.500 C 351.804 229.105,351.444 230.005,351.254 230.500 C 349.308 235.553,344.074 246.670,341.601 251.000 C 341.098 251.880,340.237 253.410,339.687 254.400 C 334.327 264.049,323.730 279.509,316.943 287.581 C 308.806 297.258,306.935 299.373,301.362 305.198 C 299.361 307.289,297.201 309.548,296.562 310.218 C 279.277 328.346,240.250 358.690,218.000 371.300 C 217.230 371.737,216.122 372.433,215.538 372.847 C 214.954 373.261,214.388 373.600,214.279 373.600 C 214.171 373.600,212.848 374.351,211.341 375.270 C 206.925 377.959,199.854 381.941,192.000 386.159 C 186.904 388.897,174.084 395.200,173.612 395.200 C 173.334 395.200,173.200 388.006,173.199 373.100 C 173.198 350.188,172.968 345.755,171.546 341.200 C 168.294 330.783,161.264 323.490,150.800 319.678 C 130.670 312.346,117.461 305.044,102.000 292.702 C 89.019 282.340,74.036 265.731,66.889 253.779 C 66.238 252.691,64.931 250.540,63.985 249.000 C 56.558 236.916,49.381 219.417,45.938 205.000 C 42.551 190.816,41.399 180.916,41.401 166.000 C 41.404 151.124,42.749 139.513,45.978 126.500 C 46.210 125.565,46.559 124.125,46.754 123.300 C 47.306 120.964,49.729 113.494,51.522 108.600 C 62.909 77.518,85.614 48.883,113.200 30.810 C 116.472 28.667,119.913 26.505,120.400 26.287 C 120.730 26.139,121.900 25.478,123.000 24.817 C 128.261 21.658,137.789 17.188,145.200 14.402 C 147.070 13.699,148.960 12.982,149.400 12.810 C 149.840 12.637,152.090 11.912,154.400 11.199 C 156.710 10.486,159.050 9.762,159.600 9.590 C 160.150 9.417,161.500 9.068,162.600 8.813 C 163.700 8.558,165.230 8.192,166.000 8.000 C 173.696 6.079,184.379 4.553,193.800 4.030 C 202.013 3.573,203.881 3.571,211.600 4.007 M191.400 24.071 C 166.238 26.479,146.279 33.210,125.800 46.193 C 115.044 53.012,101.877 64.686,93.987 74.400 C 93.004 75.610,92.107 76.690,91.993 76.800 C 91.879 76.910,90.511 78.710,88.953 80.800 C 81.377 90.962,75.311 101.941,70.830 113.600 C 70.112 115.470,69.373 117.360,69.188 117.800 C 60.383 138.787,58.839 179.232,65.988 201.600 C 66.163 202.150,66.534 203.410,66.810 204.400 C 67.485 206.812,69.549 213.177,70.021 214.300 C 70.446 215.310,71.028 216.757,71.549 218.100 C 72.930 221.658,77.326 230.600,79.956 235.200 C 95.228 261.914,120.782 284.271,149.000 295.605 C 153.330 297.344,156.869 298.585,162.600 300.375 C 192.347 309.661,229.898 307.170,259.568 293.941 C 318.512 267.661,352.285 204.819,341.546 141.400 C 339.863 131.464,336.498 119.565,333.117 111.600 C 332.884 111.050,332.555 110.240,332.387 109.800 C 331.942 108.633,326.108 96.810,325.283 95.400 C 324.896 94.740,324.057 93.300,323.418 92.200 C 312.959 74.204,292.996 54.241,275.000 43.782 C 273.900 43.143,272.460 42.304,271.800 41.917 C 270.416 41.107,258.644 35.295,257.300 34.759 C 256.805 34.562,255.995 34.233,255.500 34.029 C 239.439 27.410,219.050 23.488,201.600 23.661 C 197.970 23.697,193.380 23.881,191.400 24.071 M217.400 27.164 C 225.854 28.201,232.296 29.426,238.600 31.196 C 239.480 31.443,240.740 31.796,241.400 31.981 C 250.318 34.475,263.510 40.087,270.741 44.463 C 272.138 45.308,273.357 46.000,273.449 46.000 C 274.016 46.000,287.631 55.475,288.400 56.405 C 288.510 56.538,288.976 56.906,289.435 57.223 C 294.553 60.758,305.869 72.339,312.046 80.363 C 314.465 83.505,321.200 93.356,321.200 93.751 C 321.200 93.843,321.892 95.062,322.737 96.459 C 327.012 103.525,332.818 117.171,335.221 125.800 C 335.405 126.460,335.757 127.720,336.004 128.600 C 341.870 149.496,342.328 176.698,337.150 196.600 C 336.921 197.480,336.571 198.830,336.371 199.600 C 333.489 210.723,327.512 225.389,322.270 234.200 C 318.846 239.956,315.169 245.304,311.018 250.566 C 306.600 256.166,306.116 256.705,300.011 262.821 C 294.726 268.115,293.327 269.369,288.000 273.581 C 286.570 274.712,285.046 275.930,284.613 276.289 C 283.293 277.383,272.754 284.192,270.200 285.602 C 264.995 288.475,258.714 291.477,253.400 293.631 C 244.174 297.372,231.505 300.681,221.400 301.989 C 213.169 303.054,210.889 303.200,202.513 303.200 C 137.550 303.200,81.161 258.250,67.280 195.400 C 65.873 189.028,65.534 186.926,64.409 177.600 C 63.531 170.317,63.942 154.339,65.238 145.400 C 66.714 135.226,70.694 119.733,72.815 115.905 C 73.027 115.523,73.200 115.026,73.200 114.801 C 73.200 114.172,76.021 107.916,78.971 102.000 C 82.441 95.045,91.142 81.357,93.211 79.600 C 93.340 79.490,93.706 79.024,94.023 78.565 C 97.773 73.137,110.103 61.108,118.584 54.605 C 125.194 49.537,131.551 45.545,139.800 41.281 C 147.866 37.113,156.220 33.896,165.400 31.424 C 170.925 29.936,171.909 29.691,174.200 29.236 C 179.711 28.141,181.000 27.946,190.000 26.845 C 193.663 26.398,212.984 26.622,217.400 27.164 M221.500 88.295 C 222.655 88.376,224.545 88.376,225.700 88.295 C 226.855 88.214,225.910 88.148,223.600 88.148 C 221.290 88.148,220.345 88.214,221.500 88.295 M189.701 168.000 C 189.790 168.330,190.299 168.633,190.831 168.674 C 191.595 168.732,191.631 168.701,191.000 168.528 C 190.560 168.407,190.051 168.103,189.870 167.854 C 189.651 167.554,189.594 167.604,189.701 168.000 M190.705 183.083 C 191.202 183.179,191.922 183.175,192.305 183.075 C 192.687 182.975,192.280 182.896,191.400 182.901 C 190.520 182.905,190.207 182.987,190.705 183.083 M186.528 196.000 C 186.528 197.430,186.601 198.015,186.689 197.300 C 186.778 196.585,186.778 195.415,186.689 194.700 C 186.601 193.985,186.528 194.570,186.528 196.000 " stroke="none" fill="#8f94aa" fill-rule="evenodd"></path><path id="path4" d="M217.100 88.282 C 217.595 88.378,218.405 88.378,218.900 88.282 C 219.395 88.187,218.990 88.109,218.000 88.109 C 217.010 88.109,216.605 88.187,217.100 88.282 M213.300 88.676 C 213.685 88.776,214.315 88.776,214.700 88.676 C 215.085 88.575,214.770 88.493,214.000 88.493 C 213.230 88.493,212.915 88.575,213.300 88.676 M232.100 88.676 C 232.485 88.776,233.115 88.776,233.500 88.676 C 233.885 88.575,233.570 88.493,232.800 88.493 C 232.030 88.493,231.715 88.575,232.100 88.676 M210.500 89.076 C 210.885 89.176,211.515 89.176,211.900 89.076 C 212.285 88.975,211.970 88.893,211.200 88.893 C 210.430 88.893,210.115 88.975,210.500 89.076 M234.900 89.076 C 235.285 89.176,235.915 89.176,236.300 89.076 C 236.685 88.975,236.370 88.893,235.600 88.893 C 234.830 88.893,234.515 88.975,234.900 89.076 M242.000 90.690 C 242.330 90.815,243.545 91.330,244.700 91.836 C 245.855 92.342,246.800 92.666,246.800 92.556 C 246.800 92.267,242.469 90.394,241.889 90.432 C 241.608 90.450,241.656 90.560,242.000 90.690 M193.500 95.029 C 192.005 95.840,192.096 96.178,193.600 95.400 C 194.260 95.059,194.800 94.694,194.800 94.590 C 194.800 94.332,194.757 94.347,193.500 95.029 M250.800 95.800 C 251.546 96.570,252.247 97.200,252.357 97.200 C 252.467 97.200,251.946 96.570,251.200 95.800 C 250.454 95.030,249.753 94.400,249.643 94.400 C 249.533 94.400,250.054 95.030,250.800 95.800 M189.700 97.026 C 188.765 97.587,188.000 98.140,188.000 98.255 C 188.000 98.471,190.699 96.938,191.380 96.336 C 192.067 95.728,191.427 95.991,189.700 97.026 M185.300 99.688 C 184.805 99.927,184.400 100.279,184.400 100.470 C 184.400 100.662,184.850 100.524,185.400 100.163 C 186.867 99.202,186.816 98.957,185.300 99.688 M177.578 105.900 L 176.200 107.400 177.700 106.022 C 178.525 105.263,179.200 104.588,179.200 104.522 C 179.200 104.216,178.862 104.504,177.578 105.900 M174.596 108.404 C 173.966 109.062,173.582 109.600,173.743 109.600 C 174.156 109.600,176.122 107.588,175.913 107.380 C 175.819 107.286,175.226 107.746,174.596 108.404 M214.581 110.900 L 213.000 112.600 214.700 111.019 C 216.281 109.548,216.584 109.200,216.281 109.200 C 216.216 109.200,215.451 109.965,214.581 110.900 M234.688 112.200 C 234.811 113.520,234.976 114.675,235.056 114.767 C 235.335 115.089,235.116 111.788,234.793 110.800 C 234.589 110.179,234.549 110.709,234.688 112.200 M170.159 113.300 C 168.407 115.321,167.887 116.000,168.090 116.000 C 168.207 116.000,168.967 115.190,169.779 114.200 C 171.281 112.366,171.579 111.663,170.159 113.300 M258.924 115.000 C 258.926 116.320,259.001 116.812,259.090 116.093 C 259.179 115.374,259.177 114.294,259.086 113.693 C 258.995 113.092,258.922 113.680,258.924 115.000 M234.871 118.200 C 234.828 119.300,234.711 121.190,234.610 122.400 L 234.426 124.600 234.827 122.400 C 235.048 121.190,235.165 119.300,235.088 118.200 L 234.948 116.200 234.871 118.200 M258.909 122.400 C 258.909 123.390,258.987 123.795,259.082 123.300 C 259.178 122.805,259.178 121.995,259.082 121.500 C 258.987 121.005,258.909 121.410,258.909 122.400 M162.322 123.700 C 160.897 125.850,159.698 127.977,160.137 127.575 C 160.346 127.384,162.789 123.676,163.744 122.100 C 164.620 120.655,163.518 121.894,162.322 123.700 M205.400 124.000 C 205.059 124.660,204.869 125.200,204.979 125.200 C 205.089 125.200,205.459 124.660,205.800 124.000 C 206.141 123.340,206.331 122.800,206.221 122.800 C 206.111 122.800,205.741 123.340,205.400 124.000 M258.493 126.400 C 258.493 127.170,258.575 127.485,258.676 127.100 C 258.776 126.715,258.776 126.085,258.676 125.700 C 258.575 125.315,258.493 125.630,258.493 126.400 M233.029 130.229 C 232.881 130.815,232.838 131.372,232.932 131.466 C 233.027 131.560,233.224 131.158,233.371 130.571 C 233.519 129.985,233.562 129.428,233.468 129.334 C 233.373 129.240,233.176 129.642,233.029 130.229 M157.879 131.174 C 157.506 131.806,157.201 132.476,157.201 132.662 C 157.202 132.848,157.572 132.395,158.023 131.655 C 158.474 130.915,158.779 130.246,158.701 130.167 C 158.622 130.089,158.252 130.542,157.879 131.174 M201.400 132.000 C 201.059 132.660,200.869 133.200,200.979 133.200 C 201.089 133.200,201.459 132.660,201.800 132.000 C 202.141 131.340,202.331 130.800,202.221 130.800 C 202.111 130.800,201.741 131.340,201.400 132.000 M155.781 135.237 C 155.429 135.918,155.212 136.545,155.299 136.632 C 155.386 136.719,155.756 136.162,156.122 135.395 C 156.944 133.670,156.659 133.538,155.781 135.237 M153.756 139.443 C 153.424 140.237,153.226 140.959,153.314 141.048 C 153.403 141.136,153.759 140.487,154.105 139.604 C 154.889 137.609,154.582 137.468,153.756 139.443 M219.800 153.355 C 218.040 155.186,215.610 157.545,214.400 158.598 C 213.190 159.650,212.740 160.142,213.400 159.690 C 215.966 157.934,224.022 149.925,223.134 150.013 C 223.060 150.021,221.560 151.524,219.800 153.355 M247.170 152.700 C 246.221 153.965,245.764 154.740,246.156 154.423 C 246.891 153.827,249.371 150.400,249.067 150.400 C 248.973 150.400,248.119 151.435,247.170 152.700 M146.249 159.015 C 146.112 159.373,146.015 159.966,146.034 160.333 C 146.053 160.700,146.227 160.469,146.421 159.820 C 146.798 158.558,146.665 157.933,146.249 159.015 M239.588 161.100 L 237.000 163.800 239.700 161.212 C 241.185 159.788,242.400 158.573,242.400 158.512 C 242.400 158.217,241.993 158.592,239.588 161.100 M204.700 164.629 C 203.149 165.470,203.325 165.761,204.900 164.959 C 206.408 164.193,206.675 163.994,206.167 164.016 C 205.965 164.025,205.305 164.301,204.700 164.629 M143.822 168.622 C 143.672 169.425,143.628 170.162,143.726 170.260 C 143.824 170.357,144.027 169.781,144.178 168.978 C 144.328 168.175,144.372 167.438,144.274 167.340 C 144.176 167.243,143.973 167.819,143.822 168.622 M196.000 167.600 C 195.196 167.857,195.157 167.923,195.800 167.932 C 196.240 167.938,196.960 167.789,197.400 167.600 C 198.419 167.162,197.368 167.162,196.000 167.600 M191.790 168.416 C 191.621 168.689,191.923 168.738,192.666 168.560 C 194.199 168.192,194.344 168.000,193.090 168.000 C 192.517 168.000,191.932 168.187,191.790 168.416 M225.000 172.000 C 224.340 172.437,223.980 172.792,224.200 172.788 C 224.601 172.782,226.776 171.223,226.400 171.212 C 226.290 171.208,225.660 171.563,225.000 172.000 M142.101 178.200 C 142.105 179.080,142.187 179.393,142.283 178.895 C 142.379 178.398,142.375 177.678,142.275 177.295 C 142.175 176.913,142.096 177.320,142.101 178.200 M200.000 181.600 C 199.467 181.945,199.467 181.988,200.000 181.988 C 200.330 181.988,200.870 181.813,201.200 181.600 C 201.733 181.255,201.733 181.212,201.200 181.212 C 200.870 181.212,200.330 181.387,200.000 181.600 M195.600 182.400 L 194.600 182.720 195.600 182.720 C 196.150 182.720,197.050 182.576,197.600 182.400 L 198.600 182.080 197.600 182.080 C 197.050 182.080,196.150 182.224,195.600 182.400 M188.100 183.476 C 188.485 183.576,189.115 183.576,189.500 183.476 C 189.885 183.375,189.570 183.293,188.800 183.293 C 188.030 183.293,187.715 183.375,188.100 183.476 M187.301 185.400 C 187.305 186.280,187.387 186.593,187.483 186.095 C 187.579 185.598,187.575 184.878,187.475 184.495 C 187.375 184.113,187.296 184.520,187.301 185.400 M186.914 189.000 C 186.917 190.100,186.995 190.503,187.087 189.895 C 187.179 189.286,187.177 188.386,187.082 187.895 C 186.987 187.403,186.911 187.900,186.914 189.000 M140.567 198.000 C 140.567 202.290,140.626 204.045,140.698 201.900 C 140.770 199.755,140.770 196.245,140.698 194.100 C 140.626 191.955,140.567 193.710,140.567 198.000 M262.469 192.565 C 261.331 193.768,260.400 194.867,260.400 195.008 C 260.400 195.149,261.318 194.260,262.440 193.032 L 264.480 190.800 269.430 190.800 L 274.380 190.800 273.988 191.900 C 273.619 192.935,273.631 192.953,274.203 192.216 C 275.290 190.815,274.721 190.604,269.536 190.489 L 264.538 190.377 262.469 192.565 M256.191 199.300 L 253.000 202.600 256.300 199.409 C 258.115 197.655,259.600 196.170,259.600 196.109 C 259.600 195.818,259.154 196.235,256.191 199.300 M186.901 202.600 C 186.905 203.480,186.987 203.793,187.083 203.295 C 187.179 202.798,187.175 202.078,187.075 201.695 C 186.975 201.313,186.896 201.720,186.901 202.600 M267.315 202.100 C 265.581 204.367,264.666 205.720,265.009 205.513 C 265.481 205.227,268.137 201.600,267.874 201.600 C 267.777 201.600,267.526 201.825,267.315 202.100 M250.567 204.629 L 249.000 206.058 250.700 204.762 C 252.253 203.578,252.632 203.200,252.267 203.200 C 252.193 203.200,251.428 203.843,250.567 204.629 M187.293 205.600 C 187.293 206.370,187.375 206.685,187.476 206.300 C 187.576 205.915,187.576 205.285,187.476 204.900 C 187.375 204.515,187.293 204.830,187.293 205.600 M246.000 208.468 C 244.952 209.420,244.701 209.765,245.400 209.295 C 246.504 208.551,248.338 206.777,247.962 206.817 C 247.873 206.826,246.990 207.570,246.000 208.468 M239.400 213.435 L 238.200 214.466 239.500 213.606 C 240.215 213.133,240.800 212.668,240.800 212.573 C 240.800 212.273,240.631 212.378,239.400 213.435 M142.093 215.200 C 142.093 215.970,142.175 216.285,142.276 215.900 C 142.376 215.515,142.376 214.885,142.276 214.500 C 142.175 214.115,142.093 214.430,142.093 215.200 M236.000 215.636 C 235.336 216.179,235.269 216.315,235.800 216.040 C 237.105 215.366,237.828 214.812,237.400 214.815 C 237.180 214.817,236.550 215.186,236.000 215.636 M255.978 216.300 L 254.600 217.800 256.100 216.422 C 256.925 215.663,257.600 214.988,257.600 214.922 C 257.600 214.616,257.262 214.904,255.978 216.300 M233.100 217.029 C 231.549 217.870,231.725 218.161,233.300 217.359 C 234.808 216.593,235.075 216.394,234.567 216.416 C 234.365 216.425,233.705 216.701,233.100 217.029 M250.000 222.275 L 245.800 226.526 249.261 223.413 C 252.098 220.863,254.813 217.959,254.312 218.012 C 254.250 218.018,252.310 219.936,250.000 222.275 M221.600 220.800 C 220.796 221.057,220.757 221.123,221.400 221.132 C 221.840 221.138,222.560 220.989,223.000 220.800 C 224.019 220.362,222.968 220.362,221.600 220.800 M200.400 221.600 C 200.730 221.813,201.360 221.978,201.800 221.966 L 202.600 221.944 201.800 221.600 C 200.604 221.086,199.605 221.086,200.400 221.600 M206.100 222.297 C 207.585 222.374,210.015 222.374,211.500 222.297 C 212.985 222.220,211.770 222.157,208.800 222.157 C 205.830 222.157,204.615 222.220,206.100 222.297 M241.000 230.053 C 238.570 232.026,238.373 232.227,239.400 231.689 C 240.262 231.237,243.531 228.435,243.200 228.431 C 243.090 228.430,242.100 229.159,241.000 230.053 M234.900 234.446 C 233.537 235.319,233.095 235.906,234.300 235.243 C 235.218 234.739,236.656 233.627,236.400 233.619 C 236.290 233.616,235.615 233.988,234.900 234.446 M152.150 235.482 C 153.003 236.392,154.533 237.702,155.550 238.394 C 157.131 239.469,157.197 239.488,156.003 238.526 C 155.235 237.907,153.705 236.596,152.603 235.613 L 150.600 233.827 152.150 235.482 M206.800 246.400 C 205.996 246.657,205.957 246.723,206.600 246.732 C 207.040 246.738,207.760 246.589,208.200 246.400 C 209.219 245.962,208.168 245.962,206.800 246.400 M180.600 248.000 C 181.260 248.168,182.340 248.305,183.000 248.305 L 184.200 248.305 183.000 248.000 C 182.340 247.832,181.260 247.695,180.600 247.695 L 179.400 247.695 180.600 248.000 M194.600 248.000 L 192.600 248.274 194.400 248.308 C 195.390 248.326,197.010 248.197,198.000 248.020 L 199.800 247.700 198.200 247.713 C 197.320 247.720,195.700 247.849,194.600 248.000 " stroke="none" fill="#8494b2" fill-rule="evenodd"></path></g></svg>