<svg id="svg" version="1.1" xmlns="http://www.w3.org/2000/svg" xmlns:xlink="http://www.w3.org/1999/xlink" width="400" height="400" viewBox="0, 0, 400,400"><g id="svgg"><path id="path0" d="M297.148 41.737 C 297.393 42.032,297.460 42.421,297.297 42.601 C 297.133 42.781,297.216 42.804,297.480 42.653 C 297.800 42.470,298.050 42.861,298.232 43.827 C 298.392 44.684,299.054 45.828,299.852 46.625 C 300.593 47.367,301.200 48.225,301.200 48.533 C 301.200 48.840,301.560 49.550,302.000 50.109 C 302.440 50.669,302.800 51.348,302.800 51.619 C 302.800 51.890,303.160 52.897,303.600 53.856 C 304.040 54.815,304.760 56.385,305.200 57.344 C 305.640 58.303,306.000 59.400,306.000 59.782 C 306.000 60.164,306.259 60.954,306.575 61.538 C 311.066 69.829,312.106 91.961,308.589 104.400 C 308.247 105.610,307.795 107.267,307.585 108.082 C 307.376 108.898,306.953 110.158,306.647 110.882 C 306.340 111.607,305.681 113.190,305.182 114.400 C 303.145 119.340,300.639 124.224,298.580 127.264 C 297.381 129.036,296.400 130.563,296.400 130.659 C 296.400 131.647,287.931 141.735,283.017 146.600 C 277.864 151.701,269.475 158.899,265.999 161.200 C 265.500 161.530,264.172 162.523,263.046 163.407 C 261.921 164.290,260.280 165.483,259.400 166.057 C 251.701 171.083,248.168 173.309,245.600 174.755 C 243.950 175.683,242.330 176.617,242.000 176.830 C 241.670 177.042,240.860 177.495,240.200 177.835 C 239.540 178.176,237.560 179.251,235.800 180.226 C 231.668 182.514,216.568 189.965,213.200 191.377 C 211.770 191.977,209.835 192.813,208.900 193.234 C 207.965 193.655,206.435 194.336,205.500 194.746 C 204.565 195.156,203.170 195.779,202.400 196.130 C 198.893 197.728,196.263 198.800,195.844 198.800 C 195.593 198.800,194.716 199.160,193.896 199.600 C 193.075 200.040,192.137 200.400,191.812 200.400 C 191.268 200.400,190.297 200.793,185.756 202.854 C 184.852 203.264,183.890 203.600,183.618 203.600 C 183.346 203.600,182.646 203.866,182.062 204.191 C 180.941 204.815,177.425 206.083,174.382 206.960 C 173.381 207.249,172.178 207.691,171.708 207.942 C 171.237 208.194,170.480 208.400,170.025 208.400 C 169.570 208.400,168.525 208.760,167.704 209.200 C 166.884 209.640,165.849 210.001,165.406 210.002 C 164.963 210.004,164.072 210.280,163.426 210.617 C 162.781 210.954,161.611 211.392,160.826 211.592 C 160.042 211.791,157.870 212.430,156.000 213.012 C 152.147 214.212,148.246 215.345,145.600 216.033 C 143.684 216.531,140.990 217.476,140.000 217.997 C 139.307 218.362,139.346 219.328,140.176 222.400 C 140.503 223.610,141.244 226.400,141.822 228.600 C 143.169 233.721,144.325 237.370,145.260 239.444 C 145.667 240.348,146.000 241.310,146.000 241.582 C 146.000 241.854,146.255 242.554,146.566 243.138 C 146.877 243.722,148.061 246.180,149.197 248.600 C 150.333 251.020,151.429 253.270,151.632 253.600 C 151.836 253.930,152.178 254.560,152.394 255.000 C 153.236 256.717,157.386 262.989,158.324 263.961 C 158.621 264.270,159.546 265.444,160.379 266.571 C 162.412 269.324,166.347 273.207,170.000 276.067 C 171.650 277.358,173.194 278.570,173.431 278.759 C 173.668 278.947,174.298 279.239,174.831 279.406 C 175.364 279.573,176.229 280.045,176.754 280.455 C 177.279 280.865,178.049 281.200,178.466 281.200 C 178.884 281.200,179.329 281.470,179.455 281.800 C 179.582 282.130,180.105 282.400,180.617 282.400 C 181.993 282.400,183.686 283.137,183.394 283.609 C 183.255 283.835,183.289 283.994,183.470 283.963 C 184.871 283.719,186.097 284.084,186.284 284.800 C 186.434 285.374,186.830 285.600,187.686 285.600 C 188.865 285.600,188.845 285.563,186.019 282.537 C 184.445 280.852,182.916 278.894,182.620 278.186 C 182.324 277.477,181.883 276.775,181.641 276.625 C 181.398 276.475,181.200 276.010,181.200 275.590 C 181.200 275.171,180.625 274.173,179.922 273.372 C 178.311 271.537,174.857 264.697,174.540 262.713 C 174.408 261.889,174.053 261.010,173.750 260.759 C 173.448 260.507,173.200 260.067,173.200 259.780 C 173.200 259.493,172.568 258.046,171.796 256.564 C 170.915 254.875,170.301 253.037,170.149 251.635 C 170.015 250.406,169.647 248.987,169.332 248.482 C 168.322 246.867,168.137 243.600,169.055 243.600 C 169.477 243.600,170.186 243.345,170.631 243.033 C 171.077 242.721,172.152 242.341,173.020 242.188 C 173.889 242.035,174.960 241.691,175.400 241.423 C 175.840 241.155,177.370 240.704,178.800 240.421 C 180.230 240.138,182.132 239.567,183.026 239.153 C 183.921 238.739,185.008 238.400,185.442 238.400 C 185.876 238.400,186.937 238.040,187.800 237.600 C 188.663 237.160,189.849 236.800,190.436 236.800 C 191.022 236.800,191.726 236.530,192.000 236.200 C 192.274 235.870,192.796 235.600,193.160 235.600 C 193.524 235.600,194.186 235.345,194.631 235.033 C 195.077 234.721,196.152 234.341,197.020 234.188 C 197.889 234.035,198.979 233.674,199.442 233.384 C 199.904 233.095,200.984 232.735,201.842 232.584 C 202.699 232.434,203.779 232.074,204.242 231.784 C 204.704 231.495,205.783 231.127,206.638 230.966 C 207.494 230.806,208.987 230.253,209.956 229.737 C 210.926 229.222,212.210 228.800,212.811 228.800 C 213.411 228.800,214.126 228.530,214.400 228.200 C 214.674 227.870,215.191 227.599,215.549 227.597 C 215.907 227.596,216.740 227.237,217.400 226.800 C 218.060 226.363,219.086 226.004,219.681 226.003 C 220.276 226.001,222.129 225.280,223.800 224.400 C 225.471 223.520,227.345 222.800,227.965 222.800 C 228.585 222.800,229.550 222.440,230.109 222.000 C 230.669 221.560,231.389 221.200,231.709 221.200 C 232.030 221.200,232.750 220.840,233.309 220.400 C 233.869 219.960,234.514 219.600,234.744 219.600 C 234.974 219.600,236.529 218.880,238.200 218.000 C 239.871 217.120,241.440 216.400,241.688 216.400 C 241.935 216.400,242.435 216.130,242.799 215.801 C 243.163 215.471,244.309 215.043,245.345 214.850 C 246.381 214.656,247.552 214.206,247.946 213.849 C 248.340 213.492,248.940 213.200,249.278 213.200 C 249.616 213.200,250.350 212.840,250.909 212.400 C 251.469 211.960,252.189 211.600,252.509 211.600 C 252.830 211.600,253.550 211.240,254.109 210.800 C 254.669 210.360,255.397 210.000,255.727 210.000 C 256.058 210.000,257.239 209.280,258.352 208.400 C 259.466 207.520,260.714 206.800,261.126 206.800 C 261.539 206.800,262.202 206.440,262.600 206.000 C 262.998 205.560,263.628 205.200,264.000 205.200 C 264.372 205.200,265.002 204.840,265.400 204.400 C 265.798 203.960,266.424 203.600,266.790 203.600 C 267.156 203.600,268.421 202.880,269.600 202.000 C 270.779 201.120,272.044 200.400,272.410 200.400 C 272.776 200.400,273.402 200.040,273.800 199.600 C 274.198 199.160,274.742 198.800,275.008 198.800 C 275.274 198.800,275.950 198.440,276.509 198.000 C 277.069 197.560,277.817 197.200,278.172 197.200 C 278.527 197.200,279.599 196.480,280.554 195.600 C 281.508 194.720,282.574 194.000,282.922 194.000 C 283.269 194.000,284.779 192.923,286.277 191.607 C 287.775 190.291,289.214 189.211,289.474 189.207 C 289.735 189.203,291.085 188.200,292.474 186.977 C 293.864 185.755,295.562 184.513,296.249 184.219 C 298.008 183.465,318.800 162.641,318.800 161.633 C 318.800 161.197,319.061 160.694,319.381 160.515 C 320.221 160.044,323.600 155.601,323.600 154.966 C 323.600 154.670,324.173 153.775,324.873 152.978 C 326.023 151.669,331.600 141.142,331.600 140.282 C 331.600 140.086,331.960 139.469,332.400 138.909 C 332.840 138.350,333.201 137.331,333.203 136.646 C 333.204 135.961,333.563 134.860,334.000 134.200 C 334.437 133.540,334.796 132.455,334.797 131.789 C 334.799 131.123,335.057 130.212,335.370 129.764 C 335.684 129.316,336.152 127.071,336.409 124.775 C 336.666 122.479,337.053 120.266,337.268 119.858 C 337.949 118.565,338.392 107.537,338.015 101.242 C 337.819 97.965,337.483 94.950,337.268 94.542 C 337.053 94.134,336.666 91.921,336.409 89.625 C 336.152 87.329,335.684 85.084,335.370 84.636 C 335.057 84.188,334.800 83.331,334.800 82.730 C 334.800 82.129,334.080 80.271,333.200 78.600 C 332.320 76.929,331.600 75.041,331.600 74.405 C 331.600 73.631,331.072 72.638,330.000 71.400 C 329.120 70.383,328.400 69.317,328.400 69.030 C 328.400 68.743,328.067 68.079,327.661 67.554 C 327.255 67.029,326.801 66.105,326.653 65.499 C 326.286 63.995,310.401 48.112,308.901 47.749 C 308.295 47.603,307.039 46.789,306.109 45.941 C 305.179 45.094,304.127 44.400,303.772 44.400 C 303.417 44.400,302.669 44.040,302.109 43.600 C 301.550 43.160,300.830 42.800,300.509 42.800 C 300.189 42.800,299.469 42.440,298.909 42.000 C 297.722 41.066,296.431 40.873,297.148 41.737 M201.400 51.200 C 193.414 52.757,185.115 57.482,177.796 64.640 C 175.681 66.709,170.478 72.352,169.800 73.313 C 169.580 73.625,168.915 74.582,168.322 75.440 C 167.730 76.298,166.604 77.900,165.821 79.000 C 162.842 83.183,160.400 86.880,160.400 87.205 C 160.400 87.391,160.143 87.799,159.830 88.113 C 159.516 88.427,158.975 89.295,158.627 90.042 C 158.279 90.789,157.558 92.120,157.025 93.000 C 156.491 93.880,155.776 95.140,155.436 95.800 C 155.095 96.460,154.644 97.270,154.433 97.600 C 154.222 97.930,153.659 99.100,153.181 100.200 C 152.704 101.300,151.981 102.920,151.575 103.800 C 151.169 104.680,150.365 106.660,149.790 108.200 C 149.214 109.740,148.143 112.530,147.409 114.400 C 146.676 116.270,145.962 118.340,145.824 119.000 C 145.686 119.660,145.328 120.740,145.029 121.400 C 144.311 122.988,143.495 126.250,141.130 137.000 C 140.453 140.080,139.728 143.860,139.520 145.400 C 139.312 146.940,138.892 149.190,138.588 150.400 C 138.283 151.610,137.926 154.220,137.794 156.200 C 137.662 158.180,137.309 161.060,137.011 162.600 C 136.109 167.249,135.768 188.336,136.589 188.651 C 136.944 188.787,139.792 188.077,142.917 187.072 C 146.043 186.067,149.140 185.118,149.800 184.963 C 150.460 184.807,151.355 184.437,151.789 184.140 C 152.223 183.843,152.943 183.599,153.389 183.597 C 153.835 183.596,154.740 183.237,155.400 182.800 C 156.060 182.363,156.887 182.004,157.238 182.003 C 157.589 182.001,158.202 181.640,158.600 181.200 C 158.998 180.760,159.557 180.400,159.841 180.400 C 160.126 180.400,160.844 179.950,161.438 179.400 C 162.031 178.850,162.838 178.400,163.231 178.400 C 163.625 178.400,164.060 178.040,164.200 177.600 C 164.340 177.160,164.712 176.800,165.027 176.800 C 165.440 176.800,165.600 176.294,165.600 174.986 C 165.600 173.988,165.849 172.773,166.153 172.286 C 166.456 171.799,166.816 169.979,166.952 168.241 C 167.088 166.504,167.360 164.884,167.555 164.641 C 167.751 164.399,168.123 162.584,168.383 160.608 C 168.642 158.633,169.002 156.833,169.182 156.608 C 169.363 156.384,169.639 155.210,169.796 154.000 C 169.953 152.790,170.316 151.260,170.601 150.600 C 170.887 149.940,171.325 148.288,171.575 146.929 C 171.824 145.570,172.652 143.262,173.414 141.800 C 174.176 140.338,174.801 138.660,174.803 138.071 C 174.804 137.482,175.163 136.460,175.600 135.800 C 176.037 135.140,176.396 134.160,176.397 133.623 C 176.399 132.842,180.066 124.689,181.625 122.000 C 181.816 121.670,182.559 120.230,183.275 118.800 C 183.992 117.370,185.258 115.329,186.089 114.264 C 186.920 113.199,187.600 112.049,187.600 111.709 C 187.600 111.368,188.320 110.308,189.200 109.354 C 190.080 108.399,190.800 107.282,190.800 106.871 C 190.800 106.460,191.160 105.798,191.600 105.400 C 192.040 105.002,192.400 104.408,192.400 104.080 C 192.400 103.752,192.760 103.105,193.200 102.642 C 195.927 99.773,198.800 96.356,198.800 95.982 C 198.800 95.324,205.655 88.400,206.306 88.400 C 206.616 88.400,207.994 87.320,209.369 86.000 C 210.743 84.680,212.157 83.600,212.510 83.600 C 212.863 83.600,213.983 82.880,215.000 82.000 C 216.320 80.857,217.213 80.399,218.124 80.397 C 218.826 80.396,219.923 80.050,220.562 79.629 C 221.457 79.039,222.801 78.798,226.421 78.582 L 231.117 78.302 231.413 75.651 C 232.033 70.089,231.600 67.670,229.152 63.000 C 227.284 59.437,224.245 55.728,222.207 54.522 C 215.820 50.743,209.183 49.683,201.400 51.200 M357.000 233.460 C 356.098 233.604,354.036 235.407,348.700 240.721 L 341.600 247.792 341.600 249.975 C 341.600 251.176,341.392 254.641,341.138 257.675 L 340.675 263.193 337.638 266.304 C 333.272 270.776,325.345 278.329,322.936 280.314 C 321.801 281.249,319.911 282.988,318.736 284.177 C 317.561 285.367,315.880 286.906,315.000 287.598 C 314.120 288.291,312.410 289.794,311.200 290.939 C 309.990 292.085,308.010 293.815,306.800 294.784 C 305.590 295.754,304.420 296.750,304.200 296.999 C 303.980 297.248,302.270 298.700,300.400 300.227 C 298.530 301.755,296.460 303.488,295.800 304.079 C 292.750 306.810,275.104 320.400,274.607 320.400 C 274.457 320.400,273.584 320.995,272.667 321.723 C 270.866 323.151,270.977 323.074,264.856 327.204 C 262.576 328.742,260.648 330.000,260.571 330.000 C 260.494 330.000,258.980 330.988,257.206 332.196 C 255.433 333.403,252.861 334.999,251.491 335.742 C 250.121 336.485,248.370 337.468,247.600 337.926 C 246.830 338.385,245.030 339.381,243.600 340.140 C 242.170 340.899,240.460 341.807,239.800 342.158 C 239.140 342.508,238.476 342.796,238.324 342.798 C 238.172 342.799,236.552 343.497,234.724 344.348 C 232.896 345.200,230.153 346.388,228.628 346.989 C 227.104 347.591,225.574 348.243,225.228 348.438 C 224.264 348.984,221.280 350.005,218.387 350.780 C 216.950 351.164,215.386 351.686,214.913 351.939 C 214.440 352.193,213.582 352.400,213.006 352.400 C 212.431 352.400,211.449 352.664,210.824 352.988 C 210.199 353.311,208.723 353.742,207.544 353.946 C 206.365 354.150,204.860 354.503,204.200 354.731 C 202.107 355.454,195.568 356.742,190.600 357.410 C 187.960 357.765,184.810 358.229,183.600 358.443 C 174.010 360.132,144.906 359.028,134.000 356.562 C 132.570 356.239,130.507 355.785,129.415 355.554 C 128.324 355.322,126.974 354.903,126.415 354.622 C 125.857 354.341,124.612 353.990,123.649 353.843 C 122.686 353.695,121.521 353.310,121.060 352.987 C 120.599 352.664,119.857 352.394,119.411 352.386 C 118.965 352.379,117.880 352.025,117.000 351.600 C 116.120 351.175,115.167 350.821,114.883 350.814 C 114.599 350.806,113.159 350.235,111.683 349.544 C 110.207 348.853,108.280 347.956,107.400 347.549 C 106.520 347.143,105.530 346.647,105.200 346.448 C 104.870 346.248,104.150 345.880,103.600 345.628 C 99.731 343.860,94.000 340.476,94.000 339.960 C 94.000 339.762,93.649 339.600,93.220 339.600 C 92.791 339.600,92.296 339.364,92.120 339.077 C 91.944 338.789,91.215 338.317,90.500 338.028 C 89.785 337.739,89.200 337.339,89.200 337.139 C 89.200 336.939,88.885 336.658,88.500 336.515 C 88.115 336.372,86.863 335.567,85.717 334.727 C 84.571 333.887,83.446 333.200,83.217 333.200 C 82.988 333.200,82.800 332.942,82.800 332.627 C 82.800 332.312,82.412 331.931,81.938 331.780 C 81.091 331.512,80.148 330.750,76.305 327.233 C 74.039 325.160,74.147 326.135,76.466 328.691 C 77.310 329.621,78.000 330.632,78.000 330.937 C 78.000 331.242,78.360 331.950,78.800 332.509 C 79.240 333.069,79.600 333.802,79.600 334.140 C 79.600 334.478,80.677 335.979,81.993 337.477 C 83.309 338.975,84.389 340.429,84.393 340.709 C 84.413 342.152,104.204 361.989,105.641 362.007 C 105.949 362.011,107.425 363.091,108.923 364.407 C 110.421 365.723,111.821 366.800,112.035 366.800 C 112.249 366.800,113.334 367.520,114.448 368.400 C 115.561 369.280,116.751 370.000,117.091 370.000 C 117.432 370.000,118.492 370.720,119.446 371.600 C 120.401 372.480,121.473 373.200,121.828 373.200 C 122.183 373.200,122.931 373.560,123.491 374.000 C 124.050 374.440,125.086 374.800,125.792 374.800 C 126.568 374.800,127.362 375.116,127.800 375.600 C 128.198 376.040,128.901 376.401,129.362 376.403 C 129.823 376.404,130.740 376.763,131.400 377.200 C 132.060 377.637,132.856 377.996,133.169 377.997 C 133.481 377.999,134.021 378.240,134.369 378.534 C 134.716 378.827,136.243 379.287,137.763 379.555 C 139.283 379.824,140.898 380.303,141.352 380.622 C 141.806 380.940,142.636 381.200,143.195 381.200 C 143.754 381.200,144.839 381.533,145.606 381.939 C 146.373 382.346,148.046 382.799,149.324 382.946 C 150.602 383.092,152.042 383.467,152.524 383.778 C 153.075 384.133,155.182 384.446,158.200 384.622 C 160.840 384.776,163.186 385.048,163.412 385.227 C 165.407 386.802,206.179 386.781,207.756 385.204 C 207.978 384.982,209.249 384.799,210.580 384.799 C 213.594 384.797,220.063 384.029,220.600 383.608 C 220.820 383.436,222.596 383.072,224.547 382.799 C 226.497 382.527,228.567 382.057,229.147 381.755 C 229.726 381.452,230.655 381.204,231.211 381.202 C 231.767 381.201,232.627 380.917,233.121 380.570 C 233.616 380.224,235.051 379.841,236.310 379.719 C 237.570 379.598,239.161 379.162,239.847 378.749 C 240.533 378.337,241.613 377.999,242.247 377.997 C 242.881 377.996,243.940 377.637,244.600 377.200 C 245.260 376.763,246.340 376.403,247.000 376.400 C 247.660 376.397,248.740 376.037,249.400 375.600 C 250.060 375.163,250.932 374.804,251.337 374.803 C 251.742 374.801,252.531 374.440,253.091 374.000 C 253.650 373.560,254.599 373.200,255.200 373.200 C 255.801 373.200,256.750 372.840,257.309 372.400 C 257.869 371.960,258.484 371.600,258.678 371.600 C 259.461 371.600,273.395 364.377,274.819 363.232 C 275.663 362.555,276.696 362.000,277.115 362.000 C 277.533 362.000,278.202 361.640,278.600 361.200 C 278.998 360.760,279.542 360.400,279.808 360.400 C 280.074 360.400,280.750 360.040,281.309 359.600 C 281.869 359.160,282.617 358.800,282.972 358.800 C 283.327 358.800,284.399 358.080,285.354 357.200 C 286.308 356.320,287.373 355.600,287.720 355.600 C 288.067 355.600,289.183 354.880,290.200 354.000 C 291.217 353.120,292.296 352.400,292.599 352.400 C 292.901 352.400,294.285 351.400,295.674 350.177 C 297.064 348.955,298.740 347.722,299.400 347.439 C 300.060 347.156,301.615 345.996,302.856 344.862 C 304.097 343.728,305.365 342.800,305.675 342.800 C 305.984 342.800,306.941 342.080,307.800 341.200 C 308.659 340.320,309.683 339.600,310.075 339.600 C 310.467 339.600,312.356 338.160,314.274 336.400 C 316.191 334.640,317.993 333.200,318.277 333.200 C 318.561 333.200,320.276 331.835,322.087 330.168 C 323.898 328.500,325.952 326.896,326.652 326.604 C 327.351 326.312,328.054 325.659,328.215 325.152 C 328.572 324.028,330.539 322.000,331.272 322.000 C 331.566 322.000,334.055 319.880,336.803 317.289 C 339.551 314.698,342.213 312.401,342.717 312.185 C 344.384 311.473,366.800 289.182,366.800 288.238 C 366.800 287.765,367.115 286.933,367.500 286.389 C 368.147 285.475,368.200 283.661,368.200 262.400 C 368.200 241.139,368.147 239.325,367.500 238.411 C 367.115 237.867,366.800 237.033,366.800 236.558 C 366.800 234.339,361.674 232.719,357.000 233.460 " stroke="none" fill="#040405" fill-rule="evenodd"></path><path id="path1" d="M218.368 15.900 C 218.350 16.318,218.256 16.399,218.135 16.100 C 217.863 15.426,216.808 15.468,216.015 16.186 C 215.536 16.620,214.200 16.787,210.885 16.828 C 207.144 16.874,206.242 17.009,205.438 17.642 C 204.697 18.224,203.816 18.400,201.633 18.400 C 199.287 18.400,198.673 18.539,198.107 19.200 C 197.587 19.808,196.927 20.000,195.365 20.000 C 193.914 20.000,193.008 20.236,192.291 20.800 C 191.549 21.383,190.668 21.600,189.037 21.600 C 187.807 21.600,186.800 21.774,186.800 21.987 C 186.800 22.201,186.529 22.271,186.197 22.143 C 185.865 22.016,185.190 22.175,184.697 22.497 C 184.204 22.819,182.960 23.208,181.933 23.361 C 180.906 23.514,179.849 23.900,179.584 24.220 C 179.319 24.539,178.698 24.800,178.205 24.800 C 177.712 24.800,176.850 25.160,176.291 25.600 C 175.731 26.040,175.011 26.400,174.691 26.400 C 174.370 26.400,173.650 26.760,173.091 27.200 C 172.531 27.640,171.725 28.000,171.299 28.000 C 170.873 28.000,170.219 28.337,169.846 28.750 C 169.473 29.162,168.441 29.597,167.553 29.716 C 166.665 29.835,165.623 30.217,165.237 30.566 C 164.852 30.915,164.170 31.200,163.722 31.200 C 163.274 31.200,162.450 31.560,161.891 32.000 C 161.331 32.440,160.679 32.800,160.440 32.800 C 160.202 32.800,159.782 33.160,159.507 33.600 C 159.232 34.040,158.700 34.400,158.324 34.400 C 157.949 34.400,157.159 34.847,156.570 35.393 C 155.981 35.938,155.368 36.304,155.208 36.205 C 155.047 36.106,154.511 36.456,154.016 36.983 C 153.520 37.511,152.864 37.846,152.557 37.728 C 152.251 37.611,152.000 37.724,152.000 37.981 C 152.000 38.237,151.840 38.349,151.645 38.228 C 151.450 38.107,151.068 38.277,150.796 38.604 C 150.524 38.932,150.052 39.200,149.747 39.200 C 149.442 39.200,148.884 39.560,148.507 40.000 C 148.130 40.440,147.637 40.801,147.411 40.802 C 147.185 40.803,146.458 41.312,145.795 41.933 C 145.132 42.555,144.338 42.979,144.031 42.877 C 143.649 42.750,143.552 42.897,143.724 43.345 C 143.886 43.768,143.767 44.000,143.387 44.000 C 143.064 44.000,142.800 44.186,142.800 44.414 C 142.800 44.642,142.035 45.174,141.100 45.596 C 139.102 46.498,138.000 47.321,138.000 47.912 C 138.000 48.146,137.481 48.450,136.847 48.590 C 135.718 48.838,133.600 50.799,133.600 51.597 C 133.600 51.818,133.268 52.000,132.862 52.000 C 132.456 52.000,131.798 52.360,131.400 52.800 C 131.002 53.240,130.444 53.600,130.161 53.600 C 129.877 53.600,129.410 53.927,129.123 54.326 C 128.835 54.726,128.285 55.170,127.900 55.314 C 127.515 55.457,127.200 55.830,127.200 56.141 C 127.200 56.452,126.822 56.806,126.360 56.926 C 125.896 57.048,125.638 57.338,125.784 57.574 C 125.931 57.812,125.593 58.174,125.024 58.391 C 124.461 58.605,124.000 59.055,124.000 59.390 C 124.000 59.726,123.801 60.000,123.559 60.000 C 122.892 60.000,118.241 63.991,117.915 64.842 C 117.724 65.342,117.406 65.500,116.946 65.324 C 116.424 65.124,116.322 65.219,116.516 65.726 C 116.700 66.204,116.504 66.459,115.821 66.631 C 115.264 66.770,114.770 67.264,114.631 67.821 C 114.459 68.504,114.204 68.700,113.726 68.516 C 113.225 68.324,113.124 68.425,113.316 68.926 C 113.501 69.408,113.300 69.660,112.586 69.839 C 112.044 69.975,111.600 70.313,111.600 70.589 C 111.600 70.865,110.611 72.137,109.403 73.415 C 108.194 74.693,107.279 75.813,107.369 75.903 C 107.582 76.116,106.100 77.600,105.675 77.600 C 105.496 77.600,104.821 78.168,104.175 78.862 C 103.529 79.556,103.238 79.987,103.530 79.820 C 103.963 79.572,103.968 79.662,103.558 80.318 C 103.283 80.759,102.822 81.030,102.534 80.919 C 102.225 80.801,101.838 81.175,101.588 81.832 C 101.355 82.445,100.310 83.768,99.267 84.773 C 96.513 87.425,93.600 90.989,93.600 91.706 C 93.600 92.048,92.493 93.423,91.141 94.763 C 89.788 96.104,88.838 97.200,89.030 97.200 C 89.221 97.200,88.975 97.482,88.482 97.827 C 87.990 98.172,87.690 98.622,87.817 98.827 C 87.944 99.032,87.857 99.200,87.624 99.200 C 87.391 99.200,87.200 99.442,87.200 99.738 C 87.200 100.034,86.853 100.590,86.430 100.973 C 86.006 101.356,85.726 102.014,85.807 102.435 C 85.888 102.856,85.744 103.200,85.487 103.200 C 84.910 103.200,82.400 105.973,82.400 106.611 C 82.400 106.867,82.044 107.398,81.609 107.791 C 81.175 108.185,80.903 108.643,81.006 108.810 C 81.109 108.976,80.731 109.416,80.165 109.786 C 79.600 110.156,79.228 110.697,79.340 110.987 C 79.451 111.277,79.105 111.925,78.571 112.427 C 78.037 112.929,77.600 113.640,77.600 114.008 C 77.600 114.375,77.240 115.002,76.800 115.400 C 76.360 115.798,76.000 116.413,76.000 116.766 C 76.000 117.119,75.640 117.632,75.200 117.907 C 74.760 118.182,74.400 118.653,74.400 118.954 C 74.400 119.256,74.132 119.724,73.804 119.996 C 73.477 120.268,73.307 120.650,73.428 120.845 C 73.549 121.040,73.476 121.200,73.267 121.200 C 73.058 121.200,72.772 121.657,72.632 122.216 C 72.491 122.775,72.221 123.136,72.030 123.019 C 71.582 122.742,71.200 123.756,71.200 125.220 C 71.200 126.032,71.038 126.313,70.653 126.165 C 70.273 126.019,69.965 126.516,69.643 127.794 C 69.389 128.805,68.915 129.735,68.590 129.859 C 68.266 129.984,68.000 130.473,68.000 130.947 C 68.000 131.420,67.640 132.032,67.200 132.307 C 66.760 132.582,66.400 133.137,66.400 133.541 C 66.400 133.945,66.040 134.602,65.600 135.000 C 65.160 135.398,64.800 135.983,64.800 136.299 C 64.800 136.615,64.440 137.331,64.000 137.891 C 63.560 138.450,63.200 139.312,63.200 139.805 C 63.200 140.298,62.922 140.933,62.582 141.215 C 62.242 141.497,62.056 141.969,62.169 142.264 C 62.282 142.559,62.201 142.800,61.987 142.800 C 61.774 142.800,61.600 143.402,61.600 144.138 C 61.600 144.959,61.297 145.750,60.816 146.186 C 60.385 146.576,60.046 147.009,60.063 147.148 C 60.235 148.527,59.897 149.534,59.200 149.716 C 58.672 149.854,58.400 150.262,58.400 150.914 C 58.400 151.457,58.132 152.124,57.804 152.396 C 57.477 152.668,57.307 153.050,57.428 153.245 C 57.549 153.440,57.484 153.600,57.284 153.600 C 57.085 153.600,56.905 154.172,56.886 154.870 C 56.866 155.575,56.571 156.296,56.225 156.490 C 55.414 156.944,55.410 157.758,56.221 157.447 C 56.577 157.311,56.737 157.378,56.597 157.605 C 56.463 157.822,56.078 158.000,55.743 158.000 C 55.408 158.000,55.216 158.225,55.317 158.500 C 55.418 158.775,55.145 159.590,54.711 160.310 C 54.277 161.031,54.024 161.886,54.149 162.210 C 54.273 162.535,54.201 162.800,53.987 162.800 C 53.774 162.800,53.597 163.745,53.594 164.900 C 53.589 166.577,52.846 169.292,52.800 167.800 C 52.761 166.531,52.011 168.893,52.006 170.300 C 52.002 171.461,51.746 172.254,51.200 172.800 C 50.688 173.312,50.398 174.140,50.394 175.100 C 50.389 176.373,49.635 178.555,49.600 177.400 C 49.552 175.844,48.929 178.517,48.875 180.508 C 48.830 182.193,48.614 183.142,48.210 183.440 C 47.881 183.681,47.730 183.996,47.873 184.140 C 48.016 184.283,47.933 184.400,47.688 184.400 C 47.403 184.400,47.259 185.332,47.287 186.997 C 47.319 188.972,47.159 189.783,46.616 190.383 C 46.165 190.881,45.974 191.549,46.097 192.196 C 46.205 192.758,46.145 193.310,45.965 193.422 C 45.784 193.533,45.632 195.970,45.627 198.837 C 45.620 203.396,45.520 204.175,44.837 205.044 C 44.141 205.929,44.052 206.722,44.022 212.279 C 43.994 217.575,43.890 218.592,43.333 218.999 C 42.973 219.263,42.806 219.686,42.962 219.939 C 43.119 220.193,43.065 220.400,42.843 220.400 C 42.409 220.400,42.224 246.675,42.650 247.786 C 42.779 248.121,43.032 248.304,43.213 248.192 C 43.790 247.835,43.973 249.267,44.051 254.764 C 44.117 259.375,44.231 260.231,44.864 260.864 C 45.481 261.481,45.600 262.249,45.600 265.600 C 45.600 269.141,45.680 269.601,46.300 269.606 C 46.695 269.610,46.826 269.740,46.600 269.906 C 45.923 270.403,45.908 272.001,46.571 273.011 C 46.917 273.540,47.200 274.788,47.200 275.786 C 47.200 276.784,47.374 277.600,47.587 277.600 C 47.801 277.600,47.871 277.870,47.745 278.200 C 47.599 278.580,47.750 278.800,48.157 278.800 C 48.635 278.800,48.800 279.191,48.800 280.322 C 48.800 281.304,49.143 282.310,49.767 283.156 C 50.405 284.020,50.672 284.816,50.550 285.489 C 50.428 286.158,50.643 286.807,51.172 287.370 C 51.616 287.842,52.047 288.673,52.129 289.215 C 52.212 289.757,52.532 290.200,52.840 290.200 C 53.230 290.200,53.461 290.885,53.601 292.460 C 53.716 293.744,54.089 295.039,54.465 295.460 C 54.829 295.867,55.193 296.650,55.273 297.200 C 55.365 297.832,55.636 298.151,56.009 298.067 C 56.334 297.993,56.467 298.067,56.303 298.230 C 56.140 298.393,56.210 298.771,56.458 299.070 C 56.707 299.370,56.937 300.016,56.971 300.507 C 57.005 300.998,57.250 301.355,57.516 301.300 C 57.782 301.245,57.981 301.335,57.957 301.500 C 57.853 302.221,58.538 303.600,59.000 303.600 C 59.476 303.600,60.152 304.999,60.032 305.734 C 60.002 305.918,60.342 306.164,60.789 306.281 C 61.356 306.429,61.600 306.825,61.600 307.593 C 61.600 308.197,61.960 309.150,62.400 309.709 C 62.840 310.269,63.200 310.923,63.200 311.163 C 63.200 311.403,63.391 311.600,63.624 311.600 C 63.857 311.600,63.944 311.767,63.818 311.971 C 63.692 312.175,63.942 312.455,64.374 312.592 C 64.867 312.748,65.073 313.066,64.928 313.444 C 64.777 313.837,64.993 314.125,65.548 314.271 C 66.017 314.393,66.401 314.697,66.402 314.947 C 66.403 315.196,66.912 315.942,67.533 316.605 C 68.155 317.268,68.579 318.062,68.477 318.369 C 68.350 318.751,68.497 318.848,68.945 318.676 C 69.411 318.498,69.600 318.646,69.600 319.190 C 69.600 319.610,69.927 320.190,70.326 320.477 C 70.726 320.765,71.177 321.334,71.330 321.742 C 71.497 322.188,71.844 322.392,72.203 322.254 C 72.731 322.051,72.976 322.435,72.855 323.277 C 72.833 323.429,73.256 323.900,73.794 324.324 C 74.332 324.747,74.649 325.217,74.499 325.368 C 74.348 325.519,74.525 325.527,74.893 325.386 C 75.303 325.228,76.085 325.529,76.918 326.165 C 77.665 326.734,78.484 327.200,78.738 327.200 C 78.992 327.200,79.200 327.384,79.200 327.610 C 79.200 327.835,79.650 328.191,80.200 328.400 C 80.750 328.609,81.200 328.965,81.200 329.190 C 81.200 329.416,81.425 329.601,81.700 329.602 C 81.975 329.603,83.573 330.638,85.252 331.902 C 86.930 333.166,89.329 334.830,90.583 335.600 C 93.547 337.420,96.495 339.303,97.000 339.698 C 98.797 341.105,104.944 344.293,112.000 347.477 C 113.210 348.023,114.866 348.814,115.679 349.235 C 116.493 349.656,117.438 350.000,117.781 350.000 C 118.123 350.000,119.075 350.360,119.896 350.800 C 120.716 351.240,121.904 351.600,122.534 351.600 C 123.164 351.600,124.246 351.858,124.940 352.173 C 126.091 352.696,128.891 353.388,134.200 354.463 C 135.300 354.686,137.370 355.131,138.800 355.452 C 140.230 355.774,143.560 356.213,146.200 356.427 C 148.840 356.641,151.755 356.993,152.677 357.208 C 154.833 357.712,173.113 357.721,174.640 357.219 C 175.278 357.010,178.614 356.653,182.054 356.427 C 185.494 356.200,188.777 355.837,189.349 355.619 C 189.921 355.402,191.967 355.033,193.895 354.799 C 195.823 354.565,198.210 354.122,199.200 353.814 C 200.190 353.506,201.972 353.132,203.161 352.981 C 204.350 352.831,205.880 352.482,206.561 352.206 C 207.242 351.929,208.733 351.585,209.874 351.441 C 211.015 351.297,212.455 350.915,213.074 350.592 C 213.693 350.269,214.560 349.998,215.000 349.989 C 215.440 349.980,216.520 349.625,217.400 349.200 C 218.280 348.775,219.270 348.415,219.600 348.400 C 219.930 348.385,220.920 348.025,221.800 347.600 C 222.680 347.175,223.681 346.821,224.024 346.814 C 224.366 346.806,224.996 346.533,225.424 346.206 C 225.851 345.880,226.920 345.422,227.800 345.188 C 229.409 344.760,230.285 344.412,233.600 342.888 C 234.590 342.433,235.850 341.933,236.400 341.776 C 236.950 341.620,237.490 341.367,237.600 341.215 C 237.710 341.062,238.430 340.612,239.200 340.214 C 243.628 337.925,246.789 336.235,248.200 335.401 C 249.080 334.881,250.340 334.173,251.000 333.828 C 251.660 333.484,252.666 332.886,253.236 332.501 C 253.806 332.115,255.066 331.262,256.036 330.605 C 257.006 329.947,258.250 329.177,258.800 328.893 C 260.561 327.985,263.247 326.260,265.000 324.911 C 266.834 323.500,266.853 323.486,269.200 321.890 C 272.809 319.435,273.375 319.030,273.929 318.503 C 274.219 318.226,274.597 318.000,274.767 318.000 C 274.938 318.000,275.467 317.685,275.943 317.300 C 276.418 316.915,277.277 316.240,277.851 315.800 C 278.425 315.360,279.194 314.725,279.559 314.388 C 280.108 313.883,281.697 312.723,284.591 310.716 C 284.816 310.560,286.462 309.210,288.249 307.716 C 290.036 306.222,291.911 304.730,292.416 304.400 C 292.921 304.070,294.249 302.988,295.367 301.996 C 296.485 301.003,298.750 299.123,300.400 297.818 C 302.050 296.513,304.319 294.570,305.443 293.500 C 306.567 292.430,307.906 291.261,308.419 290.902 C 308.932 290.543,309.646 289.968,310.006 289.624 C 310.365 289.281,312.173 287.650,314.021 286.000 C 315.870 284.350,318.033 282.370,318.827 281.600 C 319.622 280.830,321.426 279.179,322.836 277.932 C 324.246 276.685,327.200 273.920,329.400 271.788 C 331.600 269.655,333.760 267.611,334.200 267.245 C 337.458 264.534,338.664 262.629,338.921 259.787 C 339.059 258.254,339.718 255.132,340.386 252.848 L 341.600 248.697 341.600 232.922 C 341.600 222.813,341.451 216.870,341.186 216.374 C 340.575 215.233,338.273 215.327,337.325 216.532 C 336.922 217.045,336.346 217.382,336.046 217.282 C 335.722 217.174,335.573 217.318,335.679 217.636 C 335.777 217.931,335.349 218.599,334.729 219.121 C 334.108 219.644,333.600 220.415,333.600 220.836 C 333.600 221.321,333.321 221.600,332.836 221.600 C 332.415 221.600,331.644 222.108,331.121 222.729 C 330.599 223.349,329.924 223.775,329.622 223.674 C 329.279 223.560,329.153 223.700,329.286 224.048 C 329.553 224.742,328.766 225.522,328.041 225.280 C 327.722 225.174,327.573 225.319,327.679 225.636 C 327.777 225.931,327.349 226.599,326.729 227.121 C 326.108 227.644,325.600 228.415,325.600 228.836 C 325.600 229.324,325.321 229.600,324.829 229.600 C 324.405 229.600,323.704 230.050,323.271 230.600 C 322.839 231.150,322.177 231.600,321.800 231.600 C 321.368 231.600,321.196 231.813,321.335 232.175 C 321.479 232.551,321.252 232.793,320.678 232.875 C 320.195 232.944,319.622 233.405,319.405 233.900 C 319.188 234.395,318.783 234.800,318.505 234.800 C 318.227 234.800,318.000 235.015,318.000 235.278 C 318.000 235.935,315.971 238.000,315.325 238.000 C 315.036 238.000,314.796 238.225,314.791 238.500 C 314.787 238.775,314.202 239.272,313.491 239.604 C 312.781 239.936,312.245 240.431,312.300 240.704 C 312.355 240.977,312.175 241.155,311.900 241.100 C 311.625 241.045,311.400 241.270,311.400 241.600 C 311.400 241.930,311.081 242.331,310.691 242.491 C 310.300 242.650,309.850 243.100,309.691 243.491 C 309.531 243.881,309.130 244.200,308.800 244.200 C 308.470 244.200,308.225 244.515,308.256 244.900 C 308.305 245.521,307.947 245.765,307.142 245.662 C 307.001 245.643,305.021 247.419,302.742 249.609 C 300.464 251.798,298.407 253.591,298.172 253.594 C 297.755 253.600,296.368 255.001,295.990 255.800 C 295.885 256.020,295.665 256.155,295.500 256.100 C 295.335 256.045,295.200 256.180,295.200 256.400 C 295.200 256.620,294.913 256.800,294.563 256.800 C 294.212 256.800,293.831 257.160,293.716 257.600 C 293.601 258.040,293.241 258.400,292.916 258.400 C 292.591 258.400,292.231 258.760,292.116 259.200 C 292.001 259.640,291.729 260.000,291.511 260.000 C 291.294 260.000,290.581 260.450,289.927 261.000 C 289.273 261.550,288.482 262.000,288.169 262.000 C 287.856 262.000,287.600 262.270,287.600 262.600 C 287.600 262.930,287.340 263.200,287.023 263.200 C 286.705 263.200,286.207 263.515,285.917 263.900 C 285.626 264.285,285.031 264.829,284.594 265.109 C 284.157 265.389,283.215 265.992,282.500 266.449 C 281.785 266.905,281.200 267.531,281.200 267.840 C 281.200 268.148,280.970 268.400,280.689 268.400 C 280.138 268.400,278.800 269.786,278.800 270.357 C 278.800 270.548,277.983 270.911,276.984 271.162 C 275.985 271.414,275.065 271.885,274.941 272.210 C 274.816 272.534,274.468 272.800,274.166 272.800 C 273.865 272.800,273.320 273.256,272.955 273.812 C 272.590 274.369,272.207 274.740,272.103 274.637 C 272.000 274.533,271.533 274.804,271.065 275.240 C 270.598 275.675,269.807 276.134,269.308 276.259 C 268.809 276.384,268.400 276.737,268.400 277.043 C 268.400 277.350,268.175 277.614,267.900 277.631 C 266.582 277.711,265.783 278.009,265.372 278.571 C 264.968 279.122,263.925 279.486,262.500 279.570 C 262.225 279.587,262.000 279.870,262.000 280.200 C 262.000 280.573,261.622 280.800,261.000 280.800 C 260.450 280.800,260.000 280.974,260.000 281.187 C 260.000 281.401,259.699 281.459,259.331 281.318 C 258.823 281.123,258.723 281.223,258.918 281.731 C 259.123 282.264,258.933 282.400,257.987 282.400 C 257.332 282.400,256.440 282.760,255.997 283.203 C 255.555 283.645,254.843 284.059,254.415 284.125 C 253.986 284.190,253.298 284.549,252.886 284.922 C 252.447 285.319,251.481 285.600,250.553 285.600 C 249.682 285.600,248.263 285.960,247.400 286.400 C 246.537 286.840,245.059 287.200,244.115 287.200 C 243.172 287.200,242.400 287.374,242.400 287.587 C 242.400 287.801,242.130 287.871,241.800 287.745 C 241.420 287.599,241.200 287.750,241.200 288.157 C 241.200 288.783,239.574 289.032,236.900 288.816 C 236.405 288.776,236.000 288.930,236.000 289.159 C 236.000 289.388,235.699 289.459,235.331 289.318 C 234.823 289.123,234.723 289.223,234.918 289.731 C 235.146 290.325,228.102 290.861,225.826 290.423 C 225.083 290.279,223.572 290.831,223.781 291.170 C 224.406 292.180,216.437 292.409,215.604 291.404 C 215.332 291.077,214.950 290.907,214.755 291.028 C 214.560 291.149,214.400 291.067,214.400 290.847 C 214.400 290.616,213.177 290.454,211.500 290.463 C 203.888 290.505,203.209 290.443,203.482 289.731 C 203.677 289.223,203.577 289.123,203.069 289.318 C 202.701 289.459,202.400 289.424,202.400 289.240 C 202.400 289.055,201.294 288.880,199.942 288.849 C 198.166 288.809,197.349 288.610,197.001 288.133 C 196.683 287.699,195.793 287.430,194.401 287.346 C 193.149 287.271,191.986 286.950,191.554 286.558 C 191.044 286.097,189.944 285.866,187.912 285.794 C 186.310 285.737,184.460 285.509,183.800 285.287 C 183.140 285.065,181.340 284.479,179.800 283.985 C 178.260 283.491,176.756 282.894,176.457 282.659 C 175.828 282.163,174.622 281.440,173.200 280.707 C 170.600 279.365,168.585 277.723,164.162 273.342 C 161.529 270.734,159.111 268.170,158.788 267.645 C 158.464 267.119,157.692 266.129,157.070 265.445 C 155.734 263.972,152.325 258.857,151.309 256.800 C 151.037 256.250,150.603 255.440,150.344 255.000 C 149.746 253.982,149.644 253.788,147.220 249.059 C 146.109 246.891,145.200 244.938,145.200 244.719 C 145.200 244.500,144.939 243.754,144.621 243.060 C 143.858 241.400,142.460 237.392,141.969 235.458 C 141.753 234.610,141.336 233.440,141.042 232.858 C 140.748 232.276,140.381 231.103,140.226 230.251 C 140.072 229.399,139.779 228.409,139.576 228.051 C 139.204 227.396,138.317 223.990,137.504 220.097 C 136.937 217.382,137.824 216.259,141.068 215.586 C 142.257 215.339,143.718 214.882,144.315 214.571 C 144.912 214.260,145.850 214.003,146.400 214.000 C 146.950 213.997,147.928 213.720,148.574 213.383 C 149.219 213.046,150.389 212.610,151.174 212.413 C 151.958 212.215,153.410 211.782,154.400 211.450 C 155.390 211.118,157.550 210.470,159.200 210.009 C 164.196 208.615,167.701 207.522,169.674 206.741 C 170.705 206.334,171.758 206.000,172.014 206.000 C 172.270 206.000,173.046 205.738,173.740 205.418 C 174.433 205.098,175.720 204.575,176.600 204.257 C 177.480 203.938,179.460 203.200,181.000 202.617 C 182.540 202.034,184.376 201.380,185.080 201.165 C 185.784 200.950,186.864 200.511,187.480 200.189 C 188.096 199.868,188.850 199.604,189.156 199.602 C 189.462 199.601,190.542 199.221,191.556 198.757 C 195.945 196.750,201.977 194.154,206.000 192.540 C 207.870 191.790,209.940 190.929,210.600 190.627 C 211.260 190.325,212.250 189.881,212.800 189.642 C 213.350 189.402,214.070 189.044,214.400 188.846 C 214.730 188.648,215.450 188.288,216.000 188.046 C 216.550 187.804,217.270 187.431,217.600 187.218 C 218.617 186.561,222.651 184.800,223.139 184.800 C 223.392 184.800,223.600 184.623,223.600 184.408 C 223.600 184.192,224.095 183.892,224.700 183.742 C 225.864 183.453,232.183 180.247,233.200 179.429 C 233.530 179.164,234.970 178.362,236.400 177.648 C 237.830 176.933,240.188 175.685,241.641 174.874 C 243.093 174.063,244.893 173.060,245.641 172.644 C 246.388 172.228,247.090 171.778,247.200 171.643 C 247.469 171.314,250.224 169.526,252.200 168.400 C 253.831 167.470,256.678 165.655,257.400 165.084 C 257.620 164.910,260.050 163.156,262.800 161.187 C 267.461 157.849,270.055 155.847,271.593 154.400 C 272.358 153.680,274.467 151.913,276.845 150.000 C 277.801 149.230,279.128 147.987,279.792 147.239 C 280.456 146.490,281.527 145.410,282.171 144.839 C 284.242 143.002,286.809 140.143,288.934 137.308 C 289.410 136.672,290.303 135.623,290.917 134.976 C 293.008 132.774,298.800 123.878,298.800 122.868 C 298.800 122.679,299.160 122.198,299.600 121.800 C 300.040 121.402,300.400 120.856,300.400 120.587 C 300.400 120.318,300.658 119.883,300.974 119.621 C 301.290 119.359,301.671 118.587,301.821 117.906 C 301.970 117.224,302.431 116.112,302.845 115.433 C 303.259 114.755,303.599 113.930,303.601 113.600 C 303.603 113.270,303.856 112.519,304.163 111.931 C 304.469 111.343,304.919 109.934,305.163 108.800 C 305.406 107.666,305.786 106.399,306.008 105.984 C 306.230 105.570,306.666 104.008,306.975 102.515 C 307.285 101.022,307.759 98.990,308.028 98.000 C 308.935 94.662,308.711 76.442,307.716 72.600 C 307.260 70.840,306.765 68.703,306.616 67.851 C 306.467 66.999,306.186 66.009,305.991 65.651 C 305.796 65.293,305.370 64.100,305.045 63.000 C 303.853 58.978,302.988 56.910,299.867 50.619 C 296.723 44.282,295.711 41.600,296.466 41.600 C 296.676 41.600,296.734 41.417,296.596 41.193 C 296.458 40.970,296.132 40.909,295.872 41.058 C 295.613 41.206,295.538 41.177,295.706 40.992 C 296.108 40.549,293.996 38.355,293.477 38.676 C 293.250 38.816,293.201 38.723,293.364 38.459 C 293.525 38.198,293.372 37.887,293.015 37.750 C 292.665 37.616,291.308 36.492,289.999 35.253 C 286.068 31.531,283.488 29.620,282.375 29.607 C 282.032 29.603,281.364 29.240,280.892 28.800 C 280.420 28.360,279.889 28.000,279.713 28.000 C 279.537 28.000,279.168 27.640,278.893 27.200 C 278.618 26.760,278.063 26.400,277.659 26.400 C 277.255 26.400,276.598 26.040,276.200 25.600 C 275.802 25.160,275.082 24.800,274.600 24.800 C 274.118 24.800,273.398 24.440,273.000 24.000 C 272.602 23.560,271.899 23.194,271.438 23.187 C 270.977 23.180,270.251 22.910,269.824 22.587 C 268.789 21.805,267.847 21.824,268.153 22.621 C 268.289 22.977,268.222 23.137,267.995 22.997 C 267.778 22.863,267.600 22.523,267.600 22.243 C 267.600 21.931,267.077 21.733,266.248 21.733 C 265.467 21.733,264.430 21.367,263.794 20.867 C 263.146 20.357,262.122 20.000,261.309 20.000 C 260.532 20.000,259.481 19.650,258.909 19.200 C 258.172 18.620,257.286 18.400,255.690 18.400 C 254.054 18.400,253.357 18.220,252.977 17.700 C 252.557 17.124,251.696 16.976,248.133 16.865 C 244.955 16.765,243.617 16.566,243.115 16.116 C 242.738 15.779,242.159 15.607,241.828 15.734 C 241.497 15.861,241.119 15.793,240.989 15.583 C 240.499 14.790,218.405 15.100,218.368 15.900 M214.472 49.177 C 220.387 50.146,227.975 55.963,230.755 61.661 C 233.775 67.849,234.465 74.967,232.267 77.265 C 231.093 78.491,230.835 80.797,231.870 80.806 C 232.278 80.810,232.424 80.942,232.200 81.106 C 231.518 81.608,231.500 83.187,232.174 83.446 C 233.030 83.774,233.040 89.049,232.187 90.176 C 231.523 91.054,231.390 93.200,232.000 93.200 C 232.220 93.200,232.400 93.650,232.400 94.200 C 232.400 94.823,232.173 95.200,231.799 95.200 C 231.299 95.200,231.208 95.896,231.257 99.326 C 231.302 102.557,231.172 103.671,230.656 104.458 C 230.294 105.011,229.990 105.899,229.981 106.432 C 229.915 110.215,229.453 113.061,228.762 113.939 C 228.343 114.472,228.000 115.514,228.000 116.254 C 228.000 117.067,227.683 117.917,227.200 118.400 C 226.760 118.840,226.400 119.585,226.400 120.056 C 226.400 120.527,226.110 121.124,225.756 121.383 C 225.402 121.642,225.042 122.452,224.957 123.184 C 224.872 123.916,224.623 124.731,224.405 124.995 C 224.186 125.258,224.140 125.607,224.303 125.770 C 224.467 125.933,224.334 126.007,224.009 125.933 C 223.638 125.850,223.364 126.167,223.270 126.787 C 223.189 127.329,222.779 128.209,222.361 128.741 C 221.942 129.273,221.600 130.184,221.600 130.766 C 221.600 131.365,221.253 132.074,220.800 132.400 C 220.360 132.717,220.000 133.207,220.000 133.488 C 220.000 133.770,219.838 134.000,219.640 134.000 C 219.306 134.000,218.139 135.639,216.878 137.874 C 216.591 138.383,216.176 138.800,215.955 138.800 C 215.734 138.800,215.664 138.980,215.800 139.200 C 215.936 139.420,215.857 139.600,215.624 139.600 C 215.391 139.600,215.200 139.813,215.200 140.074 C 215.200 140.335,214.795 140.994,214.300 141.539 C 213.805 142.083,213.653 142.382,213.962 142.203 C 214.351 141.977,214.431 142.026,214.223 142.363 C 214.058 142.630,213.471 143.021,212.920 143.230 C 212.269 143.478,211.999 143.819,212.147 144.206 C 212.272 144.533,212.175 144.800,211.930 144.800 C 211.316 144.800,208.809 147.286,208.804 147.900 C 208.802 148.175,208.550 148.400,208.243 148.400 C 207.937 148.400,207.575 148.844,207.439 149.386 C 207.260 150.100,207.008 150.301,206.526 150.116 C 206.025 149.924,205.924 150.025,206.116 150.526 C 206.301 151.008,206.100 151.260,205.386 151.439 C 204.844 151.575,204.400 151.937,204.400 152.243 C 204.400 152.550,204.226 152.800,204.013 152.800 C 203.429 152.800,200.800 155.324,200.800 155.885 C 200.800 156.154,200.533 156.272,200.206 156.147 C 199.819 155.999,199.478 156.269,199.230 156.920 C 199.021 157.471,198.630 158.058,198.363 158.223 C 198.026 158.431,197.977 158.351,198.203 157.962 C 198.382 157.653,198.095 157.784,197.565 158.254 C 197.034 158.724,196.204 159.228,195.720 159.374 C 195.237 159.521,194.736 159.971,194.608 160.374 C 194.480 160.777,194.066 161.083,193.688 161.054 C 193.310 161.024,193.049 161.238,193.110 161.530 C 193.170 161.821,193.046 161.952,192.834 161.821 C 192.623 161.690,192.264 161.902,192.037 162.292 C 191.810 162.681,191.619 162.886,191.612 162.746 C 191.605 162.607,190.835 163.192,189.900 164.046 C 188.965 164.901,187.910 165.600,187.554 165.600 C 187.199 165.600,186.397 166.002,185.773 166.493 C 185.148 166.984,184.359 167.389,184.019 167.393 C 183.678 167.397,183.449 167.638,183.510 167.930 C 183.570 168.221,183.448 168.353,183.238 168.223 C 183.027 168.093,182.742 168.170,182.604 168.393 C 182.466 168.617,182.005 168.800,181.580 168.800 C 181.155 168.800,180.582 169.160,180.307 169.600 C 180.032 170.040,179.491 170.400,179.104 170.400 C 178.717 170.400,178.400 170.574,178.400 170.787 C 178.400 171.001,178.099 171.059,177.731 170.918 C 177.223 170.723,177.123 170.823,177.318 171.331 C 177.506 171.820,177.358 172.000,176.771 172.000 C 176.328 172.000,175.603 172.339,175.158 172.753 C 174.714 173.167,173.644 173.619,172.780 173.757 C 171.054 174.033,168.033 175.459,167.392 176.301 C 167.168 176.595,166.595 176.865,166.120 176.901 C 165.644 176.937,165.288 177.092,165.328 177.245 C 165.494 177.888,160.034 182.462,157.810 183.543 C 154.131 185.332,152.532 186.000,151.934 186.000 C 151.634 186.000,150.716 186.360,149.896 186.800 C 149.075 187.240,148.025 187.600,147.563 187.600 C 147.101 187.600,146.246 187.868,145.662 188.197 C 142.259 190.109,135.544 191.384,134.480 190.320 C 133.913 189.753,133.862 180.531,134.390 174.000 C 134.577 171.690,134.932 167.100,135.179 163.800 C 135.427 160.500,135.810 156.540,136.032 155.000 C 136.255 153.460,136.674 150.310,136.964 148.000 C 137.443 144.180,137.809 142.250,139.198 136.200 C 139.451 135.100,139.847 133.300,140.079 132.200 C 140.311 131.100,140.838 129.357,141.250 128.326 C 141.663 127.295,142.001 125.945,142.002 125.326 C 142.004 124.707,142.267 123.698,142.587 123.083 C 142.908 122.469,143.344 121.119,143.558 120.083 C 144.311 116.429,147.032 109.082,149.248 104.721 C 149.662 103.907,150.000 102.984,150.000 102.670 C 150.000 102.355,150.258 101.883,150.574 101.621 C 150.890 101.359,151.272 100.584,151.422 99.898 C 151.725 98.519,154.591 92.908,156.581 89.800 C 157.285 88.700,158.206 87.260,158.629 86.600 C 159.051 85.940,159.628 84.950,159.910 84.400 C 160.918 82.433,161.535 81.503,164.448 77.558 C 169.587 70.597,171.135 68.753,175.318 64.608 C 180.696 59.279,184.662 56.161,188.866 53.958 C 194.742 50.879,197.855 49.653,200.941 49.201 C 203.951 48.761,211.845 48.746,214.472 49.177 " stroke="none" fill="#0454a3" fill-rule="evenodd"></path><path id="path2" d="M296.800 41.951 C 296.800 42.198,296.991 42.400,297.224 42.400 C 297.457 42.400,297.544 42.568,297.417 42.772 C 297.291 42.977,297.370 43.258,297.593 43.396 C 297.817 43.534,298.000 44.030,298.000 44.498 C 298.000 44.966,298.345 45.720,298.767 46.174 C 299.530 46.996,302.398 52.434,302.402 53.068 C 302.404 53.250,302.691 53.940,303.041 54.600 C 304.071 56.542,306.810 64.222,307.804 67.950 C 308.663 71.177,309.108 73.933,310.036 81.800 C 310.947 89.521,308.136 106.122,304.617 113.800 C 304.315 114.460,303.578 116.157,302.979 117.572 C 295.469 135.319,276.544 154.476,250.200 170.998 C 248.880 171.826,247.170 172.912,246.400 173.411 C 245.630 173.911,243.650 175.039,242.000 175.918 C 240.350 176.798,237.272 178.497,235.160 179.696 C 231.046 182.029,228.282 183.393,217.000 188.659 C 213.040 190.507,209.260 192.272,208.600 192.582 C 204.160 194.662,192.337 199.507,184.200 202.581 C 182.660 203.162,180.770 203.877,180.000 204.169 C 176.910 205.339,174.099 206.347,172.200 206.966 C 171.100 207.325,168.310 208.260,166.000 209.044 C 163.690 209.828,159.370 211.189,156.400 212.069 C 153.430 212.948,149.830 214.022,148.400 214.454 C 146.970 214.886,144.818 215.516,143.617 215.854 C 141.522 216.444,138.400 217.837,138.400 218.182 C 138.400 218.699,139.723 224.532,140.264 226.400 C 142.414 233.826,142.942 235.529,143.442 236.660 C 143.749 237.354,144.000 238.056,144.000 238.222 C 144.000 239.698,151.598 256.016,153.037 257.631 C 153.347 257.979,153.600 258.386,153.600 258.536 C 153.600 259.205,159.921 267.575,162.560 270.400 C 168.036 276.262,175.606 281.622,180.109 282.826 C 181.039 283.075,181.980 283.416,182.200 283.585 C 182.420 283.753,182.924 283.885,183.319 283.879 C 184.625 283.857,183.101 282.798,181.372 282.526 C 180.508 282.390,179.656 282.036,179.480 281.739 C 179.304 281.443,178.833 281.200,178.434 281.200 C 178.035 281.200,177.279 280.865,176.754 280.455 C 176.229 280.045,175.364 279.573,174.831 279.406 C 174.298 279.239,173.668 278.947,173.431 278.759 C 173.194 278.570,171.650 277.358,170.000 276.067 C 166.347 273.207,162.412 269.324,160.379 266.571 C 159.546 265.444,158.621 264.270,158.324 263.961 C 157.386 262.989,153.236 256.717,152.394 255.000 C 152.178 254.560,151.836 253.930,151.632 253.600 C 151.429 253.270,150.333 251.020,149.197 248.600 C 148.061 246.180,146.877 243.722,146.566 243.138 C 146.255 242.554,146.000 241.854,146.000 241.582 C 146.000 241.310,145.667 240.348,145.260 239.444 C 144.325 237.370,143.169 233.721,141.822 228.600 C 141.244 226.400,140.503 223.610,140.176 222.400 C 139.346 219.328,139.307 218.362,140.000 217.997 C 140.990 217.476,143.684 216.531,145.600 216.033 C 148.246 215.345,152.147 214.212,156.000 213.012 C 157.870 212.430,160.042 211.791,160.826 211.592 C 161.611 211.392,162.781 210.954,163.426 210.617 C 164.072 210.280,164.963 210.004,165.406 210.002 C 165.849 210.001,166.884 209.640,167.704 209.200 C 168.525 208.760,169.570 208.400,170.025 208.400 C 170.480 208.400,171.237 208.194,171.708 207.942 C 172.178 207.691,173.381 207.249,174.382 206.960 C 177.425 206.083,180.941 204.815,182.062 204.191 C 182.646 203.866,183.346 203.600,183.618 203.600 C 183.890 203.600,184.852 203.264,185.756 202.854 C 190.297 200.793,191.268 200.400,191.812 200.400 C 192.137 200.400,193.075 200.040,193.896 199.600 C 194.716 199.160,195.593 198.800,195.844 198.800 C 196.263 198.800,198.893 197.728,202.400 196.130 C 203.170 195.779,204.565 195.156,205.500 194.746 C 206.435 194.336,207.965 193.655,208.900 193.234 C 209.835 192.813,211.770 191.977,213.200 191.377 C 216.568 189.965,231.668 182.514,235.800 180.226 C 237.560 179.251,239.540 178.176,240.200 177.835 C 240.860 177.495,241.670 177.042,242.000 176.830 C 242.330 176.617,243.950 175.683,245.600 174.755 C 248.168 173.309,251.701 171.083,259.400 166.057 C 260.280 165.483,261.921 164.290,263.046 163.407 C 264.172 162.523,265.500 161.530,265.999 161.200 C 269.475 158.899,277.864 151.701,283.017 146.600 C 287.931 141.735,296.400 131.647,296.400 130.659 C 296.400 130.563,297.381 129.036,298.580 127.264 C 300.639 124.224,303.145 119.340,305.182 114.400 C 305.681 113.190,306.340 111.607,306.647 110.882 C 306.953 110.158,307.376 108.898,307.585 108.082 C 307.795 107.267,308.247 105.610,308.589 104.400 C 312.106 91.961,311.066 69.829,306.575 61.538 C 306.259 60.954,306.000 60.164,306.000 59.782 C 306.000 59.128,305.761 58.537,303.650 53.956 C 303.182 52.942,302.800 51.890,302.800 51.619 C 302.800 51.348,302.440 50.669,302.000 50.109 C 301.560 49.550,301.200 48.840,301.200 48.533 C 301.200 48.225,300.593 47.367,299.852 46.625 C 299.077 45.850,298.392 44.682,298.241 43.879 C 297.990 42.541,296.800 40.949,296.800 41.951 M202.445 50.051 C 199.044 50.616,193.368 52.666,190.390 54.406 C 188.889 55.283,187.550 56.000,187.414 56.000 C 184.097 56.000,166.657 74.723,161.356 83.975 C 161.033 84.539,160.370 85.662,159.884 86.471 C 146.892 108.079,140.213 129.023,136.627 159.400 C 135.930 165.297,135.055 182.876,135.263 186.800 L 135.400 189.400 137.200 189.344 C 142.586 189.175,159.325 182.393,162.786 178.978 C 163.810 177.967,162.563 178.357,161.438 179.400 C 160.844 179.950,160.126 180.400,159.841 180.400 C 159.557 180.400,158.998 180.760,158.600 181.200 C 158.202 181.640,157.589 182.001,157.238 182.003 C 156.887 182.004,156.060 182.363,155.400 182.800 C 154.740 183.237,153.835 183.596,153.389 183.597 C 152.943 183.599,152.223 183.843,151.789 184.140 C 151.355 184.437,150.460 184.807,149.800 184.963 C 149.140 185.118,146.043 186.067,142.917 187.072 C 139.792 188.077,136.944 188.787,136.589 188.651 C 135.768 188.336,136.109 167.249,137.011 162.600 C 137.309 161.060,137.662 158.180,137.794 156.200 C 137.926 154.220,138.283 151.610,138.588 150.400 C 138.892 149.190,139.312 146.940,139.520 145.400 C 139.728 143.860,140.453 140.080,141.130 137.000 C 143.495 126.250,144.311 122.988,145.029 121.400 C 145.328 120.740,145.686 119.660,145.824 119.000 C 145.962 118.340,146.676 116.270,147.409 114.400 C 148.143 112.530,149.214 109.740,149.790 108.200 C 150.365 106.660,151.169 104.680,151.575 103.800 C 151.981 102.920,152.704 101.300,153.181 100.200 C 153.659 99.100,154.222 97.930,154.433 97.600 C 154.644 97.270,155.095 96.460,155.436 95.800 C 155.776 95.140,156.491 93.880,157.025 93.000 C 157.558 92.120,158.279 90.789,158.627 90.042 C 158.975 89.295,159.516 88.427,159.830 88.113 C 160.143 87.799,160.400 87.391,160.400 87.205 C 160.400 86.880,162.842 83.183,165.821 79.000 C 166.604 77.900,167.730 76.298,168.322 75.440 C 168.915 74.582,169.580 73.625,169.800 73.313 C 182.404 55.443,204.812 46.102,218.897 52.846 C 223.111 54.864,225.020 56.455,227.256 59.813 C 231.141 65.648,232.323 70.173,231.431 75.800 L 231.178 77.400 232.015 75.417 C 232.821 73.508,232.829 73.305,232.252 69.933 C 229.832 55.789,217.486 47.554,202.445 50.051 M340.656 256.323 C 340.258 258.895,339.838 261.582,339.723 262.293 C 339.526 263.511,331.893 271.270,324.222 278.052 C 323.134 279.013,320.794 281.179,319.022 282.864 C 317.250 284.549,315.022 286.570,314.072 287.356 C 313.122 288.141,310.976 290.002,309.304 291.492 C 302.246 297.778,298.326 301.085,292.839 305.378 C 291.168 306.686,289.440 308.101,289.000 308.521 C 287.394 310.057,274.798 319.464,269.600 323.010 C 268.830 323.535,267.210 324.684,266.000 325.563 C 264.790 326.443,262.810 327.732,261.600 328.429 C 260.390 329.126,258.590 330.271,257.600 330.973 C 255.481 332.477,245.179 338.393,240.600 340.736 C 235.424 343.385,230.338 345.537,219.600 349.623 C 218.637 349.989,217.466 350.336,211.400 352.048 C 203.517 354.274,194.515 356.104,186.800 357.048 C 184.050 357.385,180.540 357.816,179.000 358.006 C 175.262 358.466,152.535 358.461,149.000 357.999 C 137.540 356.501,132.474 355.596,127.800 354.212 C 121.066 352.217,118.486 351.386,117.600 350.925 C 117.050 350.639,116.391 350.404,116.136 350.402 C 114.707 350.395,100.700 343.436,95.270 340.035 C 91.575 337.721,86.326 334.316,85.800 333.892 C 84.194 332.597,80.341 330.000,80.026 330.000 C 79.814 330.000,79.496 329.766,79.320 329.480 C 79.144 329.194,78.370 328.547,77.600 328.043 L 76.200 327.127 77.400 328.211 C 80.622 331.121,81.137 331.526,81.938 331.780 C 82.412 331.931,82.800 332.312,82.800 332.627 C 82.800 332.942,82.988 333.200,83.217 333.200 C 83.446 333.200,84.571 333.887,85.717 334.727 C 86.863 335.567,88.115 336.372,88.500 336.515 C 88.885 336.658,89.200 336.939,89.200 337.139 C 89.200 337.339,89.785 337.739,90.500 338.028 C 91.215 338.317,91.944 338.789,92.120 339.077 C 92.296 339.364,92.791 339.600,93.220 339.600 C 93.649 339.600,94.000 339.762,94.000 339.960 C 94.000 340.476,99.731 343.860,103.600 345.628 C 104.150 345.880,104.870 346.248,105.200 346.448 C 105.530 346.647,106.520 347.143,107.400 347.549 C 108.280 347.956,110.207 348.853,111.683 349.544 C 113.159 350.235,114.599 350.806,114.883 350.814 C 115.167 350.821,116.120 351.175,117.000 351.600 C 117.880 352.025,118.965 352.379,119.411 352.386 C 119.857 352.394,120.599 352.664,121.060 352.987 C 121.521 353.310,122.686 353.695,123.649 353.843 C 124.612 353.990,125.857 354.341,126.415 354.622 C 126.974 354.903,128.324 355.322,129.415 355.554 C 130.507 355.785,132.570 356.239,134.000 356.562 C 144.906 359.028,174.010 360.132,183.600 358.443 C 184.810 358.229,187.960 357.765,190.600 357.410 C 195.568 356.742,202.107 355.454,204.200 354.731 C 204.860 354.503,206.365 354.150,207.544 353.946 C 208.723 353.742,210.199 353.311,210.824 352.988 C 211.449 352.664,212.431 352.400,213.006 352.400 C 213.582 352.400,214.440 352.193,214.913 351.939 C 215.386 351.686,216.950 351.164,218.387 350.780 C 221.280 350.005,224.264 348.984,225.228 348.438 C 225.574 348.243,227.104 347.591,228.628 346.989 C 230.153 346.388,232.840 345.226,234.600 344.407 C 236.360 343.587,238.250 342.779,238.800 342.610 C 239.350 342.440,239.980 342.164,240.200 341.995 C 240.420 341.826,241.860 341.029,243.400 340.224 C 244.940 339.419,246.830 338.385,247.600 337.926 C 248.370 337.468,250.121 336.485,251.491 335.742 C 252.861 334.999,255.433 333.403,257.206 332.196 C 258.980 330.988,260.494 330.000,260.571 330.000 C 260.648 330.000,262.576 328.742,264.856 327.204 C 270.977 323.074,270.866 323.151,272.667 321.723 C 273.584 320.995,274.457 320.400,274.607 320.400 C 275.104 320.400,292.750 306.810,295.800 304.079 C 296.460 303.488,298.530 301.755,300.400 300.227 C 302.270 298.700,303.980 297.248,304.200 296.999 C 304.420 296.750,305.590 295.754,306.800 294.784 C 308.010 293.815,309.990 292.085,311.200 290.939 C 312.410 289.794,314.120 288.291,315.000 287.598 C 315.880 286.906,317.561 285.367,318.736 284.177 C 319.911 282.988,321.801 281.249,322.936 280.314 C 325.345 278.329,333.272 270.776,337.638 266.304 L 340.675 263.193 341.149 257.541 C 341.733 250.576,341.596 250.239,340.656 256.323 " stroke="none" fill="#042446" fill-rule="evenodd"></path><path id="path3" d="M296.661 42.600 C 297.090 43.862,298.002 45.088,297.991 44.389 C 297.986 44.065,297.624 43.350,297.186 42.800 C 296.545 41.996,296.443 41.956,296.661 42.600 M298.528 46.400 C 299.186 47.382,300.908 50.846,302.902 55.200 C 303.876 57.328,306.486 65.095,307.741 69.600 C 308.078 70.810,308.646 74.410,309.003 77.600 C 309.360 80.790,309.742 83.776,309.853 84.235 C 310.144 85.445,308.469 99.804,307.734 102.400 C 305.252 111.159,304.693 112.828,302.969 116.600 C 302.668 117.260,302.235 118.250,302.008 118.800 C 301.554 119.897,299.166 124.019,296.470 128.361 C 290.427 138.093,278.163 150.609,265.000 160.476 C 260.332 163.976,245.317 173.782,243.571 174.472 C 242.884 174.743,242.139 175.600,242.590 175.600 C 242.834 175.600,243.395 175.269,247.200 172.879 C 248.410 172.118,250.030 171.104,250.800 170.624 C 276.207 154.783,295.558 135.108,302.979 117.572 C 303.578 116.157,304.315 114.460,304.617 113.800 C 308.136 106.122,310.947 89.521,310.036 81.800 C 309.108 73.933,308.663 71.177,307.804 67.950 C 306.839 64.328,303.800 55.736,303.231 55.019 C 303.048 54.789,302.765 54.150,302.602 53.600 C 302.056 51.757,299.552 47.009,298.700 46.200 L 297.857 45.400 298.528 46.400 M202.400 49.573 C 198.972 50.207,194.986 51.588,191.800 53.246 C 190.040 54.162,188.060 55.185,187.400 55.520 C 180.778 58.877,166.707 73.806,161.348 83.159 C 159.619 86.178,159.316 86.684,158.212 88.400 C 155.950 91.917,153.504 96.618,151.032 102.200 C 150.447 103.520,149.802 104.902,149.599 105.271 C 148.256 107.708,143.579 121.082,143.620 122.369 C 143.631 122.716,144.101 121.560,144.665 119.800 C 148.453 107.970,153.175 97.630,159.884 86.471 C 160.370 85.662,161.033 84.539,161.356 83.975 C 165.353 76.998,174.738 65.972,181.400 60.424 C 199.769 45.126,222.214 46.288,230.017 62.940 C 231.876 66.907,233.097 72.601,232.463 74.349 C 232.253 74.927,231.951 75.760,231.792 76.200 L 231.502 77.000 232.100 76.200 C 235.735 71.338,228.746 56.250,221.038 52.317 C 216.028 49.762,207.872 48.561,202.400 49.573 M142.874 124.300 C 142.641 124.905,142.337 126.030,142.199 126.800 C 142.061 127.570,141.700 129.010,141.397 130.000 C 140.111 134.204,137.761 146.048,137.429 150.000 C 137.309 151.430,137.819 149.249,138.562 145.153 C 139.305 141.057,140.051 137.277,140.219 136.753 C 140.388 136.229,140.756 134.720,141.036 133.400 C 141.527 131.090,142.837 125.968,143.415 124.100 C 143.810 122.823,143.381 122.981,142.874 124.300 M136.500 157.045 C 135.820 162.000,135.938 163.884,136.647 159.400 C 136.960 157.420,137.167 155.260,137.108 154.600 C 137.049 153.940,136.775 155.040,136.500 157.045 M135.742 166.600 C 135.741 168.580,135.808 169.440,135.892 168.512 C 135.976 167.584,135.977 165.964,135.895 164.912 C 135.812 163.860,135.743 164.620,135.742 166.600 M135.041 174.700 C 134.386 184.761,134.325 186.506,134.572 188.156 C 134.897 190.323,135.966 190.752,138.753 189.834 C 147.738 186.876,151.183 185.642,150.526 185.618 C 150.265 185.608,147.570 186.429,144.536 187.443 C 141.503 188.457,138.206 189.312,137.210 189.343 L 135.400 189.400 135.509 180.100 C 135.625 170.225,135.458 168.303,135.041 174.700 M240.589 176.148 C 237.583 178.238,215.731 189.123,208.000 192.382 C 206.350 193.078,204.640 193.811,204.200 194.012 C 199.397 196.200,191.570 199.376,183.800 202.288 C 176.367 205.073,173.641 206.175,173.796 206.329 C 173.886 206.419,174.914 206.120,176.080 205.664 C 177.246 205.209,179.460 204.369,181.000 203.799 C 182.540 203.228,184.430 202.513,185.200 202.209 C 185.970 201.906,189.210 200.632,192.400 199.380 C 197.724 197.289,205.676 193.952,208.600 192.582 C 209.260 192.272,213.040 190.507,217.000 188.659 C 228.686 183.205,231.052 182.026,236.548 178.916 C 239.422 177.290,241.855 175.879,241.954 175.780 C 242.374 175.359,241.311 175.646,240.589 176.148 M162.786 178.978 C 161.751 179.999,159.458 181.532,157.299 182.647 C 156.143 183.243,155.270 183.804,155.359 183.892 C 155.569 184.102,159.004 182.253,160.800 180.964 C 162.299 179.888,163.909 178.400,163.575 178.400 C 163.463 178.400,163.108 178.660,162.786 178.978 M152.400 184.800 C 150.537 185.820,151.399 185.820,153.400 184.800 C 154.263 184.360,154.706 184.008,154.385 184.017 C 154.063 184.026,153.170 184.378,152.400 184.800 M169.800 207.414 C 169.140 207.717,168.870 207.966,169.200 207.968 C 169.530 207.970,170.250 207.714,170.800 207.400 C 172.065 206.677,171.389 206.687,169.800 207.414 M166.400 208.600 C 165.094 209.347,165.551 209.355,167.254 208.616 C 167.994 208.294,168.330 208.031,168.000 208.030 C 167.670 208.029,166.950 208.286,166.400 208.600 M160.600 210.278 C 158.840 210.825,156.140 211.628,154.600 212.062 C 153.060 212.497,151.170 213.101,150.400 213.405 C 149.630 213.709,148.370 214.078,147.600 214.226 C 146.830 214.374,145.750 214.754,145.200 215.070 C 144.050 215.732,144.381 215.669,148.400 214.454 C 149.830 214.022,153.430 212.942,156.400 212.054 C 163.776 209.850,165.538 209.251,164.600 209.268 C 164.160 209.277,162.360 209.731,160.600 210.278 M141.036 216.192 C 137.974 217.283,137.804 217.722,138.766 222.046 C 139.989 227.542,141.421 232.554,142.984 236.800 C 144.703 241.471,145.360 243.215,146.077 245.000 C 147.119 247.595,151.905 256.814,152.636 257.631 C 152.946 257.979,153.200 258.419,153.200 258.610 C 153.200 259.967,161.891 270.668,165.959 274.320 C 169.043 277.088,170.428 278.145,173.807 280.308 C 175.472 281.374,179.429 283.199,180.076 283.200 C 180.448 283.200,180.864 283.380,181.000 283.600 C 181.136 283.820,181.517 284.000,181.847 284.000 C 182.989 284.000,182.006 283.297,180.245 282.853 C 175.753 281.722,168.106 276.337,162.560 270.400 C 159.921 267.575,153.600 259.205,153.600 258.536 C 153.600 258.386,153.347 257.979,153.037 257.631 C 151.598 256.016,144.000 239.698,144.000 238.222 C 144.000 238.056,143.749 237.354,143.442 236.660 C 142.942 235.529,142.414 233.826,140.264 226.400 C 139.724 224.536,138.400 218.700,138.400 218.184 C 138.400 217.905,140.919 216.691,142.600 216.160 C 143.480 215.881,143.840 215.649,143.400 215.644 C 142.960 215.639,141.896 215.886,141.036 216.192 M340.264 256.087 C 339.910 257.909,339.519 260.210,339.395 261.200 C 339.210 262.686,338.799 263.384,337.044 265.200 C 332.567 269.830,321.942 279.810,314.047 286.800 C 310.699 289.764,309.574 290.768,307.600 292.552 C 306.830 293.247,304.774 294.983,303.031 296.408 C 301.289 297.834,299.129 299.648,298.231 300.440 C 296.431 302.030,284.823 311.332,283.058 312.600 C 282.445 313.040,280.177 314.750,278.018 316.400 C 265.626 325.868,252.375 334.224,238.000 341.633 C 237.449 341.918,236.119 342.510,232.400 344.131 C 230.766 344.843,222.441 348.084,220.400 348.803 C 217.261 349.908,216.233 350.366,216.852 350.382 C 217.803 350.408,229.010 346.135,234.800 343.539 C 240.573 340.951,253.854 333.632,257.600 330.973 C 258.590 330.271,260.390 329.126,261.600 328.429 C 262.810 327.732,264.790 326.443,266.000 325.563 C 267.210 324.684,268.830 323.535,269.600 323.010 C 274.798 319.464,287.394 310.057,289.000 308.521 C 289.440 308.101,291.168 306.686,292.839 305.378 C 298.326 301.085,302.246 297.778,309.304 291.492 C 310.976 290.002,313.122 288.141,314.072 287.356 C 315.022 286.570,317.250 284.549,319.022 282.864 C 320.794 281.179,323.134 279.013,324.222 278.052 C 333.811 269.575,339.561 263.531,339.808 261.671 C 339.944 260.642,340.323 258.295,340.649 256.455 C 340.976 254.615,341.167 253.034,341.075 252.942 C 340.983 252.850,340.618 254.265,340.264 256.087 M79.093 329.200 C 79.470 329.640,79.921 330.000,80.095 330.000 C 80.357 330.000,84.358 332.730,85.800 333.892 C 86.326 334.316,91.575 337.721,95.270 340.035 C 100.700 343.436,114.707 350.395,116.136 350.402 C 116.391 350.404,117.050 350.639,117.600 350.925 C 118.486 351.386,121.066 352.217,127.800 354.212 C 132.474 355.596,137.540 356.501,149.000 357.999 C 152.535 358.461,175.262 358.466,179.000 358.006 C 180.540 357.816,184.050 357.385,186.800 357.048 C 194.219 356.140,199.340 355.119,211.040 352.217 C 212.382 351.884,214.092 351.329,214.840 350.984 C 216.329 350.296,216.432 350.275,210.000 351.977 C 204.093 353.539,198.909 354.733,196.800 355.017 C 195.810 355.150,193.830 355.504,192.400 355.804 C 190.970 356.104,187.730 356.541,185.200 356.775 C 182.670 357.009,179.520 357.380,178.200 357.598 C 174.475 358.215,152.914 358.100,148.400 357.439 C 146.310 357.134,143.520 356.768,142.200 356.626 C 134.865 355.839,121.603 352.302,113.800 349.052 C 108.901 347.012,99.439 342.145,95.668 339.725 C 93.675 338.446,90.910 336.689,89.522 335.820 C 88.135 334.951,86.170 333.601,85.156 332.820 C 84.141 332.039,82.909 331.130,82.418 330.800 C 81.927 330.470,80.967 329.795,80.285 329.300 C 78.748 328.185,78.183 328.138,79.093 329.200 " stroke="none" fill="#043366" fill-rule="evenodd"></path><path id="path4" d="M217.000 15.472 C 217.440 15.593,217.949 15.897,218.130 16.146 C 218.349 16.446,218.406 16.396,218.299 16.000 C 218.210 15.670,217.701 15.367,217.169 15.326 C 216.405 15.268,216.369 15.299,217.000 15.472 M205.100 17.232 C 204.715 17.456,204.403 17.856,204.406 18.120 C 204.410 18.452,204.503 18.466,204.706 18.166 C 204.868 17.927,205.360 17.527,205.800 17.278 C 206.240 17.028,206.420 16.824,206.200 16.824 C 205.980 16.824,205.485 17.008,205.100 17.232 M154.095 36.266 C 153.818 36.378,153.403 36.859,153.173 37.335 C 152.816 38.076,152.833 38.114,153.296 37.600 C 153.593 37.270,154.089 36.775,154.398 36.500 C 154.987 35.976,154.929 35.931,154.095 36.266 M295.339 39.932 C 295.703 40.335,295.911 40.755,295.801 40.866 C 295.690 40.976,295.873 41.067,296.207 41.067 C 296.673 41.067,296.610 40.849,295.937 40.133 C 294.909 39.039,294.365 38.856,295.339 39.932 M296.409 42.901 C 296.404 43.287,297.897 46.625,299.726 50.320 C 302.983 56.898,303.849 58.963,305.045 63.000 C 305.370 64.100,305.796 65.293,305.991 65.651 C 306.186 66.009,306.467 66.999,306.616 67.851 C 306.765 68.703,307.260 70.840,307.716 72.600 C 308.711 76.442,308.935 94.662,308.028 98.000 C 307.759 98.990,307.285 101.022,306.975 102.515 C 306.666 104.008,306.230 105.570,306.008 105.984 C 305.786 106.399,305.406 107.666,305.163 108.800 C 304.919 109.934,304.469 111.343,304.163 111.931 C 303.856 112.519,303.603 113.270,303.601 113.600 C 303.599 113.930,303.259 114.755,302.845 115.433 C 302.431 116.112,301.970 117.224,301.821 117.906 C 301.671 118.587,301.290 119.359,300.974 119.621 C 300.658 119.883,300.400 120.318,300.400 120.587 C 300.400 120.856,300.040 121.402,299.600 121.800 C 299.160 122.198,298.800 122.679,298.800 122.868 C 298.800 123.878,293.008 132.774,290.917 134.976 C 290.303 135.623,289.410 136.672,288.934 137.308 C 286.809 140.143,284.242 143.002,282.171 144.839 C 281.527 145.410,280.456 146.490,279.792 147.239 C 279.128 147.987,277.801 149.230,276.845 150.000 C 274.467 151.913,272.358 153.680,271.593 154.400 C 270.055 155.847,267.461 157.849,262.800 161.187 C 260.050 163.156,257.620 164.910,257.400 165.084 C 256.678 165.655,253.831 167.470,252.200 168.400 C 250.224 169.526,247.469 171.314,247.200 171.643 C 247.090 171.778,246.388 172.228,245.641 172.644 C 244.893 173.060,243.093 174.063,241.641 174.874 C 240.188 175.685,237.830 176.933,236.400 177.648 C 234.970 178.362,233.530 179.164,233.200 179.429 C 232.183 180.247,225.864 183.453,224.700 183.742 C 224.095 183.892,223.600 184.192,223.600 184.408 C 223.600 184.623,223.392 184.800,223.139 184.800 C 222.651 184.800,218.617 186.561,217.600 187.218 C 217.270 187.431,216.550 187.804,216.000 188.046 C 215.450 188.288,214.730 188.648,214.400 188.846 C 214.070 189.044,213.350 189.402,212.800 189.642 C 212.250 189.881,211.260 190.325,210.600 190.627 C 209.940 190.929,207.870 191.790,206.000 192.540 C 201.977 194.154,195.945 196.750,191.556 198.757 C 190.542 199.221,189.462 199.601,189.156 199.602 C 188.850 199.604,188.096 199.868,187.480 200.189 C 186.864 200.511,185.784 200.950,185.080 201.165 C 184.376 201.380,182.540 202.034,181.000 202.617 C 179.460 203.200,177.480 203.938,176.600 204.257 C 175.720 204.575,174.433 205.098,173.740 205.418 C 173.046 205.738,172.270 206.000,172.014 206.000 C 171.758 206.000,170.705 206.334,169.674 206.741 C 167.701 207.522,164.196 208.615,159.200 210.009 C 157.550 210.470,155.390 211.118,154.400 211.450 C 153.410 211.782,151.958 212.215,151.174 212.413 C 150.389 212.610,149.219 213.046,148.574 213.383 C 147.928 213.720,146.950 213.997,146.400 214.000 C 145.850 214.003,144.912 214.260,144.315 214.571 C 143.718 214.882,142.257 215.339,141.068 215.586 C 137.824 216.259,136.937 217.382,137.504 220.097 C 138.317 223.990,139.204 227.396,139.576 228.051 C 139.779 228.409,140.072 229.399,140.226 230.251 C 140.381 231.103,140.748 232.276,141.042 232.858 C 141.336 233.440,141.753 234.610,141.969 235.458 C 142.460 237.392,143.858 241.400,144.621 243.060 C 144.939 243.754,145.200 244.500,145.200 244.719 C 145.200 245.141,148.877 252.471,150.408 255.100 C 150.632 255.485,151.037 256.250,151.309 256.800 C 152.325 258.857,155.734 263.972,157.070 265.445 C 157.692 266.129,158.464 267.119,158.788 267.645 C 159.111 268.170,161.529 270.734,164.162 273.342 C 168.585 277.723,170.600 279.365,173.200 280.707 C 174.622 281.440,175.828 282.163,176.457 282.659 C 176.932 283.033,178.073 283.438,183.800 285.267 C 186.461 286.116,186.943 286.117,186.128 285.269 C 185.709 284.834,184.557 284.402,183.416 284.253 C 182.325 284.109,181.254 283.814,181.036 283.596 C 180.818 283.378,180.361 283.200,180.020 283.200 C 179.418 283.199,175.408 281.333,173.807 280.308 C 170.428 278.145,169.043 277.088,165.959 274.320 C 161.891 270.668,153.200 259.967,153.200 258.610 C 153.200 258.419,152.946 257.979,152.636 257.631 C 151.905 256.814,147.119 247.595,146.077 245.000 C 145.360 243.215,144.703 241.471,142.984 236.800 C 141.418 232.544,139.988 227.540,138.759 222.015 L 137.918 218.229 138.965 217.328 C 139.541 216.833,140.775 216.242,141.706 216.016 C 142.638 215.790,143.940 215.405,144.600 215.162 C 145.260 214.918,146.700 214.489,147.800 214.208 C 148.900 213.927,150.250 213.507,150.800 213.274 C 151.350 213.040,153.060 212.494,154.600 212.060 C 163.524 209.542,165.093 209.082,166.000 208.721 C 166.550 208.502,168.800 207.719,171.000 206.981 C 173.200 206.243,177.160 204.809,179.800 203.793 C 182.440 202.777,185.140 201.758,185.800 201.528 C 189.288 200.312,199.768 196.031,204.200 194.012 C 204.640 193.811,206.350 193.078,208.000 192.382 C 214.037 189.837,228.983 182.529,235.800 178.789 C 238.220 177.461,240.740 176.105,241.400 175.776 C 242.060 175.447,243.255 174.778,244.055 174.289 C 244.854 173.800,246.537 172.770,247.794 172.000 C 269.902 158.453,287.683 142.513,296.470 128.361 C 299.166 124.019,301.554 119.897,302.008 118.800 C 302.235 118.250,302.668 117.260,302.969 116.600 C 304.693 112.828,305.252 111.159,307.734 102.400 C 308.469 99.804,310.144 85.445,309.853 84.235 C 309.742 83.776,309.360 80.790,309.003 77.600 C 308.312 71.423,308.036 70.218,305.519 62.400 C 303.915 57.417,303.133 55.512,300.514 50.200 C 297.714 44.523,296.418 42.218,296.409 42.901 M136.591 48.009 C 136.183 48.461,136.074 48.800,136.338 48.800 C 136.592 48.800,136.800 48.626,136.800 48.413 C 136.800 48.199,137.070 48.129,137.400 48.255 C 137.730 48.382,138.000 48.297,138.000 48.066 C 138.000 47.256,137.299 47.227,136.591 48.009 M200.941 49.201 C 197.855 49.653,194.742 50.879,188.866 53.958 C 184.662 56.161,180.696 59.279,175.318 64.608 C 171.135 68.753,169.587 70.597,164.448 77.558 C 161.535 81.503,160.918 82.433,159.910 84.400 C 159.628 84.950,159.051 85.940,158.629 86.600 C 158.206 87.260,157.285 88.700,156.581 89.800 C 154.591 92.908,151.725 98.519,151.422 99.898 C 151.272 100.584,150.890 101.359,150.574 101.621 C 150.258 101.883,150.000 102.355,150.000 102.670 C 150.000 102.984,149.662 103.907,149.248 104.721 C 147.032 109.082,144.311 116.429,143.558 120.083 C 143.344 121.119,142.908 122.469,142.587 123.083 C 142.267 123.698,142.004 124.707,142.002 125.326 C 142.001 125.945,141.663 127.295,141.250 128.326 C 140.838 129.357,140.311 131.100,140.079 132.200 C 139.847 133.300,139.451 135.100,139.198 136.200 C 137.809 142.250,137.443 144.180,136.964 148.000 C 136.674 150.310,136.255 153.460,136.032 155.000 C 135.810 156.540,135.427 160.500,135.179 163.800 C 134.932 167.100,134.577 171.690,134.390 174.000 C 133.862 180.531,133.913 189.753,134.480 190.320 C 135.544 191.384,142.259 190.109,145.662 188.197 C 146.246 187.868,147.101 187.600,147.563 187.600 C 148.025 187.600,149.075 187.240,149.896 186.800 C 150.716 186.360,151.634 186.000,151.934 186.000 C 152.482 186.000,153.642 185.526,157.481 183.732 C 159.707 182.692,163.099 180.084,163.749 178.913 C 163.987 178.484,163.565 178.678,162.687 179.400 C 159.733 181.832,158.795 182.445,156.522 183.433 C 155.245 183.988,153.660 184.685,153.000 184.982 C 152.340 185.279,150.990 185.779,150.000 186.094 C 149.010 186.408,146.490 187.241,144.400 187.945 C 142.310 188.650,139.769 189.500,138.753 189.834 C 136.283 190.647,134.958 190.288,134.644 188.718 C 134.272 186.862,134.353 180.961,134.787 178.233 C 135.000 176.895,135.360 172.290,135.588 168.000 C 135.815 163.710,136.173 159.157,136.383 157.883 C 136.592 156.609,136.962 153.729,137.205 151.483 C 137.807 145.926,140.067 134.258,141.289 130.400 C 141.533 129.630,141.956 128.010,142.228 126.800 C 142.501 125.590,142.916 124.060,143.152 123.400 C 143.388 122.740,144.063 120.580,144.652 118.600 C 145.677 115.156,148.824 106.678,149.599 105.271 C 149.803 104.902,150.405 103.610,150.937 102.400 C 153.342 96.936,155.951 91.915,158.212 88.400 C 159.316 86.684,159.619 86.178,161.348 83.159 C 162.529 81.099,168.646 72.935,171.821 69.184 C 186.788 51.498,206.052 44.832,220.828 52.226 C 229.035 56.332,235.501 70.577,231.916 76.653 C 231.317 77.667,231.264 77.950,231.702 77.782 C 233.452 77.111,233.974 71.284,232.699 66.661 C 229.044 53.409,217.089 46.837,200.941 49.201 M106.926 75.500 C 106.789 75.885,106.605 76.333,106.518 76.495 C 106.430 76.658,106.637 76.684,106.977 76.554 C 107.317 76.423,107.483 76.135,107.346 75.913 C 107.210 75.692,107.346 75.353,107.649 75.161 C 108.066 74.897,108.076 74.811,107.687 74.806 C 107.406 74.803,107.063 75.115,106.926 75.500 M103.294 79.396 C 103.455 79.575,103.293 79.936,102.933 80.199 C 102.573 80.463,102.450 80.784,102.659 80.913 C 102.869 81.042,103.252 80.808,103.512 80.393 C 103.877 79.807,103.873 79.573,103.492 79.354 C 103.221 79.199,103.132 79.218,103.294 79.396 M231.467 81.067 C 231.320 81.213,231.214 81.708,231.232 82.167 C 231.249 82.625,231.352 82.779,231.462 82.510 C 231.571 82.241,231.631 81.901,231.596 81.755 C 231.561 81.609,231.772 81.337,232.066 81.151 C 232.360 80.965,232.405 80.809,232.167 80.806 C 231.928 80.803,231.613 80.920,231.467 81.067 M231.264 91.600 C 231.161 92.721,231.703 95.200,232.052 95.200 C 232.244 95.200,232.400 94.750,232.400 94.200 C 232.400 93.650,232.232 93.200,232.027 93.200 C 231.821 93.200,231.578 92.705,231.487 92.100 C 231.395 91.495,231.295 91.270,231.264 91.600 M229.606 106.900 C 229.610 107.784,229.723 108.026,229.957 107.656 C 230.272 107.159,230.117 105.600,229.753 105.600 C 229.669 105.600,229.603 106.185,229.606 106.900 M223.636 125.133 C 223.342 125.682,223.384 125.867,223.804 125.867 C 224.112 125.867,224.260 125.697,224.131 125.489 C 224.003 125.281,224.146 124.953,224.449 124.761 C 224.826 124.522,224.847 124.410,224.514 124.406 C 224.247 124.403,223.852 124.730,223.636 125.133 M70.349 125.477 C 70.047 125.849,70.010 126.028,70.266 125.874 C 70.522 125.721,70.823 125.821,70.934 126.098 C 71.046 126.374,71.151 126.195,71.168 125.700 C 71.206 124.622,71.072 124.586,70.349 125.477 M221.982 128.434 C 221.736 128.893,221.640 129.373,221.768 129.501 C 221.895 129.629,222.000 129.536,222.000 129.295 C 222.000 129.054,222.283 128.574,222.629 128.229 C 222.974 127.883,223.071 127.600,222.843 127.600 C 222.615 127.600,222.227 127.975,221.982 128.434 M215.864 138.329 C 215.099 139.174,215.019 139.600,215.624 139.600 C 215.857 139.600,215.943 139.431,215.815 139.225 C 215.688 139.018,215.900 138.672,216.288 138.455 C 216.676 138.238,216.889 137.955,216.761 137.828 C 216.633 137.700,216.230 137.925,215.864 138.329 M214.200 141.200 C 213.802 141.640,213.628 142.000,213.814 142.000 C 214.001 142.000,213.804 142.264,213.376 142.587 C 212.949 142.910,212.803 143.180,213.051 143.187 C 213.299 143.194,213.726 142.930,214.000 142.600 C 214.274 142.270,214.358 142.000,214.187 142.000 C 214.016 142.000,214.202 141.640,214.600 141.200 C 214.998 140.760,215.234 140.400,215.124 140.400 C 215.014 140.400,214.598 140.760,214.200 141.200 M55.586 156.617 C 54.886 157.460,55.736 158.426,56.500 157.656 C 56.901 157.252,56.861 157.205,56.300 157.419 C 55.907 157.569,55.600 157.500,55.600 157.263 C 55.600 157.030,55.915 156.656,56.300 156.432 C 56.685 156.208,56.797 156.019,56.549 156.012 C 56.301 156.005,55.868 156.278,55.586 156.617 M198.568 157.340 C 198.429 157.701,198.179 157.911,198.012 157.807 C 197.844 157.704,197.368 158.020,196.953 158.509 C 196.202 159.398,196.202 159.398,197.032 158.699 C 197.490 158.314,197.960 158.093,198.075 158.209 C 198.191 158.325,198.517 158.141,198.800 157.800 C 199.083 157.459,199.203 157.069,199.066 156.933 C 198.930 156.797,198.706 156.980,198.568 157.340 M52.600 167.200 C 52.199 167.643,51.990 168.124,52.136 168.269 C 52.281 168.414,52.400 168.313,52.400 168.043 C 52.400 167.773,52.608 167.681,52.862 167.838 C 53.135 168.007,53.216 167.949,53.059 167.696 C 52.914 167.461,53.021 167.188,53.298 167.089 C 53.574 166.990,53.694 166.794,53.564 166.652 C 53.435 166.511,53.001 166.757,52.600 167.200 M182.700 167.632 C 182.315 167.856,182.003 168.256,182.006 168.520 C 182.010 168.841,182.128 168.817,182.361 168.449 C 182.553 168.146,182.881 168.003,183.089 168.131 C 183.297 168.260,183.467 168.103,183.467 167.782 C 183.467 167.462,183.452 167.205,183.433 167.212 C 183.415 167.219,183.085 167.408,182.700 167.632 M167.000 176.000 C 166.602 176.440,166.394 176.800,166.538 176.800 C 166.682 176.800,167.160 176.440,167.600 176.000 C 168.040 175.560,168.248 175.200,168.062 175.200 C 167.876 175.200,167.398 175.560,167.000 176.000 M164.608 177.524 C 164.263 178.423,164.595 178.489,165.337 177.669 C 165.888 177.061,165.902 176.933,165.419 176.933 C 165.097 176.933,164.732 177.199,164.608 177.524 M47.864 183.129 C 47.099 183.974,47.019 184.400,47.624 184.400 C 47.857 184.400,47.943 184.231,47.815 184.025 C 47.688 183.818,47.900 183.472,48.288 183.255 C 48.676 183.038,48.889 182.755,48.761 182.628 C 48.633 182.500,48.230 182.725,47.864 183.129 M46.414 189.574 C 45.755 190.805,45.932 191.001,46.800 190.000 C 47.705 188.956,47.759 188.800,47.214 188.800 C 47.002 188.800,46.642 189.148,46.414 189.574 M45.600 192.624 C 45.600 193.187,45.763 193.546,45.962 193.423 C 46.162 193.300,46.231 192.839,46.116 192.400 C 45.828 191.299,45.600 191.398,45.600 192.624 M328.504 224.621 C 328.231 224.916,328.141 225.238,328.304 225.337 C 328.467 225.435,328.823 225.274,329.096 224.979 C 329.369 224.684,329.459 224.362,329.296 224.263 C 329.133 224.165,328.777 224.326,328.504 224.621 M319.976 232.700 C 319.446 233.305,319.270 233.575,319.586 233.300 C 319.902 233.025,320.529 232.786,320.980 232.768 C 321.431 232.751,321.574 232.646,321.298 232.534 C 321.021 232.423,320.897 232.167,321.021 231.966 C 321.473 231.235,320.917 231.625,319.976 232.700 M42.432 247.838 C 42.414 248.079,42.760 248.602,43.200 249.000 C 43.654 249.411,44.000 249.524,44.000 249.262 C 44.000 249.008,43.809 248.800,43.576 248.800 C 43.343 248.800,43.281 248.592,43.438 248.338 C 43.607 248.065,43.549 247.984,43.296 248.141 C 43.061 248.286,42.777 248.179,42.666 247.902 C 42.550 247.615,42.450 247.587,42.432 247.838 M340.063 254.036 C 339.560 255.791,339.014 258.485,338.850 260.022 C 338.545 262.877,337.604 264.335,334.200 267.230 C 333.760 267.605,331.600 269.655,329.400 271.788 C 327.200 273.920,324.246 276.685,322.836 277.932 C 321.426 279.179,319.622 280.830,318.827 281.600 C 318.033 282.370,315.870 284.350,314.021 286.000 C 312.173 287.650,310.365 289.281,310.006 289.624 C 309.646 289.968,308.932 290.543,308.419 290.902 C 307.906 291.261,306.567 292.430,305.443 293.500 C 304.319 294.570,302.050 296.513,300.400 297.818 C 298.750 299.123,296.485 301.003,295.367 301.996 C 294.249 302.988,292.921 304.070,292.416 304.400 C 291.911 304.730,290.036 306.222,288.249 307.716 C 286.462 309.210,284.816 310.560,284.591 310.716 C 281.697 312.723,280.108 313.883,279.559 314.388 C 279.194 314.725,278.425 315.360,277.851 315.800 C 277.277 316.240,276.418 316.915,275.943 317.300 C 275.467 317.685,274.938 318.000,274.767 318.000 C 274.597 318.000,274.219 318.226,273.929 318.503 C 273.375 319.030,272.809 319.435,269.200 321.890 C 266.853 323.486,266.834 323.500,265.000 324.911 C 263.247 326.260,260.561 327.985,258.800 328.893 C 258.250 329.177,257.006 329.947,256.036 330.605 C 255.066 331.262,253.806 332.115,253.236 332.501 C 252.666 332.886,251.660 333.484,251.000 333.828 C 250.340 334.173,249.080 334.881,248.200 335.401 C 246.789 336.235,243.628 337.925,239.200 340.214 C 238.430 340.612,237.710 341.062,237.600 341.215 C 237.490 341.367,236.950 341.620,236.400 341.776 C 235.850 341.933,234.590 342.433,233.600 342.888 C 230.285 344.412,229.409 344.760,227.800 345.188 C 226.920 345.422,225.851 345.880,225.424 346.206 C 224.996 346.533,224.366 346.806,224.024 346.814 C 223.681 346.821,222.680 347.175,221.800 347.600 C 220.920 348.025,219.930 348.385,219.600 348.400 C 219.270 348.415,218.280 348.775,217.400 349.200 C 216.520 349.625,215.440 349.980,215.000 349.989 C 214.560 349.998,213.693 350.269,213.074 350.592 C 212.455 350.915,211.015 351.297,209.874 351.441 C 208.733 351.585,207.242 351.929,206.561 352.206 C 205.880 352.482,204.350 352.831,203.161 352.981 C 201.972 353.132,200.190 353.506,199.200 353.814 C 198.210 354.122,195.823 354.565,193.895 354.799 C 191.967 355.033,189.921 355.402,189.349 355.619 C 188.777 355.837,185.494 356.200,182.054 356.427 C 178.614 356.653,175.278 357.010,174.640 357.219 C 173.113 357.721,154.833 357.712,152.677 357.208 C 151.755 356.993,148.840 356.641,146.200 356.427 C 143.560 356.213,140.230 355.774,138.800 355.452 C 137.370 355.131,135.300 354.686,134.200 354.463 C 128.891 353.388,126.091 352.696,124.940 352.173 C 124.246 351.858,123.164 351.600,122.534 351.600 C 121.904 351.600,120.716 351.240,119.896 350.800 C 119.075 350.360,118.123 350.000,117.781 350.000 C 117.438 350.000,116.493 349.656,115.679 349.235 C 114.866 348.814,113.210 348.023,112.000 347.477 C 104.944 344.293,98.797 341.105,97.000 339.698 C 96.495 339.303,93.547 337.420,90.583 335.600 C 89.329 334.830,86.930 333.166,85.252 331.902 C 83.573 330.638,81.975 329.603,81.700 329.602 C 81.425 329.601,81.200 329.416,81.200 329.190 C 81.200 328.965,80.750 328.609,80.200 328.400 C 79.650 328.191,79.200 327.835,79.200 327.610 C 79.200 327.384,78.992 327.200,78.738 327.200 C 78.484 327.200,77.719 326.776,77.038 326.258 C 76.357 325.739,75.350 325.181,74.800 325.016 C 73.905 324.749,73.936 324.821,75.095 325.698 C 75.807 326.236,76.257 326.824,76.095 327.003 C 75.933 327.182,76.020 327.202,76.289 327.047 C 76.564 326.889,77.085 327.124,77.478 327.583 C 77.863 328.032,78.373 328.400,78.611 328.400 C 78.850 328.400,79.603 328.805,80.285 329.300 C 80.967 329.795,81.927 330.470,82.418 330.800 C 82.909 331.130,84.141 332.039,85.156 332.820 C 86.170 333.601,88.135 334.951,89.522 335.820 C 90.910 336.689,93.675 338.446,95.668 339.725 C 99.439 342.145,108.901 347.012,113.800 349.052 C 121.603 352.302,134.865 355.839,142.200 356.626 C 143.520 356.768,146.310 357.134,148.400 357.439 C 152.914 358.100,174.475 358.215,178.200 357.598 C 179.520 357.380,182.670 357.009,185.200 356.775 C 187.730 356.541,190.970 356.104,192.400 355.804 C 193.830 355.504,195.810 355.151,196.800 355.019 C 197.790 354.888,200.130 354.419,202.000 353.979 C 211.398 351.766,215.223 350.709,219.400 349.170 C 223.000 347.843,230.969 344.754,232.400 344.131 C 236.119 342.510,237.449 341.918,238.000 341.633 C 252.375 334.224,265.626 325.868,278.018 316.400 C 280.177 314.750,282.445 313.040,283.058 312.600 C 284.823 311.332,296.431 302.030,298.231 300.440 C 299.129 299.648,301.289 297.834,303.031 296.408 C 304.774 294.983,306.830 293.247,307.600 292.552 C 309.574 290.768,310.699 289.764,314.047 286.800 C 321.942 279.810,332.567 269.830,337.044 265.200 C 338.804 263.379,339.208 262.690,339.390 261.200 C 339.510 260.210,339.993 257.551,340.463 255.292 C 341.500 250.303,341.307 249.696,340.063 254.036 M280.089 268.223 C 279.600 268.565,279.205 269.060,279.212 269.323 C 279.219 269.585,279.408 269.485,279.632 269.100 C 279.856 268.715,280.301 268.400,280.620 268.400 C 280.939 268.400,281.200 268.220,281.200 268.000 C 281.200 267.476,281.137 267.489,280.089 268.223 M45.867 269.867 C 45.720 270.013,45.614 270.508,45.632 270.967 C 45.649 271.425,45.752 271.579,45.862 271.310 C 45.971 271.041,46.031 270.701,45.996 270.555 C 45.961 270.409,46.172 270.137,46.466 269.951 C 46.760 269.765,46.805 269.609,46.567 269.606 C 46.328 269.603,46.013 269.720,45.867 269.867 M277.391 270.409 C 276.983 270.861,276.874 271.200,277.138 271.200 C 277.392 271.200,277.600 271.026,277.600 270.813 C 277.600 270.599,277.870 270.529,278.200 270.655 C 278.530 270.782,278.800 270.697,278.800 270.466 C 278.800 269.656,278.099 269.627,277.391 270.409 M264.522 278.587 C 263.063 279.871,263.467 279.879,265.200 278.600 C 265.945 278.050,266.350 277.600,266.100 277.600 C 265.850 277.600,265.140 278.044,264.522 278.587 M47.600 278.951 C 47.600 279.034,47.870 279.326,48.200 279.600 C 48.691 280.008,48.800 279.980,48.800 279.449 C 48.800 279.092,48.530 278.800,48.200 278.800 C 47.870 278.800,47.600 278.868,47.600 278.951 M246.349 286.700 C 245.861 287.323,245.872 287.344,246.449 286.893 C 246.806 286.614,247.436 286.496,247.849 286.631 C 248.469 286.833,248.495 286.800,248.000 286.444 C 247.184 285.857,246.986 285.888,246.349 286.700 M197.200 288.200 C 197.200 288.530,197.492 288.800,197.849 288.800 C 198.380 288.800,198.408 288.691,198.000 288.200 C 197.726 287.870,197.434 287.600,197.351 287.600 C 197.268 287.600,197.200 287.870,197.200 288.200 M240.400 288.200 C 239.992 288.691,240.020 288.800,240.551 288.800 C 240.908 288.800,241.200 288.530,241.200 288.200 C 241.200 287.870,241.132 287.600,241.049 287.600 C 240.966 287.600,240.674 287.870,240.400 288.200 M223.000 291.200 C 222.589 291.654,222.476 292.000,222.738 292.000 C 222.992 292.000,223.200 291.809,223.200 291.576 C 223.200 291.343,223.408 291.281,223.662 291.438 C 223.935 291.607,224.016 291.549,223.859 291.296 C 223.714 291.061,223.821 290.777,224.098 290.666 C 224.385 290.550,224.413 290.450,224.162 290.432 C 223.921 290.414,223.398 290.760,223.000 291.200 M54.200 295.200 C 53.885 295.710,54.304 296.402,54.924 296.394 C 55.211 296.390,55.162 296.232,54.800 295.994 C 54.267 295.644,54.267 295.556,54.800 295.206 C 55.162 294.968,55.211 294.810,54.924 294.806 C 54.662 294.803,54.336 294.980,54.200 295.200 M55.636 298.867 C 55.852 299.270,56.247 299.597,56.514 299.594 C 56.847 299.590,56.826 299.478,56.449 299.239 C 56.146 299.047,56.003 298.719,56.131 298.511 C 56.260 298.303,56.112 298.133,55.804 298.133 C 55.384 298.133,55.342 298.318,55.636 298.867 M57.236 302.067 C 57.452 302.470,57.847 302.797,58.114 302.794 C 58.447 302.790,58.426 302.678,58.049 302.439 C 57.746 302.247,57.603 301.919,57.731 301.711 C 57.860 301.503,57.712 301.333,57.404 301.333 C 56.984 301.333,56.942 301.518,57.236 302.067 M58.633 303.947 C 58.367 304.377,59.909 305.824,60.260 305.474 C 60.400 305.333,60.230 305.110,59.883 304.976 C 59.535 304.843,59.348 304.479,59.468 304.167 C 59.702 303.558,58.989 303.370,58.633 303.947 M63.200 311.938 C 63.200 312.526,64.708 313.672,64.956 313.272 C 65.085 313.062,64.815 312.793,64.355 312.672 C 63.896 312.552,63.638 312.262,63.783 312.027 C 63.928 311.792,63.857 311.600,63.624 311.600 C 63.391 311.600,63.200 311.752,63.200 311.938 " stroke="none" fill="#043c7e" fill-rule="evenodd"></path></g></svg>